<?xml version="1.0" encoding="utf-8"?>
<!-- Generator: Adobe Illustrator 24.1.1, SVG Export Plug-In . SVG Version: 6.00 Build 0)  -->
<svg version="1.1" id="Layer_1" xmlns="http://www.w3.org/2000/svg" xmlns:xlink="http://www.w3.org/1999/xlink" x="0px" y="0px"
	 width="943.1px" height="600.9px" viewBox="0 0 943.1 600.9" style="enable-background:new 0 0 943.1 600.9;" xml:space="preserve"
	>
<style type="text/css">
	.st0{fill:none;stroke:#ECEDEF;stroke-width:2;stroke-miterlimit:10;}
	.st1{opacity:0.5;fill:none;stroke:#204FFF;stroke-miterlimit:10;enable-background:new    ;}
	.st2{fill:#F6F8FF;}
	.st3{opacity:0.3;fill:#D4E0FF;}
	.st4{fill:#081140;}
	.st5{fill:#ECEDEF;}
	.st6{fill:none;stroke:#D4E0FF;stroke-width:2;stroke-miterlimit:10;}
	.st7{fill:#D4E0FF;}
	.st8{fill-rule:evenodd;clip-rule:evenodd;fill:#FFFFFF;}
	.st9{fill:#FFFFFF;}
</style>
<line class="st0" x1="82.5" y1="284.8" x2="473.9" y2="520.2"/>
<line class="st0" x1="267.2" y1="173.8" x2="667.1" y2="410.5"/>
<line class="st0" x1="76.8" y1="288.1" x2="472.3" y2="82.5"/>
<line class="st0" x1="275.9" y1="412.3" x2="275.9" y2="171.1"/>
<path class="st1" d="M275.9,412.3"/>
<circle class="st2" cx="273.5" cy="171.2" r="82.5"/>
<circle class="st3" cx="273.5" cy="171.2" r="82.5"/>
<polyline class="st0" points="472.3,82.5 860.6,284.8 473.9,520.2 "/>
<line class="st0" x1="671.8" y1="172.5" x2="275.9" y2="412.3"/>
<circle class="st4" cx="470.2" cy="300.6" r="102.1"/>
<line class="st0" x1="686.4" y1="144.9" x2="751.7" y2="54.8"/>
<circle class="st5" cx="746.8" cy="60.6" r="11.8"/>
<circle class="st5" cx="765" cy="343.6" r="11.8"/>
<line class="st6" x1="275.2" y1="416.3" x2="140.9" y2="484"/>
<circle class="st7" cx="150.5" cy="480.1" r="15.9"/>
<line class="st0" x1="275.2" y1="416.3" x2="229.5" y2="537.8"/>
<circle class="st5" cx="233.3" cy="529.8" r="13.7"/>
<line class="st0" x1="667.7" y1="171.1" x2="667.7" y2="410.5"/>
<g>
	<path class="st4" d="M264.6,152.3c0,4.5-2.8,5.6-5.2,5.6h-2.6v-11h2.3C261.9,146.8,264.6,147.7,264.6,152.3z M258.3,148.1v8.6h1.2
		c1.7,0,3.5-0.7,3.5-4.4s-1.8-4.2-3.6-4.2L258.3,148.1L258.3,148.1z"/>
	<path class="st4" d="M273.4,154.2H268c0.1,2,1.1,2.7,2.3,2.7c0.8,0,1.5-0.2,2.2-0.7l0.6,0.9c-0.8,0.7-1.8,1.1-2.9,1.1
		c-2.4,0-3.7-1.6-3.7-4.3c0-2.6,1.3-4.5,3.5-4.5c2.3,0,3.5,1.6,3.5,4.2C273.5,153.7,273.5,154,273.4,154.2z M272,153
		c0-1.6-0.7-2.6-2-2.6c-1.1,0-1.9,0.8-2,2.7L272,153L272,153z"/>
	<path class="st4" d="M282.2,154.2h-5.4c0.1,2,1.1,2.7,2.3,2.7c0.8,0,1.5-0.2,2.2-0.7l0.6,0.9c-0.8,0.7-1.8,1.1-2.9,1.1
		c-2.4,0-3.7-1.6-3.7-4.3c0-2.6,1.3-4.5,3.5-4.5c2.3,0,3.5,1.6,3.5,4.2C282.3,153.7,282.3,154,282.2,154.2z M280.8,153
		c0-1.6-0.7-2.6-2-2.6c-1.1,0-1.9,0.8-2,2.7L280.8,153L280.8,153z"/>
	<path class="st4" d="M291.7,153.6c0,2.6-1.1,4.4-3.3,4.4c-0.9,0-1.7-0.3-2.2-1v4l-1.5,0.2v-11.8h1.3l0.1,1.1
		c0.6-0.9,1.5-1.3,2.5-1.3C290.8,149.2,291.7,151,291.7,153.6z M290.1,153.6c0-2.2-0.6-3.2-1.9-3.2c-0.9,0-1.6,0.6-2,1.3v4.1
		c0.4,0.7,1.1,1,1.9,1C289.4,156.9,290.1,155.9,290.1,153.6z"/>
	<path class="st4" d="M241.5,174.3h-4.2l-0.8,2.8H235l3.5-11h1.9l3.5,11h-1.6L241.5,174.3z M241.2,173.1l-1.7-5.8l-1.7,5.8H241.2z"
		/>
	<path class="st4" d="M251.3,169.4l-0.7,0.9c-0.6-0.4-1.1-0.6-1.8-0.6c-1.3,0-2.2,1-2.2,3.2s0.8,3.1,2.2,3.1c0.7,0,1.2-0.2,1.8-0.6
		l0.7,1c-0.8,0.6-1.6,0.9-2.6,0.9c-2.3,0-3.7-1.6-3.7-4.3s1.4-4.5,3.7-4.5C249.7,168.4,250.5,168.7,251.3,169.4z"/>
	<path class="st4" d="M257.7,176.7c-0.6,0.4-1.2,0.6-1.9,0.6c-1.4,0-2.3-0.8-2.3-2.4v-5.1H252v-1.1h1.5v-1.9l1.5-0.2v2.1h2l-0.2,1.1
		H255v5c0,0.8,0.3,1.2,1,1.2c0.4,0,0.7-0.1,1.1-0.3L257.7,176.7z"/>
	<path class="st4" d="M261,165.6c0,0.6-0.4,1-1,1s-1-0.4-1-1s0.4-1,1-1S261,165,261,165.6z M260.7,177.1h-1.5v-8.4h1.5V177.1z"/>
	<path class="st4" d="M270.8,172.8c0,2.6-1.4,4.4-3.8,4.4s-3.8-1.7-3.8-4.4c0-2.6,1.4-4.4,3.8-4.4S270.8,170.2,270.8,172.8z
		 M264.8,172.9c0,2.2,0.8,3.2,2.2,3.2s2.2-1,2.2-3.2s-0.8-3.2-2.2-3.2C265.6,169.6,264.8,170.6,264.8,172.9z"/>
	<path class="st4" d="M279.7,171v6.1h-1.5v-5.8c0-1.3-0.5-1.6-1.3-1.6c-0.9,0-1.6,0.6-2.1,1.5v6h-1.5v-8.4h1.3l0.1,1.2
		c0.6-0.9,1.5-1.4,2.6-1.4C278.8,168.4,279.7,169.4,279.7,171z"/>
	<path class="st4" d="M289.1,176.2l-0.3,1c-0.8-0.1-1.4-0.4-1.6-1.3c-0.6,0.9-1.5,1.3-2.5,1.3c-1.7,0-2.7-1-2.7-2.5
		c0-1.8,1.4-2.8,3.7-2.8h1.3v-0.6c0-1.2-0.6-1.7-1.8-1.7c-0.6,0-1.4,0.2-2.3,0.4l-0.4-1.1c1-0.4,2-0.6,2.9-0.6c2,0,3,1,3,2.8v3.9
		C288.4,175.8,288.7,176.1,289.1,176.2z M286.9,174.8v-1.9h-1.1c-1.6,0-2.3,0.6-2.3,1.7c0,1,0.5,1.5,1.5,1.5
		C285.8,176.2,286.5,175.7,286.9,174.8z"/>
	<path class="st4" d="M298.5,172.8c0,2.6-1.3,4.4-3.3,4.4c-0.9,0-1.7-0.4-2.2-1.1l-0.1,0.9h-1.3v-11.8l1.5-0.2v4.6
		c0.6-0.8,1.4-1.2,2.4-1.2C297.3,168.4,298.5,170,298.5,172.8z M296.9,172.8c0-2.4-0.8-3.2-2-3.2c-0.9,0-1.5,0.6-2,1.3v4
		c0.4,0.7,1.1,1.1,1.9,1.1C296.1,176.1,296.9,175.1,296.9,172.8z"/>
	<path class="st4" d="M301,175.4v-10.2l1.5-0.2v10.3c0,0.4,0.1,0.7,0.5,0.7c0.2,0,0.4,0,0.5-0.1l0.4,1c-0.3,0.2-0.7,0.3-1.2,0.3
		C301.7,177.3,301,176.6,301,175.4z"/>
	<path class="st4" d="M312.1,173.4h-5.4c0.1,2,1.1,2.7,2.3,2.7c0.8,0,1.5-0.2,2.2-0.7l0.6,0.9c-0.8,0.7-1.8,1.1-2.9,1.1
		c-2.4,0-3.7-1.6-3.7-4.3c0-2.6,1.3-4.5,3.5-4.5c2.3,0,3.5,1.6,3.5,4.2C312.2,172.9,312.1,173.2,312.1,173.4z M310.7,172.2
		c0-1.6-0.7-2.6-2-2.6c-1.1,0-1.9,0.8-2,2.7L310.7,172.2L310.7,172.2z"/>
	<path class="st4" d="M245,194.9h4.5l-0.2,1.3h-5.9v-11h1.5L245,194.9L245,194.9z"/>
	<path class="st4" d="M253.2,184.8c0,0.6-0.4,1-1,1s-1-0.4-1-1s0.4-1,1-1S253.2,184.2,253.2,184.8z M252.9,196.3h-1.5v-8.5h1.5
		V196.3z"/>
	<path class="st4" d="M262.6,187.8v11.8l-1.5-0.2V195c-0.5,0.8-1.4,1.3-2.4,1.3c-2,0-3.2-1.7-3.2-4.4c0-2.6,1.2-4.5,3.3-4.5
		c1,0,1.8,0.5,2.4,1.1l0.1-0.9h1.3L262.6,187.8L262.6,187.8z M261.1,194v-4.1c-0.5-0.7-1.1-1.1-2-1.1c-1.3,0-2,1.1-2,3.2
		c0,2.2,0.7,3.2,1.9,3.2C259.9,195.3,260.5,194.8,261.1,194z"/>
	<path class="st4" d="M271.9,196.3h-1.3l-0.1-1.3c-0.6,1-1.4,1.5-2.6,1.5c-1.5,0-2.4-0.9-2.4-2.6v-6.1h1.5v5.9
		c0,1.2,0.4,1.6,1.3,1.6s1.6-0.6,2.1-1.5v-6h1.5V196.3z"/>
	<path class="st4" d="M276.8,184.8c0,0.6-0.4,1-1,1s-1-0.4-1-1s0.4-1,1-1S276.8,184.2,276.8,184.8z M276.5,196.3H275v-8.5h1.5V196.3
		z"/>
	<path class="st4" d="M286.2,184.4v11.8h-1.3l-0.1-1.2c-0.5,0.8-1.4,1.4-2.4,1.4c-2,0-3.2-1.7-3.2-4.4c0-2.6,1.2-4.5,3.3-4.5
		c1,0,1.7,0.4,2.3,1v-4.4L286.2,184.4z M284.7,194v-4.1c-0.5-0.7-1.1-1.1-2-1.1c-1.3,0-2,1.1-2,3.2c0,2.2,0.7,3.2,1.9,3.2
		C283.6,195.3,284.2,194.8,284.7,194z"/>
	<path class="st4" d="M291.1,184.8c0,0.6-0.4,1-1,1s-1-0.4-1-1s0.4-1,1-1C290.6,183.8,291.1,184.2,291.1,184.8z M290.8,196.3h-1.5
		v-8.5h1.5V196.3z"/>
	<path class="st4" d="M298.1,195.9c-0.6,0.4-1.2,0.6-1.9,0.6c-1.4,0-2.3-0.8-2.3-2.4V189h-1.5v-1.2h1.5v-1.9l1.5-0.2v2.1h2l-0.2,1.1
		h-1.8v5c0,0.8,0.3,1.2,1,1.2c0.4,0,0.7-0.1,1.1-0.3L298.1,195.9z"/>
	<path class="st4" d="M303,196.3c-0.6,1.8-1.6,3.1-3.9,3.4l-0.2-1.2c1.7-0.3,2.2-0.9,2.7-2.3h-0.5l-2.8-8.4h1.6l2.3,7.4l2.2-7.4h1.5
		L303,196.3z"/>
</g>
<circle class="st2" cx="860.9" cy="285.5" r="82.5"/>
<circle class="st3" cx="860.9" cy="285.5" r="82.5"/>
<circle class="st2" cx="472.6" cy="83.2" r="82.5"/>
<circle class="st7" cx="668" cy="171.8" r="82.5"/>
<circle class="st7" cx="276.9" cy="411.2" r="82.5"/>
<circle class="st2" cx="474.2" cy="519" r="82.5"/>
<circle class="st2" cx="82.8" cy="285.5" r="82.5"/>
<circle class="st2" cx="668.1" cy="411.2" r="82.5"/>
<circle class="st3" cx="668.1" cy="411.2" r="82.5"/>
<g>
	<g>
		<g>
			<path class="st4" d="M835.2,260.9l-0.8,0.9c-0.8-0.7-1.6-1-2.5-1c-1.1,0-2,0.5-2,1.6c0,0.9,0.4,1.4,2.4,2
				c1.8,0.5,3.3,1.2,3.3,3.3c0,1.9-1.5,3.3-3.9,3.3c-1.6,0-2.8-0.5-3.7-1.4l0.8-0.9c0.8,0.7,1.7,1.1,2.9,1.1c1.3,0,2.4-0.6,2.4-2
				c0-1.1-0.5-1.6-2.4-2.1c-2.1-0.7-3.3-1.5-3.3-3.2s1.4-2.9,3.5-2.9C833.3,259.6,834.3,260,835.2,260.9z"/>
			<path class="st4" d="M844.1,267.1h-5.4c0.1,2,1.1,2.7,2.3,2.7c0.8,0,1.5-0.2,2.2-0.7l0.6,0.9c-0.8,0.7-1.8,1.1-2.9,1.1
				c-2.4,0-3.7-1.6-3.7-4.3c0-2.6,1.3-4.5,3.5-4.5c2.3,0,3.5,1.6,3.5,4.2C844.1,266.6,844.1,266.9,844.1,267.1z M842.7,265.9
				c0-1.6-0.7-2.6-2-2.6c-1.1,0-1.9,0.8-2,2.7L842.7,265.9L842.7,265.9z"/>
			<path class="st4" d="M852.8,270l-0.3,1c-0.8-0.1-1.4-0.4-1.6-1.3c-0.6,0.9-1.5,1.3-2.5,1.3c-1.7,0-2.7-1-2.7-2.5
				c0-1.8,1.4-2.8,3.7-2.8h1.3V265c0-1.2-0.6-1.7-1.8-1.7c-0.6,0-1.4,0.2-2.3,0.4l-0.4-1.1c1-0.4,2-0.6,2.9-0.6c2,0,3,1,3,2.8v3.9
				C852.1,269.6,852.4,269.8,852.8,270z M850.6,268.6v-1.9h-1.1c-1.6,0-2.3,0.6-2.3,1.7c0,1,0.5,1.5,1.5,1.5
				C849.5,269.9,850.1,269.5,850.6,268.6z"/>
			<path class="st4" d="M866,264.8v6.1h-1.5V265c0-1.3-0.5-1.6-1.2-1.6c-0.9,0-1.4,0.6-2,1.5v6h-1.5V265c0-1.3-0.5-1.6-1.2-1.6
				c-0.9,0-1.4,0.6-2,1.5v6h-1.5v-8.4h1.3l0.1,1.2c0.6-0.8,1.3-1.4,2.4-1.4c1,0,1.8,0.6,2.1,1.5c0.6-0.9,1.4-1.5,2.5-1.5
				C865,262.2,866,263.2,866,264.8z"/>
			<path class="st4" d="M868.9,269.1V259l1.5-0.2v10.3c0,0.4,0.1,0.7,0.5,0.7c0.2,0,0.4,0,0.5-0.1l0.4,1c-0.3,0.2-0.7,0.3-1.2,0.3
				C869.6,271,868.9,270.3,868.9,269.1z"/>
			<path class="st4" d="M880,267.1h-5.4c0.1,2,1.1,2.7,2.3,2.7c0.8,0,1.5-0.2,2.2-0.7l0.6,0.9c-0.8,0.7-1.8,1.1-2.9,1.1
				c-2.4,0-3.7-1.6-3.7-4.3c0-2.6,1.3-4.5,3.5-4.5c2.3,0,3.5,1.6,3.5,4.2C880.1,266.6,880,266.9,880,267.1z M878.6,265.9
				c0-1.6-0.7-2.6-2-2.6c-1.1,0-1.9,0.8-2,2.7L878.6,265.9L878.6,265.9z"/>
			<path class="st4" d="M887.6,263.1L887,264c-0.8-0.5-1.4-0.7-2.2-0.7c-1,0-1.6,0.4-1.6,1.1s0.4,1,1.8,1.4c1.8,0.4,2.8,1.2,2.8,2.6
				c0,1.8-1.6,2.6-3.3,2.6c-1.4,0-2.4-0.5-3.2-1.1l0.8-0.9c0.7,0.5,1.5,0.8,2.4,0.8c1.1,0,1.8-0.5,1.8-1.3s-0.4-1.2-2-1.6
				c-1.8-0.5-2.5-1.3-2.5-2.4c0-1.3,1.3-2.3,3-2.3C886,262.2,886.8,262.5,887.6,263.1z"/>
			<path class="st4" d="M895,263.1l-0.6,0.9c-0.8-0.5-1.4-0.7-2.2-0.7c-1,0-1.6,0.4-1.6,1.1s0.4,1,1.8,1.4c1.8,0.4,2.8,1.2,2.8,2.6
				c0,1.8-1.6,2.6-3.3,2.6c-1.4,0-2.4-0.5-3.2-1.1l0.8-0.9c0.7,0.5,1.5,0.8,2.4,0.8c1.1,0,1.8-0.5,1.8-1.3s-0.4-1.2-2-1.6
				c-1.8-0.5-2.5-1.3-2.5-2.4c0-1.3,1.3-2.3,3-2.3C893.3,262.2,894.2,262.5,895,263.1z"/>
			<path class="st4" d="M832.5,290H831v-11h1.5V290z M834.3,284l4.5,6h-1.9l-4.4-5.9l4.2-5.1h1.7L834.3,284z"/>
			<path class="st4" d="M844,285.8v4.2h-1.5v-4.2l-3.6-6.8h1.7l2.7,5.5l2.7-5.5h1.6L844,285.8z"/>
			<path class="st4" d="M855.7,279.9l-0.8,1c-0.7-0.6-1.4-0.8-2.1-0.8c-1.7,0-3.1,1.1-3.1,4.4c0,3.2,1.3,4.4,3,4.4
				c1,0,1.7-0.4,2.4-0.9l0.8,1c-0.6,0.6-1.7,1.2-3.2,1.2c-2.7,0-4.6-2-4.6-5.7s2.1-5.7,4.6-5.7C854.1,278.8,854.9,279.2,855.7,279.9
				z"/>
			<path class="st4" d="M862.9,277.4l-3.7,14.3l-1.3-0.3l3.7-14.3L862.9,277.4z"/>
			<path class="st4" d="M870.8,287.2h-4.2l-0.8,2.8h-1.5l3.5-11h1.9l3.5,11h-1.6L870.8,287.2z M870.5,286l-1.7-5.8L867,286H870.5z"
				/>
			<path class="st4" d="M884.9,290h-1.5l-0.4-5c-0.1-1.7-0.3-3.6-0.3-4.5l-2.4,8.2H879l-2.5-8.2c0,1.3-0.1,3-0.2,4.6l-0.4,4.9h-1.4
				l0.9-11h2l2.3,8l2.2-8h2.1L884.9,290z"/>
			<path class="st4" d="M889.1,288.7h4.5l-0.2,1.3h-5.9v-11h1.5v9.7H889.1z"/>
			<path class="st4" d="M842.8,301.6c0,2.5-1.8,3.6-4.3,3.6h-1.4v4h-1.5v-11h2.9C841.1,298.2,842.8,299.3,842.8,301.6z M841.1,301.6
				c0-1.6-1.1-2.2-2.7-2.2H837v4.6h1.3C840.1,304,841.1,303.5,841.1,301.6z"/>
			<path class="st4" d="M849.1,300.7l-0.3,1.4c-0.3-0.1-0.4-0.1-0.7-0.1c-1.1,0-1.7,0.8-2,2.4v4.8h-1.5v-8.4h1.3l0.1,1.7
				c0.4-1.3,1.2-1.9,2.3-1.9C848.5,300.6,848.8,300.6,849.1,300.7z"/>
			<path class="st4" d="M857.2,305c0,2.6-1.4,4.4-3.8,4.4c-2.4,0-3.8-1.7-3.8-4.4c0-2.6,1.4-4.4,3.8-4.4
				C855.9,300.6,857.2,302.3,857.2,305z M851.3,305c0,2.2,0.8,3.2,2.2,3.2s2.2-1,2.2-3.2s-0.8-3.2-2.2-3.2S851.3,302.8,851.3,305z"
				/>
			<path class="st4" d="M865.4,301.5l-0.7,0.9c-0.6-0.4-1.1-0.6-1.8-0.6c-1.3,0-2.2,1-2.2,3.2s0.8,3.1,2.2,3.1
				c0.7,0,1.2-0.2,1.8-0.6l0.7,1c-0.8,0.6-1.6,0.9-2.6,0.9c-2.3,0-3.7-1.6-3.7-4.3c0-2.7,1.4-4.5,3.7-4.5
				C863.8,300.6,864.6,300.8,865.4,301.5z"/>
			<path class="st4" d="M873.5,305.5h-5.4c0.1,2,1.1,2.7,2.3,2.7c0.8,0,1.5-0.2,2.2-0.7l0.6,0.9c-0.8,0.7-1.8,1.1-2.9,1.1
				c-2.4,0-3.7-1.6-3.7-4.3c0-2.6,1.3-4.5,3.5-4.5c2.3,0,3.5,1.6,3.5,4.2C873.5,305,873.5,305.3,873.5,305.5z M872.1,304.3
				c0-1.6-0.7-2.6-2-2.6c-1.1,0-1.9,0.8-2,2.7L872.1,304.3L872.1,304.3z"/>
			<path class="st4" d="M881.1,301.5l-0.6,0.9c-0.8-0.5-1.4-0.7-2.2-0.7c-1,0-1.6,0.4-1.6,1.1s0.4,1,1.8,1.4
				c1.8,0.4,2.8,1.2,2.8,2.6c0,1.8-1.6,2.6-3.3,2.6c-1.4,0-2.4-0.5-3.2-1.1l0.8-0.9c0.7,0.5,1.5,0.8,2.4,0.8c1.1,0,1.8-0.5,1.8-1.3
				s-0.4-1.2-2-1.6c-1.8-0.5-2.5-1.3-2.5-2.4c0-1.3,1.3-2.3,3-2.3C879.4,300.6,880.3,300.9,881.1,301.5z"/>
			<path class="st4" d="M888.5,301.5l-0.6,0.9c-0.8-0.5-1.4-0.7-2.2-0.7c-1,0-1.6,0.4-1.6,1.1s0.4,1,1.8,1.4
				c1.8,0.4,2.8,1.2,2.8,2.6c0,1.8-1.6,2.6-3.3,2.6c-1.4,0-2.4-0.5-3.2-1.1l0.8-0.9c0.7,0.5,1.5,0.8,2.4,0.8c1.1,0,1.8-0.5,1.8-1.3
				s-0.4-1.2-2-1.6c-1.8-0.5-2.5-1.3-2.5-2.4c0-1.3,1.3-2.3,3-2.3C886.8,300.6,887.7,300.9,888.5,301.5z"/>
		</g>
	</g>
</g>
<g>
	<g>
		<g>
			<path class="st4" d="M436.9,64.9l-0.8,1c-0.7-0.6-1.4-0.8-2.1-0.8c-1.7,0-3.1,1.1-3.1,4.4c0,3.2,1.3,4.4,3,4.4
				c1,0,1.7-0.4,2.4-0.9l0.8,1c-0.6,0.6-1.7,1.2-3.2,1.2c-2.7,0-4.6-2-4.6-5.7s2.1-5.7,4.6-5.7C435.2,63.9,436,64.2,436.9,64.9z"/>
			<path class="st4" d="M445.5,70.9c0,2.6-1.4,4.4-3.8,4.4s-3.8-1.7-3.8-4.4c0-2.6,1.4-4.4,3.8-4.4
				C444.2,66.5,445.5,68.2,445.5,70.9z M439.6,70.9c0,2.2,0.8,3.2,2.2,3.2s2.2-1,2.2-3.2s-0.8-3.2-2.2-3.2
				C440.4,67.6,439.6,68.7,439.6,70.9z"/>
			<path class="st4" d="M458.8,69v6.1h-1.5v-5.8c0-1.3-0.5-1.6-1.2-1.6c-0.9,0-1.4,0.6-2,1.5v6h-1.5v-5.8c0-1.3-0.5-1.6-1.2-1.6
				c-0.9,0-1.4,0.6-2,1.5v6H448v-8.4h1.3l0.1,1.2c0.6-0.8,1.3-1.4,2.4-1.4c1,0,1.8,0.6,2.1,1.5c0.6-0.9,1.4-1.5,2.5-1.5
				C457.9,66.5,458.8,67.4,458.8,69z"/>
			<path class="st4" d="M468.8,70.9c0,2.6-1.1,4.4-3.3,4.4c-0.9,0-1.7-0.3-2.2-1v4l-1.5,0.2V66.6h1.3l0.1,1.1
				c0.6-0.9,1.5-1.3,2.5-1.3C467.9,66.5,468.8,68.2,468.8,70.9z M467.2,70.9c0-2.2-0.6-3.2-1.9-3.2c-0.9,0-1.6,0.6-2,1.3v4
				c0.4,0.7,1.1,1,1.9,1C466.5,74.1,467.2,73.1,467.2,70.9z"/>
			<path class="st4" d="M477.7,71.4h-5.4c0.1,2,1.1,2.7,2.3,2.7c0.8,0,1.5-0.2,2.2-0.7l0.6,0.9c-0.8,0.7-1.8,1.1-2.9,1.1
				c-2.4,0-3.7-1.6-3.7-4.3c0-2.6,1.3-4.5,3.5-4.5c2.3,0,3.5,1.6,3.5,4.2C477.8,70.9,477.8,71.2,477.7,71.4z M476.3,70.2
				c0-1.6-0.7-2.6-2-2.6c-1.1,0-1.9,0.8-2,2.7L476.3,70.2L476.3,70.2z"/>
			<path class="st4" d="M484.5,74.7c-0.6,0.4-1.2,0.6-1.9,0.6c-1.4,0-2.3-0.8-2.3-2.4v-5.1h-1.5v-1.1h1.5v-1.9l1.5-0.2v2.1h2
				l-0.2,1.1h-1.8v5c0,0.8,0.3,1.2,1,1.2c0.4,0,0.7-0.1,1.1-0.3L484.5,74.7z"/>
			<path class="st4" d="M487.8,63.6c0,0.6-0.4,1-1,1s-1-0.4-1-1s0.4-1,1-1S487.8,63,487.8,63.6z M487.5,75.1H486v-8.4h1.5V75.1z"/>
			<path class="st4" d="M494.9,74.7c-0.6,0.4-1.2,0.6-1.9,0.6c-1.4,0-2.3-0.8-2.3-2.4v-5.1h-1.5v-1.1h1.5v-1.9l1.5-0.2v2.1h2
				l-0.2,1.1h-1.8v5c0,0.8,0.3,1.2,1,1.2c0.4,0,0.7-0.1,1.1-0.3L494.9,74.7z"/>
			<path class="st4" d="M498.3,63.6c0,0.6-0.4,1-1,1s-1-0.4-1-1s0.4-1,1-1C497.8,62.6,498.3,63,498.3,63.6z M498,75.1h-1.5v-8.4h1.5
				V75.1z"/>
			<path class="st4" d="M504.4,75.1h-1.8l-2.9-8.4h1.6l2.2,7.1l2.2-7.1h1.6L504.4,75.1z"/>
			<path class="st4" d="M515.3,71.4h-5.4c0.1,2,1.1,2.7,2.3,2.7c0.8,0,1.5-0.2,2.2-0.7l0.6,0.9c-0.8,0.7-1.8,1.1-2.9,1.1
				c-2.4,0-3.7-1.6-3.7-4.3c0-2.6,1.3-4.5,3.5-4.5c2.3,0,3.5,1.6,3.5,4.2C515.4,70.9,515.3,71.2,515.3,71.4z M513.9,70.2
				c0-1.6-0.7-2.6-2-2.6c-1.1,0-1.9,0.8-2,2.7L513.9,70.2L513.9,70.2z"/>
			<path class="st4" d="M456.1,86.7c0,2.5-1.8,3.6-4.3,3.6h-1.4v4h-1.5v-11h2.9C454.4,83.3,456.1,84.3,456.1,86.7z M454.4,86.7
				c0-1.6-1.1-2.2-2.7-2.2h-1.4V89h1.3C453.4,89,454.4,88.5,454.4,86.7z"/>
			<path class="st4" d="M462.3,85.7l-0.3,1.4c-0.3-0.1-0.4-0.1-0.7-0.1c-1.1,0-1.7,0.8-2,2.4v4.8h-1.5v-8.4h1.3l0.1,1.7
				c0.4-1.3,1.2-1.9,2.3-1.9C461.8,85.7,462.1,85.7,462.3,85.7z"/>
			<path class="st4" d="M465.9,82.8c0,0.6-0.4,1-1,1s-1-0.4-1-1s0.4-1,1-1S465.9,82.2,465.9,82.8z M465.6,94.3h-1.5v-8.4h1.5V94.3z"
				/>
			<path class="st4" d="M474.3,86.6l-0.7,0.9c-0.6-0.4-1.1-0.6-1.8-0.6c-1.3,0-2.2,1-2.2,3.2s0.8,3.1,2.2,3.1c0.7,0,1.2-0.2,1.8-0.6
				l0.7,1c-0.8,0.6-1.6,0.9-2.6,0.9c-2.3,0-3.7-1.6-3.7-4.3c0-2.7,1.4-4.5,3.7-4.5C472.8,85.7,473.6,85.9,474.3,86.6z"/>
			<path class="st4" d="M478.2,82.8c0,0.6-0.4,1-1,1s-1-0.4-1-1s0.4-1,1-1C477.8,81.8,478.2,82.2,478.2,82.8z M477.9,94.3h-1.5v-8.4
				h1.5V94.3z"/>
			<path class="st4" d="M487.4,88.2v6.1H486v-5.8c0-1.3-0.5-1.6-1.3-1.6c-0.9,0-1.6,0.6-2.1,1.5v6H481V86h1.3l0.1,1.2
				c0.6-0.9,1.5-1.4,2.6-1.4C486.5,85.7,487.4,86.6,487.4,88.2z"/>
			<path class="st4" d="M497.3,86.2c-0.7,0.2-1.5,0.3-2.5,0.3c1,0.4,1.5,1.2,1.5,2.1c0,1.7-1.2,2.9-3.2,2.9c-0.4,0-0.7,0-1.1-0.2
				c-0.2,0.2-0.4,0.5-0.4,0.8c0,0.4,0.2,0.7,1.1,0.7h1.3c1.7,0,2.9,1,2.9,2.3c0,1.6-1.3,2.6-4,2.6c-2.8,0-3.6-0.8-3.6-2.6h1.3
				c0,1,0.4,1.4,2.3,1.4c1.8,0,2.5-0.5,2.5-1.3s-0.6-1.2-1.7-1.2h-1.3c-1.5,0-2.2-0.8-2.2-1.6c0-0.5,0.3-1.1,0.9-1.5
				c-1-0.5-1.4-1.2-1.4-2.3c0-1.7,1.4-2.9,3.2-2.9c2.1,0,2.9-0.3,3.9-0.8L497.3,86.2z M491.2,88.6c0,1.1,0.6,1.9,1.8,1.9
				s1.8-0.7,1.8-1.9c0-1.2-0.6-1.9-1.8-1.9C491.9,86.7,491.2,87.5,491.2,88.6z"/>
		</g>
	</g>
</g>
<g>
	<g>
		<path class="st4" d="M640.1,156.2h-4.2L635,159h-1.5l3.5-11h1.9l3.5,11h-1.6L640.1,156.2z M639.7,155l-1.7-5.8l-1.7,5.8H639.7z"/>
		<path class="st4" d="M650.7,147.2V159h-1.3l-0.1-1.2c-0.5,0.8-1.4,1.4-2.4,1.4c-2,0-3.2-1.7-3.2-4.4c0-2.6,1.2-4.4,3.3-4.4
			c1,0,1.7,0.4,2.3,1V147L650.7,147.2z M649.2,156.8v-4.1c-0.5-0.7-1.1-1.1-2-1.1c-1.3,0-2,1.1-2,3.3s0.7,3.2,1.9,3.2
			C648.1,158,648.7,157.6,649.2,156.8z"/>
		<path class="st4" d="M657.2,159h-1.8l-2.9-8.4h1.6l2.2,7.1l2.2-7.1h1.6L657.2,159z"/>
		<path class="st4" d="M667.9,158.2l-0.3,1c-0.8-0.1-1.4-0.4-1.6-1.3c-0.6,0.9-1.5,1.3-2.5,1.3c-1.7,0-2.7-1-2.7-2.5
			c0-1.8,1.4-2.8,3.7-2.8h1.3v-0.6c0-1.2-0.6-1.7-1.8-1.7c-0.6,0-1.4,0.2-2.3,0.4l-0.4-1.1c1-0.4,2-0.6,2.9-0.6c2,0,3,1,3,2.8v3.9
			C667.2,157.8,667.5,158,667.9,158.2z M665.7,156.8v-1.9h-1.1c-1.6,0-2.3,0.6-2.3,1.7c0,1,0.5,1.5,1.5,1.5
			C664.6,158.1,665.3,157.7,665.7,156.8z"/>
		<path class="st4" d="M676.7,153v6.1h-1.5v-5.8c0-1.3-0.5-1.6-1.3-1.6c-0.9,0-1.6,0.6-2.1,1.5v6h-1.5v-8.4h1.3l0.1,1.2
			c0.6-0.9,1.5-1.4,2.6-1.4C675.8,150.4,676.7,151.4,676.7,153z"/>
		<path class="st4" d="M685.4,151.3l-0.7,0.9c-0.6-0.4-1.1-0.6-1.8-0.6c-1.3,0-2.2,1-2.2,3.2s0.8,3.1,2.2,3.1c0.7,0,1.2-0.2,1.8-0.6
			l0.7,1c-0.8,0.6-1.6,0.9-2.6,0.9c-2.3,0-3.7-1.6-3.7-4.3s1.4-4.5,3.7-4.5C683.8,150.4,684.6,150.6,685.4,151.3z"/>
		<path class="st4" d="M693.5,155.3h-5.4c0.1,2,1.1,2.7,2.3,2.7c0.8,0,1.5-0.2,2.2-0.7l0.6,0.9c-0.8,0.7-1.8,1.1-2.9,1.1
			c-2.4,0-3.7-1.6-3.7-4.3c0-2.6,1.3-4.5,3.5-4.5c2.3,0,3.5,1.6,3.5,4.2C693.5,154.8,693.5,155.1,693.5,155.3z M692.1,154.1
			c0-1.6-0.7-2.6-2-2.6c-1.1,0-1.9,0.8-2,2.7L692.1,154.1L692.1,154.1z"/>
		<path class="st4" d="M702.5,147.2V159h-1.3l-0.1-1.2c-0.5,0.8-1.4,1.4-2.4,1.4c-2,0-3.2-1.7-3.2-4.4c0-2.6,1.2-4.4,3.3-4.4
			c1,0,1.7,0.4,2.3,1V147L702.5,147.2z M701,156.8v-4.1c-0.5-0.7-1.1-1.1-2-1.1c-1.3,0-2,1.1-2,3.3s0.7,3.2,1.9,3.2
			C699.9,158,700.5,157.6,701,156.8z"/>
		<path class="st4" d="M633.5,175.4h-4.2l-0.8,2.8H627l3.5-11h1.9l3.5,11h-1.6L633.5,175.4z M633.1,174.2l-1.7-5.8l-1.7,5.8H633.1z"
			/>
		<path class="st4" d="M637.5,176.5v-10.2l1.5-0.2v10.3c0,0.4,0.1,0.7,0.5,0.7c0.2,0,0.4,0,0.5-0.1l0.4,1c-0.3,0.2-0.7,0.3-1.2,0.3
			C638.2,178.4,637.5,177.7,637.5,176.5z"/>
		<path class="st4" d="M649.2,170.2c-0.7,0.2-1.5,0.3-2.5,0.3c1,0.4,1.5,1.2,1.5,2.1c0,1.7-1.2,2.9-3.2,2.9c-0.4,0-0.7,0-1.1-0.2
			c-0.2,0.2-0.4,0.5-0.4,0.8c0,0.4,0.2,0.7,1.1,0.7h1.3c1.7,0,2.9,1,2.9,2.3c0,1.6-1.3,2.6-4,2.6c-2.8,0-3.6-0.8-3.6-2.6h1.3
			c0,1,0.4,1.4,2.3,1.4c1.8,0,2.5-0.5,2.5-1.3s-0.6-1.2-1.7-1.2h-1.3c-1.5,0-2.2-0.8-2.2-1.6c0-0.5,0.3-1.1,0.9-1.5
			c-1-0.5-1.4-1.2-1.4-2.3c0-1.7,1.4-2.9,3.2-2.9c2.1,0,2.9-0.3,3.9-0.8L649.2,170.2z M643.1,172.5c0,1.1,0.6,1.9,1.8,1.9
			s1.8-0.7,1.8-1.9s-0.6-1.9-1.8-1.9C643.7,170.6,643.1,171.4,643.1,172.5z"/>
		<path class="st4" d="M657.4,174c0,2.6-1.4,4.4-3.8,4.4c-2.4,0-3.8-1.7-3.8-4.4c0-2.6,1.4-4.4,3.8-4.4S657.4,171.3,657.4,174z
			 M651.5,174c0,2.2,0.8,3.2,2.2,3.2s2.2-1,2.2-3.2s-0.8-3.2-2.2-3.2S651.5,171.8,651.5,174z"/>
		<path class="st4" d="M664.4,169.7l-0.3,1.4c-0.3-0.1-0.4-0.1-0.7-0.1c-1.1,0-1.7,0.8-2,2.4v4.8h-1.5v-8.4h1.3l0.1,1.7
			c0.4-1.3,1.2-1.9,2.3-1.9C663.9,169.6,664.2,169.6,664.4,169.7z"/>
		<path class="st4" d="M667.9,166.7c0,0.6-0.4,1-1,1s-1-0.4-1-1s0.4-1,1-1S667.9,166.1,667.9,166.7z M667.7,178.2h-1.5v-8.4h1.5
			V178.2z"/>
		<path class="st4" d="M675,177.8c-0.6,0.4-1.2,0.6-1.9,0.6c-1.4,0-2.3-0.8-2.3-2.4v-5.1h-1.5v-1.1h1.5v-1.9l1.5-0.2v2.1h2l-0.2,1.1
			h-1.8v5c0,0.8,0.3,1.2,1,1.2c0.4,0,0.7-0.1,1.1-0.3L675,177.8z"/>
		<path class="st4" d="M683.1,172.2v6h-1.5v-5.8c0-1.3-0.5-1.6-1.3-1.6c-0.9,0-1.6,0.6-2.1,1.5v6h-1.5v-11.8l1.5-0.2v4.7
			c0.6-0.8,1.4-1.4,2.5-1.4C682.1,169.6,683.1,170.6,683.1,172.2z"/>
		<path class="st4" d="M696.8,172.2v6h-1.5v-5.8c0-1.3-0.5-1.6-1.2-1.6c-0.9,0-1.4,0.6-2,1.5v6h-1.5v-5.8c0-1.3-0.5-1.6-1.2-1.6
			c-0.9,0-1.4,0.6-2,1.5v6h-1.5V170h1.3l0.1,1.2c0.6-0.8,1.3-1.4,2.4-1.4c1,0,1.8,0.6,2.1,1.5c0.6-0.9,1.4-1.5,2.5-1.5
			C695.9,169.6,696.8,170.6,696.8,172.2z"/>
		<path class="st4" d="M701.6,166.7c0,0.6-0.4,1-1,1s-1-0.4-1-1s0.4-1,1-1C701.2,165.7,701.6,166.1,701.6,166.7z M701.4,178.2h-1.5
			v-8.4h1.5V178.2z"/>
		<path class="st4" d="M710.1,170.5l-0.7,0.9c-0.6-0.4-1.1-0.6-1.8-0.6c-1.3,0-2.2,1-2.2,3.2s0.8,3.1,2.2,3.1c0.7,0,1.2-0.2,1.8-0.6
			l0.7,1c-0.8,0.6-1.6,0.9-2.6,0.9c-2.3,0-3.7-1.6-3.7-4.3s1.4-4.5,3.7-4.5C708.5,169.6,709.3,169.8,710.1,170.5z"/>
		<path class="st4" d="M640.4,187.6h-4.3v3.6h3.7v1.2h-3.7v3.8h4.6v1.2h-6.1v-11h6L640.4,187.6z"/>
		<path class="st4" d="M649.4,197.4h-1.8l-2.1-3.6l-2.1,3.6h-1.7l2.9-4.5l-2.6-4h1.7l1.8,3.1l1.8-3.1h1.7l-2.6,3.9L649.4,197.4z"/>
		<path class="st4" d="M657.2,193.7h-5.4c0.1,2,1.1,2.7,2.3,2.7c0.8,0,1.5-0.2,2.2-0.7l0.6,0.9c-0.8,0.7-1.8,1.1-2.9,1.1
			c-2.4,0-3.7-1.6-3.7-4.3c0-2.6,1.3-4.5,3.5-4.5c2.3,0,3.5,1.6,3.5,4.2C657.3,193.2,657.3,193.5,657.2,193.7z M655.8,192.5
			c0-1.6-0.7-2.6-2-2.6c-1.1,0-1.9,0.8-2,2.7L655.8,192.5L655.8,192.5z"/>
		<path class="st4" d="M665.3,189.7l-0.7,0.9c-0.6-0.4-1.1-0.6-1.8-0.6c-1.3,0-2.2,1-2.2,3.2s0.8,3.1,2.2,3.1c0.7,0,1.2-0.2,1.8-0.6
			l0.7,1c-0.8,0.6-1.6,0.9-2.6,0.9c-2.3,0-3.7-1.6-3.7-4.3s1.4-4.5,3.7-4.5C663.8,188.8,664.6,189,665.3,189.7z"/>
		<path class="st4" d="M673.5,197.4h-1.3l-0.1-1.3c-0.6,1-1.4,1.5-2.6,1.5c-1.5,0-2.4-0.9-2.4-2.6v-6h1.5v5.9c0,1.2,0.4,1.6,1.3,1.6
			c0.9,0,1.6-0.6,2.1-1.5v-6h1.5V197.4z"/>
		<path class="st4" d="M680.9,197c-0.6,0.4-1.2,0.6-1.9,0.6c-1.4,0-2.3-0.8-2.3-2.4v-5.1h-1.5V189h1.5v-1.9l1.5-0.2v2.1h2l-0.2,1.1
			h-1.8v5c0,0.8,0.3,1.2,1,1.2c0.4,0,0.7-0.1,1.1-0.3L680.9,197z"/>
		<path class="st4" d="M684.3,185.9c0,0.6-0.4,1-1,1s-1-0.4-1-1s0.4-1,1-1C683.9,184.9,684.3,185.3,684.3,185.9z M684,197.4h-1.5
			V189h1.5V197.4z"/>
		<path class="st4" d="M694,193.2c0,2.6-1.4,4.4-3.8,4.4c-2.4,0-3.8-1.7-3.8-4.4c0-2.6,1.4-4.4,3.8-4.4S694,190.5,694,193.2z
			 M688.1,193.2c0,2.2,0.8,3.2,2.2,3.2s2.2-1,2.2-3.2s-0.8-3.2-2.2-3.2C688.9,190,688.1,191,688.1,193.2z"/>
		<path class="st4" d="M702.9,191.4v6.1h-1.5v-5.8c0-1.3-0.5-1.6-1.3-1.6c-0.9,0-1.6,0.6-2.1,1.5v6h-1.5V189h1.3l0.1,1.2
			c0.6-0.9,1.5-1.4,2.6-1.4C702.1,188.8,702.9,189.8,702.9,191.4z"/>
	</g>
</g>
<g>
	<g>
		<path class="st4" d="M461,501.8h5.9l-0.2,1.2h-4.2v3.8h3.6v1.2h-3.6v4.9H461V501.8z"/>
		<path class="st4" d="M474.3,512l-0.3,1c-0.8-0.1-1.4-0.4-1.6-1.3c-0.6,0.9-1.5,1.3-2.5,1.3c-1.7,0-2.7-1-2.7-2.5
			c0-1.8,1.4-2.8,3.7-2.8h1.3v-0.6c0-1.2-0.6-1.7-1.8-1.7c-0.6,0-1.4,0.2-2.3,0.4l-0.4-1.1c1-0.4,2-0.6,2.9-0.6c2,0,3,1,3,2.8v3.9
			C473.6,511.6,473.9,511.9,474.3,512z M472.1,510.6v-1.9H471c-1.6,0-2.3,0.6-2.3,1.7c0,1,0.5,1.5,1.5,1.5
			C471,511.9,471.6,511.5,472.1,510.6z"/>
		<path class="st4" d="M481.7,505.2l-0.6,0.9c-0.8-0.5-1.4-0.7-2.2-0.7c-1,0-1.6,0.4-1.6,1.1s0.4,1,1.8,1.4c1.8,0.4,2.8,1.2,2.8,2.6
			c0,1.8-1.6,2.6-3.3,2.6c-1.4,0-2.4-0.5-3.2-1.1l0.8-0.9c0.7,0.5,1.5,0.8,2.4,0.8c1.1,0,1.8-0.5,1.8-1.3s-0.4-1.2-2-1.6
			c-1.8-0.5-2.5-1.3-2.5-2.4c0-1.3,1.3-2.3,3-2.3C480,504.2,480.9,504.6,481.7,505.2z"/>
		<path class="st4" d="M488.3,512.5c-0.6,0.4-1.2,0.6-1.9,0.6c-1.4,0-2.3-0.8-2.3-2.4v-5.1h-1.5v-1.1h1.5v-1.9l1.5-0.2v2.1h2
			l-0.2,1.1h-1.8v5c0,0.8,0.3,1.2,1,1.2c0.4,0,0.7-0.1,1.1-0.3L488.3,512.5z"/>
		<path class="st4" d="M441.4,522.1l-0.8,0.9c-0.8-0.7-1.6-1-2.5-1c-1.1,0-2,0.5-2,1.6c0,0.9,0.4,1.4,2.4,2c1.8,0.5,3.3,1.2,3.3,3.3
			c0,1.9-1.5,3.3-3.9,3.3c-1.6,0-2.8-0.5-3.7-1.4l0.8-0.9c0.8,0.7,1.7,1.1,2.9,1.1c1.3,0,2.4-0.6,2.4-2c0-1.1-0.5-1.6-2.4-2.1
			c-2.1-0.7-3.3-1.5-3.3-3.2s1.4-2.9,3.5-2.9C439.5,520.8,440.5,521.3,441.4,522.1z"/>
		<path class="st4" d="M450.3,528.3h-5.4c0.1,2,1.1,2.7,2.3,2.7c0.8,0,1.5-0.2,2.2-0.7l0.6,0.9c-0.8,0.7-1.8,1.1-2.9,1.1
			c-2.4,0-3.7-1.6-3.7-4.3c0-2.6,1.3-4.5,3.5-4.5c2.3,0,3.5,1.6,3.5,4.2C450.3,527.9,450.3,528.2,450.3,528.3z M448.9,527.2
			c0-1.6-0.7-2.6-2-2.6c-1.1,0-1.9,0.8-2,2.7L448.9,527.2L448.9,527.2z"/>
		<path class="st4" d="M457,531.7c-0.6,0.4-1.2,0.6-1.9,0.6c-1.4,0-2.3-0.8-2.3-2.4v-5.1h-1.5v-1.1h1.5v-1.9l1.5-0.2v2.1h2l-0.2,1.1
			h-1.8v5c0,0.8,0.3,1.2,1,1.2c0.4,0,0.7-0.1,1.1-0.3L457,531.7z"/>
		<path class="st4" d="M462.9,531.7c-0.6,0.4-1.2,0.6-1.9,0.6c-1.4,0-2.3-0.8-2.3-2.4v-5.1h-1.5v-1.1h1.5v-1.9l1.5-0.2v2.1h2
			l-0.2,1.1h-1.8v5c0,0.8,0.3,1.2,1,1.2c0.4,0,0.7-0.1,1.1-0.3L462.9,531.7z"/>
		<path class="st4" d="M464.2,530.4v-10.2l1.5-0.2v10.3c0,0.4,0.1,0.7,0.5,0.7c0.2,0,0.4,0,0.5-0.1l0.4,1c-0.3,0.2-0.7,0.3-1.2,0.3
			C464.9,532.3,464.2,531.6,464.2,530.4z"/>
		<path class="st4" d="M475.3,528.3H470c0.1,2,1.1,2.7,2.3,2.7c0.8,0,1.5-0.2,2.2-0.7l0.6,0.9c-0.8,0.7-1.8,1.1-2.9,1.1
			c-2.4,0-3.7-1.6-3.7-4.3c0-2.6,1.3-4.5,3.5-4.5c2.3,0,3.5,1.6,3.5,4.2C475.4,527.9,475.4,528.2,475.3,528.3z M473.9,527.2
			c0-1.6-0.7-2.6-2-2.6c-1.1,0-1.9,0.8-2,2.7L473.9,527.2L473.9,527.2z"/>
		<path class="st4" d="M488.6,526v6.1h-1.5v-5.8c0-1.3-0.5-1.6-1.2-1.6c-0.9,0-1.4,0.6-2,1.5v6h-1.5v-5.8c0-1.3-0.5-1.6-1.2-1.6
			c-0.9,0-1.4,0.6-2,1.5v6h-1.5v-8.4h1.3l0.1,1.2c0.6-0.8,1.3-1.4,2.4-1.4c1,0,1.8,0.6,2.1,1.5c0.6-0.9,1.4-1.5,2.5-1.5
			C487.7,523.4,488.6,524.4,488.6,526z"/>
		<path class="st4" d="M497.9,528.3h-5.4c0.1,2,1.1,2.7,2.3,2.7c0.8,0,1.5-0.2,2.2-0.7l0.6,0.9c-0.8,0.7-1.8,1.1-2.9,1.1
			c-2.4,0-3.7-1.6-3.7-4.3c0-2.6,1.3-4.5,3.5-4.5c2.3,0,3.5,1.6,3.5,4.2C498,527.9,498,528.2,497.9,528.3z M496.5,527.2
			c0-1.6-0.7-2.6-2-2.6c-1.1,0-1.9,0.8-2,2.7L496.5,527.2L496.5,527.2z"/>
		<path class="st4" d="M506.8,526v6.1h-1.5v-5.8c0-1.3-0.5-1.6-1.3-1.6c-0.9,0-1.6,0.6-2.1,1.5v6h-1.5v-8.4h1.3l0.1,1.2
			c0.6-0.9,1.5-1.4,2.6-1.4C505.9,523.4,506.8,524.4,506.8,526z"/>
		<path class="st4" d="M514.1,531.7c-0.6,0.4-1.2,0.6-1.9,0.6c-1.4,0-2.3-0.8-2.3-2.4v-5.1h-1.5v-1.1h1.5v-1.9l1.5-0.2v2.1h2
			l-0.2,1.1h-1.8v5c0,0.8,0.3,1.2,1,1.2c0.4,0,0.7-0.1,1.1-0.3L514.1,531.7z"/>
	</g>
</g>
<g>
	<g>
		<path class="st4" d="M63.5,261.1h-3.1v9.7H59v-9.7h-3.1v-1.3h7.9L63.5,261.1z"/>
		<path class="st4" d="M69.6,262.3l-0.3,1.4c-0.3-0.1-0.4-0.1-0.7-0.1c-1.1,0-1.7,0.8-2,2.4v4.8h-1.5v-8.4h1.3l0.1,1.7
			c0.4-1.3,1.2-1.9,2.3-1.9C68.9,262.2,69.3,262.2,69.6,262.3z"/>
		<path class="st4" d="M77.6,270.8h-1.3l-0.1-1.3c-0.6,1-1.4,1.5-2.6,1.5c-1.5,0-2.4-0.9-2.4-2.6v-6.1h1.5v5.9
			c0,1.2,0.4,1.6,1.3,1.6c0.9,0,1.6-0.6,2.1-1.5v-6h1.5V270.8z"/>
		<path class="st4" d="M85.8,263.1l-0.6,0.9c-0.8-0.5-1.4-0.7-2.2-0.7c-1,0-1.6,0.4-1.6,1.1s0.4,1,1.8,1.4c1.8,0.4,2.8,1.2,2.8,2.6
			c0,1.8-1.6,2.6-3.3,2.6c-1.4,0-2.4-0.5-3.2-1.1l0.8-0.9c0.7,0.5,1.5,0.8,2.4,0.8c1.1,0,1.8-0.5,1.8-1.3s-0.4-1.2-2-1.6
			c-1.8-0.5-2.5-1.3-2.5-2.4c0-1.3,1.3-2.3,3-2.3C84.1,262.2,85.1,262.5,85.8,263.1z"/>
		<path class="st4" d="M92.4,270.4c-0.6,0.4-1.2,0.6-1.9,0.6c-1.4,0-2.3-0.8-2.3-2.4v-5.1h-1.5v-1.1h1.5v-1.9l1.5-0.2v2.1h2
			l-0.2,1.1h-1.8v5c0,0.8,0.3,1.2,1,1.2c0.4,0,0.7-0.1,1.1-0.3L92.4,270.4z"/>
		<path class="st4" d="M100.1,267.1h-5.4c0.1,2,1.1,2.7,2.3,2.7c0.8,0,1.5-0.2,2.2-0.7l0.6,0.9c-0.8,0.7-1.8,1.1-2.9,1.1
			c-2.4,0-3.7-1.6-3.7-4.3c0-2.6,1.3-4.5,3.5-4.5c2.3,0,3.5,1.6,3.5,4.2C100.3,266.6,100.1,266.9,100.1,267.1z M98.8,265.9
			c0-1.6-0.7-2.6-2-2.6c-1.1,0-1.9,0.8-2,2.7L98.8,265.9L98.8,265.9z"/>
		<path class="st4" d="M109.1,259v11.8h-1.3l-0.1-1.2c-0.5,0.8-1.4,1.4-2.4,1.4c-2,0-3.2-1.7-3.2-4.4c0-2.6,1.2-4.5,3.3-4.5
			c1,0,1.7,0.4,2.3,1v-4.4L109.1,259z M107.6,268.6v-4.1c-0.5-0.7-1.1-1.1-2-1.1c-1.3,0-2,1.1-2,3.2c0,2.2,0.7,3.2,1.9,3.2
			C106.6,269.8,107.1,269.4,107.6,268.6z"/>
		<path class="st4" d="M69.4,290h-1.5l-0.4-5c-0.1-1.7-0.3-3.6-0.3-4.5l-2.4,8.2h-1.4l-2.5-8.2c0,1.3-0.1,3-0.2,4.6l-0.4,4.9h-1.4
			l0.9-11h2l2.3,8l2.2-8h2.1L69.4,290z"/>
		<path class="st4" d="M78.4,289.2l-0.3,1c-0.8-0.1-1.4-0.4-1.6-1.3c-0.6,0.9-1.5,1.3-2.5,1.3c-1.7,0-2.7-1-2.7-2.5
			c0-1.8,1.4-2.8,3.7-2.8h1.3v-0.6c0-1.2-0.6-1.7-1.8-1.7c-0.6,0-1.4,0.2-2.3,0.4l-0.4-1.1c1-0.4,2-0.6,2.9-0.6c2,0,3,1,3,2.8v3.9
			C77.8,288.8,78.1,289,78.4,289.2z M76.3,287.8v-1.9h-1.1c-1.6,0-2.3,0.6-2.3,1.7c0,1,0.5,1.5,1.5,1.5
			C75.1,289.1,75.8,288.7,76.3,287.8z"/>
		<path class="st4" d="M85.3,281.5l-0.3,1.4c-0.3-0.1-0.4-0.1-0.7-0.1c-1.1,0-1.7,0.8-2,2.4v4.8h-1.5v-8.4h1.3l0.1,1.7
			c0.4-1.3,1.2-1.9,2.3-1.9C84.8,281.4,85.1,281.4,85.3,281.5z"/>
		<path class="st4" d="M88.6,290h-1.5v-11.8l1.5-0.2V290z M90.3,285.3l3.5,4.7H92l-3.3-4.6l3.1-3.8h1.6L90.3,285.3z"/>
		<path class="st4" d="M101.6,286.3h-5.4c0.1,2,1.1,2.7,2.3,2.7c0.8,0,1.5-0.2,2.2-0.7l0.6,0.9c-0.8,0.7-1.8,1.1-2.9,1.1
			c-2.4,0-3.7-1.6-3.7-4.3c0-2.6,1.3-4.5,3.5-4.5c2.3,0,3.5,1.6,3.5,4.2C101.6,285.8,101.6,286.1,101.6,286.3z M100.1,285.1
			c0-1.6-0.7-2.6-2-2.6c-1.1,0-1.9,0.8-2,2.7L100.1,285.1L100.1,285.1z"/>
		<path class="st4" d="M108.3,289.6c-0.6,0.4-1.2,0.6-1.9,0.6c-1.4,0-2.3-0.8-2.3-2.4v-5.1h-1.4v-1.1h1.5v-1.9l1.5-0.2v2.1h2
			l-0.2,1.1h-1.8v5c0,0.8,0.3,1.2,1,1.2c0.4,0,0.7-0.1,1.1-0.3L108.3,289.6z"/>
		<path class="st4" d="M72.4,309.2h-1.5l-0.4-5c-0.1-1.7-0.3-3.6-0.3-4.5l-2.4,8.2h-1.4l-2.5-8.2c0,1.3-0.1,3-0.2,4.6l-0.4,4.9h-1.4
			l0.9-11h2l2.3,8l2.2-8h2.1L72.4,309.2z"/>
		<path class="st4" d="M81.3,308.4l-0.3,1c-0.8-0.1-1.4-0.4-1.6-1.3c-0.6,0.9-1.5,1.3-2.5,1.3c-1.7,0-2.7-1-2.7-2.5
			c0-1.8,1.4-2.8,3.7-2.8h1.3v-0.6c0-1.2-0.6-1.7-1.8-1.7c-0.6,0-1.4,0.2-2.3,0.4l-0.4-1.1c1-0.4,2-0.6,2.9-0.6c2,0,3,1,3,2.8v3.9
			C80.6,308,80.9,308.2,81.3,308.4z M79.3,307v-2h-1.1c-1.6,0-2.3,0.6-2.3,1.7c0,1,0.5,1.5,1.5,1.5C78.1,308.3,78.8,307.9,79.3,307z
			"/>
		<path class="st4" d="M85.3,309.2h-1.5v-11.8l1.5-0.2V309.2z M86.9,304.5l3.5,4.7h-1.8l-3.3-4.6l3.1-3.8H90L86.9,304.5z"/>
		<path class="st4" d="M98.3,305.5h-5.4c0.1,2,1.1,2.7,2.3,2.7c0.8,0,1.5-0.2,2.2-0.7l0.6,0.9c-0.8,0.7-1.8,1.1-2.9,1.1
			c-2.4,0-3.7-1.6-3.7-4.3c0-2.6,1.3-4.5,3.5-4.5c2.3,0,3.5,1.6,3.5,4.2C98.3,305,98.3,305.3,98.3,305.5z M96.8,304.3
			c0-1.6-0.7-2.6-2-2.6c-1.1,0-1.9,0.8-2,2.7L96.8,304.3L96.8,304.3z"/>
		<path class="st4" d="M105.3,300.7l-0.3,1.4c-0.3-0.1-0.4-0.1-0.7-0.1c-1.1,0-1.7,0.8-2,2.4v4.8h-1.5v-8.4h1.3l0.1,1.7
			c0.4-1.3,1.2-1.9,2.3-1.9C104.6,300.6,104.9,300.6,105.3,300.7z"/>
	</g>
</g>
<g>
	<g>
		<path class="st4" d="M635.1,395.1l-0.8,1c-0.7-0.6-1.4-0.8-2.1-0.8c-1.7,0-3.1,1.1-3.1,4.5c0,3.2,1.3,4.4,3,4.4
			c1,0,1.7-0.4,2.4-0.9l0.8,1c-0.6,0.6-1.7,1.2-3.2,1.2c-2.7,0-4.6-2-4.6-5.7s2.1-5.7,4.6-5.7C633.5,394,634.2,394.4,635.1,395.1z"
			/>
		<path class="st4" d="M643.2,405.2h-1.3l-0.1-1.3c-0.6,1-1.4,1.5-2.6,1.5c-1.5,0-2.4-0.9-2.4-2.6v-6.1h1.5v5.9
			c0,1.2,0.4,1.6,1.3,1.6c0.9,0,1.6-0.6,2.1-1.5v-6h1.5V405.2z"/>
		<path class="st4" d="M651.4,397.5l-0.6,0.9c-0.8-0.5-1.4-0.7-2.2-0.7c-1,0-1.6,0.4-1.6,1.1s0.4,1,1.8,1.4c1.8,0.4,2.8,1.2,2.8,2.6
			c0,1.8-1.6,2.6-3.3,2.6c-1.4,0-2.4-0.5-3.2-1.1l0.8-0.9c0.7,0.5,1.5,0.8,2.4,0.8c1.1,0,1.8-0.5,1.8-1.3s-0.4-1.2-2-1.6
			c-1.8-0.5-2.5-1.3-2.5-2.4c0-1.3,1.3-2.3,3-2.3C649.8,396.6,650.6,396.9,651.4,397.5z"/>
		<path class="st4" d="M658.1,404.8c-0.6,0.4-1.2,0.6-1.9,0.6c-1.4,0-2.3-0.8-2.3-2.4v-5.1h-1.5v-1.1h1.5v-1.9l1.5-0.2v2.1h2
			l-0.2,1.1h-1.8v5c0,0.8,0.3,1.2,1,1.2c0.4,0,0.7-0.1,1.1-0.3L658.1,404.8z"/>
		<path class="st4" d="M666.4,401c0,2.6-1.4,4.4-3.8,4.4c-2.4,0-3.8-1.7-3.8-4.4c0-2.6,1.4-4.4,3.8-4.4S666.4,398.3,666.4,401z
			 M660.4,401c0,2.2,0.8,3.2,2.2,3.2s2.2-1,2.2-3.2s-0.8-3.2-2.2-3.2C661.2,397.7,660.4,398.8,660.4,401z"/>
		<path class="st4" d="M679.6,399.1v6.1h-1.5v-5.8c0-1.3-0.5-1.6-1.2-1.6c-0.9,0-1.4,0.6-2,1.5v6h-1.5v-5.8c0-1.3-0.5-1.6-1.2-1.6
			c-0.9,0-1.4,0.6-2,1.5v6h-1.5V397h1.3l0.1,1.2c0.6-0.8,1.3-1.4,2.4-1.4c1,0,1.8,0.6,2.1,1.5c0.6-0.9,1.4-1.5,2.5-1.5
			C678.7,396.6,679.6,397.6,679.6,399.1z"/>
		<path class="st4" d="M684.4,393.7c0,0.6-0.4,1-1,1s-1-0.4-1-1s0.4-1,1-1S684.4,393.1,684.4,393.7z M684.1,405.2h-1.5v-8.4h1.5
			V405.2z"/>
		<path class="st4" d="M692.2,397.9l-4.4,6.1h4.4l-0.2,1.2h-5.9v-1.1l4.4-6.1h-4v-1.2h5.7V397.9z"/>
		<path class="st4" d="M700.6,401.5h-5.4c0.1,2,1.1,2.7,2.3,2.7c0.8,0,1.5-0.2,2.2-0.7l0.6,0.9c-0.8,0.7-1.8,1.1-2.9,1.1
			c-2.4,0-3.7-1.6-3.7-4.3c0-2.6,1.3-4.5,3.5-4.5c2.3,0,3.5,1.6,3.5,4.2C700.6,401,700.6,401.3,700.6,401.5z M699.1,400.3
			c0-1.6-0.7-2.6-2-2.6c-1.1,0-1.9,0.8-2,2.7L699.1,400.3L699.1,400.3z"/>
		<path class="st4" d="M709.6,393.4v11.8h-1.3l-0.1-1.2c-0.5,0.8-1.4,1.4-2.4,1.4c-2,0-3.2-1.7-3.2-4.4c0-2.6,1.2-4.5,3.3-4.5
			c1,0,1.7,0.4,2.3,1v-4.4L709.6,393.4z M708.1,403v-4.1c-0.5-0.7-1.1-1.1-2-1.1c-1.3,0-2,1.1-2,3.2c0,2.2,0.7,3.2,1.9,3.2
			C706.9,404.2,707.5,403.8,708.1,403z"/>
		<path class="st4" d="M631.6,416.5c0,2-1.3,3.4-4.6,6.7h4.8l-0.2,1.2h-6.3v-1.2c3.8-3.9,4.7-5,4.7-6.7c0-1.1-0.7-1.8-1.8-1.8
			c-0.9,0-1.5,0.4-2.2,1.2l-1-0.8c0.9-1.1,1.9-1.6,3.2-1.6C630.3,413.5,631.6,414.8,631.6,416.5z"/>
		<path class="st4" d="M640.3,421.8h-1.4v2.6h-1.4v-2.6h-4.6v-1.1l3.2-7.2l1.2,0.5l-2.9,6.5h3l0.1-2.9h1.3v2.9h1.4v1.3L640.3,421.8
			L640.3,421.8z"/>
		<path class="st4" d="M647.2,411.8l-3.7,14.3l-1.3-0.3l3.7-14.3L647.2,411.8z"/>
		<path class="st4" d="M655.6,414.8l-4,9.8l-1.3-0.4l3.9-9.2h-4.7v-1.2h6.2v1L655.6,414.8L655.6,414.8z"/>
		<path class="st4" d="M668.2,414.5l-0.8,0.9c-0.8-0.7-1.6-1-2.5-1c-1.1,0-2,0.5-2,1.6c0,0.9,0.4,1.4,2.4,2c1.8,0.5,3.3,1.2,3.3,3.3
			c0,1.9-1.5,3.3-3.9,3.3c-1.6,0-2.8-0.5-3.7-1.4l0.8-0.9c0.8,0.7,1.7,1.1,2.9,1.1c1.3,0,2.4-0.6,2.4-2c0-1.1-0.5-1.6-2.4-2.1
			c-2.1-0.7-3.3-1.5-3.3-3.2s1.4-2.9,3.5-2.9C666.3,413.2,667.2,413.6,668.2,414.5z"/>
		<path class="st4" d="M677.1,420.7h-5.4c0.1,2,1.1,2.7,2.3,2.7c0.8,0,1.5-0.2,2.2-0.7l0.6,0.9c-0.8,0.7-1.8,1.1-2.9,1.1
			c-2.4,0-3.7-1.6-3.7-4.3c0-2.6,1.3-4.5,3.5-4.5c2.3,0,3.5,1.6,3.5,4.2C677.1,420.2,677.1,420.5,677.1,420.7z M675.7,419.5
			c0-1.6-0.7-2.6-2-2.6c-1.1,0-1.9,0.8-2,2.7L675.7,419.5L675.7,419.5z"/>
		<path class="st4" d="M684.1,415.9l-0.3,1.4c-0.3-0.1-0.4-0.1-0.7-0.1c-1.1,0-1.7,0.8-2,2.4v4.8h-1.5V416h1.3l0.1,1.7
			c0.4-1.3,1.2-1.9,2.3-1.9C683.5,415.8,683.8,415.8,684.1,415.9z"/>
		<path class="st4" d="M689.2,424.4h-1.8l-2.9-8.4h1.6l2.2,7.1l2.2-7.1h1.6L689.2,424.4z"/>
		<path class="st4" d="M695.5,412.9c0,0.6-0.4,1-1,1s-1-0.4-1-1s0.4-1,1-1S695.5,412.3,695.5,412.9z M695.2,424.4h-1.5V416h1.5
			V424.4z"/>
		<path class="st4" d="M704,416.7l-0.7,0.9c-0.6-0.4-1.1-0.6-1.8-0.6c-1.3,0-2.2,1-2.2,3.2s0.8,3.1,2.2,3.1c0.7,0,1.2-0.2,1.8-0.6
			l0.7,1c-0.8,0.6-1.6,0.9-2.6,0.9c-2.3,0-3.7-1.6-3.7-4.3c0-2.7,1.4-4.5,3.7-4.5C702.4,415.8,703.2,416,704,416.7z"/>
		<path class="st4" d="M712.1,420.7h-5.4c0.1,2,1.1,2.7,2.3,2.7c0.8,0,1.5-0.2,2.2-0.7l0.6,0.9c-0.8,0.7-1.8,1.1-2.9,1.1
			c-2.4,0-3.7-1.6-3.7-4.3c0-2.6,1.3-4.5,3.5-4.5c2.3,0,3.5,1.6,3.5,4.2C712.1,420.2,712.1,420.5,712.1,420.7z M710.7,419.5
			c0-1.6-0.7-2.6-2-2.6c-1.1,0-1.9,0.8-2,2.7L710.7,419.5L710.7,419.5z"/>
	</g>
</g>
<g>
	<path class="st8" d="M439.7,262.8c-0.6,2.2-1.1,4.3-1.5,6.5c4.7,0.8,8.9,2.6,13.5,5.6l-0.1,0.2c-7.1-4.3-12.4-6.6-21-5.8
		c-6.4,0.4-12.5,2.9-17.3,6.7c-4.7,3.5-8.3,8.6-10.4,14.3c-1.9,5.3-2.4,11-1.4,16.5c1,5.6,3.4,11,7.2,15.4
		c4.3,5.1,10.1,8.8,16.5,10.5c5,1.3,11.5,1.4,16.7-0.2l0.1,0.2c-0.6,0.2-0.9,0.2-1.2,0.3c-5,1.2-10.4,1.3-15.3,0
		c-0.3,1.5-1.3,5.4-1.7,6.9h-0.2c0.3-1.4,0.4-1.9,0.7-3c0.3-1.3,0.7-2.6,1-4c-8.2-2.1-15.2-7.4-19.6-14.7
		c-3.6-5.7-5.2-12.6-4.7-19.2c0.3-5.1,1.9-10.3,4.5-14.7c3.6-6.2,9.3-11,16-13.7c5.2-2,11-2.6,16.5-1.8c0.4-2,1.1-4.7,1.5-6.5
		C439.7,262.8,439.5,262.7,439.7,262.8"/>
	<path class="st9" d="M423.8,340.5l-1-0.2l0.1-0.3c0.2-1,0.3-1.5,0.4-2.1l0.2-0.9c0.2-0.8,0.3-1.4,0.6-2.1c0.1-0.6,0.2-1.1,0.3-1.5
		c-7.9-2.1-15-7.4-19.4-14.6c-3.4-5.7-5.1-12.7-4.6-19.4c0.3-5.2,1.9-10.4,4.6-14.8c3.6-6.2,9.4-11.1,16.1-13.8
		c5.1-2,10.8-2.6,16.4-1.9c0.3-1.2,0.7-2.6,1-4.1c0.2-0.8,0.3-1.5,0.6-2.1v-0.4l0.9,0.2l-0.1,0.3c-0.2,1.2-0.6,2.3-0.9,3.4
		c-0.1,0.9-0.3,1.8-0.6,2.6c4.4,0.8,8.5,2.5,13.2,5.6l0.3,0.2l-0.6,0.9l-0.3-0.2c-7.3-4.4-12.5-6.5-20.7-5.8
		c-6.1,0.6-12.1,2.9-17,6.6c-4.7,3.6-8.3,8.7-10.4,14.5c-1.9,5.2-2.3,10.9-1.5,16.4c1,5.5,3.4,10.8,7.1,15.1c4.2,5,10,8.7,16.3,10.4
		c5.2,1.4,11.5,1.3,16.4-0.2l0.3-0.1l0.2,1l-0.3,0.1c-0.6,0.2-0.9,0.2-1.2,0.3c-5,1.2-10.3,1.3-15.1,0c-0.2,0.9-0.4,2-0.8,3.2
		c-0.3,1.3-0.7,2.6-0.8,3.3L423.8,340.5z"/>
	<path class="st9" d="M418.1,310.1h4.1c2.3,0,4.1-0.7,5.1-1.8c1.1-1.2,1.5-3.1,1.5-5.7s-0.6-4.6-1.5-5.8c-1-1.3-2.4-1.9-4.6-1.9H418
		v15.2L418.1,310.1L418.1,310.1z M413.1,314.4v-23.8h9.6c3.8,0,6.6,1,8.4,3c1.8,1.9,2.8,5,2.8,8.9c0,2.1-0.3,4.1-1.1,5.7
		c-0.7,1.7-1.7,3-3,4.1c-1,0.8-2.1,1.3-3.3,1.5c-1.3,0.3-3,0.6-5.2,0.6L413.1,314.4L413.1,314.4z"/>
	<polygon class="st9" points="443.3,314.4 434.9,290.6 440.5,290.6 445.8,308.5 451,290.6 456.6,290.6 448.2,314.4 	"/>
	<path class="st9" d="M480.8,313.8c-0.9,0.4-2.6,1.1-5,1.1c-5.3,0-8.7-3.6-8.7-8.9c0-5.4,3.8-9.4,9.4-9.4c1.9,0,3.5,0.4,4.4,1
		l-0.8,2.4c-0.8-0.4-1.9-0.9-3.8-0.9c-4,0-6.2,3-6.2,6.6c0,4.1,2.5,6.5,6.1,6.5c1.8,0,3-0.4,4-0.9L480.8,313.8z"/>
	<path class="st9" d="M484.5,288.7h3.2v10.9h0.1c0.6-0.9,1.3-1.7,2.2-2.2c1-0.6,2-0.9,3.3-0.9c2.3,0,6.1,1.4,6.1,7.5v10.5h-3.2
		v-10.1c0-2.8-1.1-5.2-4.1-5.2c-2.1,0-3.8,1.5-4.3,3.2c-0.2,0.4-0.2,1-0.2,1.5v10.6h-3.2v-25.8H484.5z"/>
	<path class="st9" d="M513.8,314.4l-0.3-2.2h-0.1c-1,1.4-2.9,2.5-5.3,2.5c-3.5,0-5.3-2.5-5.3-5c0-4.3,3.8-6.6,10.6-6.5v-0.3
		c0-1.4-0.4-4.1-4-4.1c-1.7,0-3.3,0.6-4.6,1.3L504,298c1.5-1,3.5-1.5,5.7-1.5c5.3,0,6.6,3.6,6.6,7.2v6.6c0,1.5,0.1,3,0.2,4.2h-2.7
		V314.4z M513.4,305.4c-3.4-0.1-7.4,0.6-7.4,4c0,2.1,1.4,3.1,3,3.1c2.3,0,3.8-1.5,4.3-2.9c0.1-0.3,0.1-0.8,0.1-1V305.4z"/>
	<path class="st9" d="M524.7,292c0,1.1-0.8,2-2,2s-1.9-0.9-1.9-2s0.9-2,2-2C524,289.9,524.7,290.8,524.7,292 M521.2,296.9h3.2v17.5
		h-3.2V296.9z"/>
	<path class="st9" d="M529.3,301.6c0-1.8-0.1-3.3-0.1-4.7h2.8l0.2,2.9h0.1c0.9-1.5,2.9-3.3,5.7-3.3c2.4,0,6.2,1.5,6.2,7.5v10.5H541
		v-10.1c0-2.9-1.1-5.2-4.1-5.2c-2.1,0-3.8,1.5-4.3,3.3c-0.1,0.4-0.2,1-0.2,1.5v10.6h-3.2L529.3,301.6L529.3,301.6L529.3,301.6z"/>
</g>
<g>
	<g>
		<path class="st4" d="M249.9,405.9h-1.5l-0.4-5c-0.1-1.7-0.3-3.6-0.3-4.5l-2.4,8.2H244l-2.5-8.2c0,1.3-0.1,3-0.2,4.6l-0.4,4.9h-1.4
			l0.9-11h2l2.3,8l2.2-8h2.1L249.9,405.9z"/>
		<path class="st4" d="M254.3,394.4c0,0.6-0.4,1-1,1s-1-0.4-1-1s0.4-1,1-1C253.9,393.4,254.3,393.8,254.3,394.4z M254,405.9h-1.5
			v-8.4h1.5V405.9z"/>
		<path class="st4" d="M263.5,399.8v6.1H262V400c0-1.3-0.5-1.6-1.3-1.6c-0.9,0-1.6,0.6-2.1,1.5v6h-1.5v-8.4h1.3l0.1,1.2
			c0.6-0.9,1.5-1.4,2.6-1.4C262.6,397.2,263.5,398.2,263.5,399.8z"/>
		<path class="st4" d="M268.3,394.4c0,0.6-0.4,1-1,1s-1-0.4-1-1s0.4-1,1-1S268.3,393.8,268.3,394.4z M268,405.9h-1.5v-8.4h1.5V405.9
			z"/>
		<path class="st4" d="M281.9,399.8v6.1h-1.5V400c0-1.3-0.5-1.6-1.2-1.6c-0.9,0-1.4,0.6-2,1.5v6h-1.5V400c0-1.3-0.5-1.6-1.2-1.6
			c-0.9,0-1.4,0.6-2,1.5v6H271v-8.4h1.3l0.1,1.2c0.6-0.8,1.3-1.4,2.4-1.4c1,0,1.8,0.6,2.1,1.5c0.6-0.9,1.4-1.5,2.5-1.5
			C281,397.2,281.9,398.2,281.9,399.8z"/>
		<path class="st4" d="M286.7,394.4c0,0.6-0.4,1-1,1s-1-0.4-1-1s0.4-1,1-1C286.3,393.4,286.7,393.8,286.7,394.4z M286.4,405.9h-1.5
			v-8.4h1.5V405.9z"/>
		<path class="st4" d="M294.5,398.5l-4.4,6.1h4.4l-0.2,1.2h-5.9v-1.1l4.4-6.1h-4v-1.2h5.7V398.5z"/>
		<path class="st4" d="M302.8,402.1h-5.4c0.1,2,1.1,2.7,2.3,2.7c0.8,0,1.5-0.2,2.2-0.7l0.6,0.9c-0.8,0.7-1.8,1.1-2.9,1.1
			c-2.4,0-3.7-1.6-3.7-4.3c0-2.6,1.3-4.5,3.5-4.5c2.3,0,3.5,1.6,3.5,4.2C302.9,401.7,302.8,402,302.8,402.1z M301.4,401
			c0-1.6-0.7-2.6-2-2.6c-1.1,0-1.9,0.8-2,2.7L301.4,401L301.4,401z"/>
		<path class="st4" d="M311.8,394v11.8h-1.3l-0.1-1.2c-0.5,0.8-1.4,1.4-2.4,1.4c-2,0-3.2-1.7-3.2-4.4c0-2.6,1.2-4.5,3.3-4.5
			c1,0,1.7,0.4,2.3,1v-4.4L311.8,394z M310.4,403.6v-4.1c-0.5-0.7-1.1-1.1-2-1.1c-1.3,0-2,1.1-2,3.2c0,2.2,0.7,3.2,1.9,3.2
			C309.2,404.9,309.8,404.4,310.4,403.6z"/>
		<path class="st4" d="M245,425.1h-1.5l-0.4-5c-0.1-1.7-0.3-3.6-0.3-4.5l-2.4,8.2H239l-2.5-8.2c0,1.3-0.1,3-0.2,4.6l-0.4,4.9h-1.4
			l0.9-11h2l2.3,8l2.2-8h2.1L245,425.1z"/>
		<path class="st4" d="M254,424.2l-0.3,1c-0.8-0.1-1.4-0.4-1.6-1.3c-0.6,0.9-1.5,1.3-2.5,1.3c-1.7,0-2.7-1-2.7-2.5
			c0-1.8,1.4-2.8,3.7-2.8h1.3v-0.6c0-1.2-0.6-1.7-1.8-1.7c-0.6,0-1.4,0.2-2.3,0.4l-0.4-1.1c1-0.4,2-0.6,2.9-0.6c2,0,3,1,3,2.8v3.9
			C253.2,423.8,253.5,424.1,254,424.2z M251.8,422.8v-1.9h-1.1c-1.6,0-2.3,0.6-2.3,1.7c0,1,0.5,1.5,1.5,1.5
			C250.7,424.1,251.3,423.7,251.8,422.8z"/>
		<path class="st4" d="M260.8,416.5l-0.3,1.4c-0.3-0.1-0.4-0.1-0.7-0.1c-1.1,0-1.7,0.8-2,2.4v4.8h-1.5v-8.4h1.3l0.1,1.7
			c0.4-1.3,1.2-1.9,2.3-1.9C260.3,416.4,260.6,416.5,260.8,416.5z"/>
		<path class="st4" d="M264.1,425.1h-1.5v-11.8l1.5-0.2V425.1z M265.8,420.4l3.5,4.7h-1.8l-3.3-4.6l3.1-3.8h1.6L265.8,420.4z"/>
		<path class="st4" d="M277.1,421.3h-5.4c0.1,2,1.1,2.7,2.3,2.7c0.8,0,1.5-0.2,2.2-0.7l0.6,0.9c-0.8,0.7-1.8,1.1-2.9,1.1
			c-2.4,0-3.7-1.6-3.7-4.3c0-2.6,1.3-4.5,3.5-4.5c2.3,0,3.5,1.6,3.5,4.2C277.1,420.9,277.1,421.2,277.1,421.3z M275.6,420.2
			c0-1.6-0.7-2.6-2-2.6c-1.1,0-1.9,0.8-2,2.7L275.6,420.2L275.6,420.2z"/>
		<path class="st4" d="M283.8,424.7c-0.6,0.4-1.2,0.6-1.9,0.6c-1.4,0-2.3-0.8-2.3-2.4v-5.1h-1.5v-1.1h1.5v-1.9l1.5-0.2v2.1h2
			l-0.2,1.1h-1.8v5c0,0.8,0.3,1.2,1,1.2c0.4,0,0.7-0.1,1.1-0.3L283.8,424.7z"/>
		<path class="st4" d="M293,420.4h-1.7v4.7h-1.5v-11h2.9c2.8,0,4.2,1.1,4.2,3.1c0,1.6-0.8,2.5-2.4,3l3,4.9h-1.8L293,420.4z
			 M292.8,419.2c1.5,0,2.4-0.6,2.4-2.1c0-1.4-0.8-1.9-2.6-1.9h-1.4v4H292.8z"/>
		<path class="st4" d="M301.2,413.6c0,0.6-0.4,1-1,1s-1-0.4-1-1s0.4-1,1-1C300.8,412.6,301.2,413,301.2,413.6z M300.9,425.1h-1.5
			v-8.4h1.5V425.1z"/>
		<path class="st4" d="M309.2,417.4l-0.6,0.9c-0.8-0.5-1.4-0.7-2.2-0.7c-1,0-1.6,0.4-1.6,1.1s0.4,1,1.8,1.4c1.8,0.4,2.8,1.2,2.8,2.6
			c0,1.8-1.6,2.6-3.3,2.6c-1.4,0-2.4-0.5-3.2-1.1l0.8-0.9c0.7,0.5,1.5,0.8,2.4,0.8c1.1,0,1.8-0.5,1.8-1.3s-0.4-1.2-2-1.6
			c-1.8-0.5-2.5-1.3-2.5-2.4c0-1.3,1.3-2.3,3-2.3C307.5,416.4,308.4,416.8,309.2,417.4z"/>
		<path class="st4" d="M313.1,425.1h-1.5v-11.8l1.5-0.2V425.1z M314.8,420.4l3.5,4.7h-1.8l-3.3-4.6l3.1-3.8h1.6L314.8,420.4z"/>
	</g>
</g>
</svg>
