<svg width="65" height="65" viewBox="0 0 65 65" fill="none" xmlns="http://www.w3.org/2000/svg">
<path d="M53.8126 20.9315L47.3599 14.0928L38.4685 22.9841C37.1962 22.0284 35.616 21.4614 33.9058 21.4614C32.0236 21.4614 30.3002 22.1495 28.97 23.2853L23.9194 18.674C23.0346 20.2654 22.4057 22.0172 22.0879 23.8743L26.3996 27.8111C26.3305 28.2223 26.2928 28.6439 26.2928 29.0743C26.2928 33.2721 29.7081 36.6873 33.9058 36.6873C35.9394 36.6873 37.8511 35.8954 39.2889 34.4576C40.7269 33.0196 41.5187 31.1079 41.5186 29.0744C41.5186 28.47 41.4456 27.8824 41.3119 27.3184L47.2539 21.3763L54.6439 29.2083C54.7728 28.3788 54.8402 27.5289 54.8402 26.6637C54.8402 24.6489 54.4767 22.7177 53.8126 20.9315ZM35.7003 30.8689C35.2211 31.3481 34.5838 31.6121 33.906 31.6121C32.5067 31.6121 31.3683 30.4735 31.3683 29.0744C31.3683 27.6751 32.5067 26.5367 33.906 26.5367C35.3052 26.5367 36.4436 27.6751 36.4436 29.0744C36.4435 29.7523 36.1796 30.3895 35.7003 30.8689Z" fill="#2CD6A8"/>
<path d="M38.3483 0.0180273C29.1918 0.0180273 21.0999 4.66108 16.3016 11.7159L3.46992 0L0.0477734 3.74804L13.7993 16.3038C12.4497 19.49 11.703 22.9912 11.703 26.6635C11.703 33.0977 13.9956 39.0066 17.8066 43.6163L0.0117188 61.4112L3.60056 65L21.3956 47.205C26.0054 51.016 31.9141 53.3086 38.3484 53.3086C53.0407 53.3086 64.9937 41.3555 64.9937 26.6633C64.9937 11.9712 53.0407 0.0180273 38.3483 0.0180273ZM38.3483 48.2334C26.4545 48.2334 16.7783 38.5571 16.7783 26.6635C16.7783 24.3349 17.1506 22.092 17.8364 19.9894C18.1142 19.1378 18.4437 18.3092 18.821 17.5075C18.8217 17.5058 18.8225 17.5042 18.8232 17.5024C19.1048 16.9046 19.4132 16.3216 19.7467 15.7551C19.751 15.7479 19.7553 15.7405 19.7597 15.7333C19.8693 15.5476 19.9814 15.3635 20.0965 15.1812C23.92 9.12488 30.6718 5.09323 38.3483 5.09323C50.242 5.09323 59.9182 14.7696 59.9182 26.6632C59.9182 38.5568 50.2421 48.2334 38.3483 48.2334Z" fill="#2CD6A8"/>
</svg>
