<svg width="70" height="70" viewBox="0 0 70 70" fill="none" xmlns="http://www.w3.org/2000/svg">
<path d="M40.0902 11.8618C36.3203 8.09169 31.3077 6.01562 25.9761 6.01562C20.6448 6.01562 15.6316 8.0921 11.8618 11.8618C8.7645 14.9592 6.80915 18.8837 6.20704 23.2111C5.62462 27.396 6.40228 31.7392 8.39645 35.4401C8.75479 36.1048 9.58426 36.3533 10.2486 35.9953C10.9133 35.6371 11.1618 34.8079 10.8038 34.1432C7.22559 27.5024 8.45579 19.1351 13.7957 13.7954C17.0493 10.5417 21.3751 8.74999 25.9765 8.74999C30.5776 8.74999 34.9037 10.5418 38.1571 13.7953C44.8736 20.5117 44.8736 31.4403 38.1571 38.1568C32.8173 43.4969 24.4496 44.7268 17.8091 41.1487C17.1445 40.7907 16.3153 41.039 15.957 41.7039C15.5986 42.3685 15.847 43.1977 16.5118 43.5559C19.4113 45.1183 22.7047 45.9339 26.0077 45.9339C26.9208 45.9339 27.8348 45.8716 28.7411 45.7454C33.0683 45.1433 36.993 43.1878 40.0905 40.0906C47.8727 32.3078 47.8727 19.6445 40.0902 11.8618Z" fill="#2CD6A8"/>
<path d="M13.7961 38.1552C13.2621 37.6214 12.3967 37.6214 11.8626 38.1552L11.8506 38.1672C11.3167 38.7011 11.3167 39.5668 11.8506 40.1008C12.1176 40.3677 12.4675 40.5013 12.8173 40.5013C13.1672 40.5013 13.5171 40.3677 13.7841 40.1008L13.7961 40.0888C14.33 39.5549 14.33 38.6892 13.7961 38.1552Z" fill="#2CD6A8"/>
<path d="M44.4402 7.70453L44.3448 7.60842C43.8107 7.07454 42.9453 7.07454 42.4112 7.60842C41.8773 8.14231 41.8773 9.008 42.4112 9.54203L42.4939 9.62488C42.7613 9.89599 43.114 10.0319 43.467 10.0319C43.8139 10.0319 44.1609 9.90077 44.4272 9.638C44.9648 9.10767 44.9705 8.24211 44.4402 7.70453Z" fill="#2CD6A8"/>
<path d="M68.09 58.8687L53.3209 44.0996C53.7564 43.1614 54.6919 42.5592 55.7321 42.5592C57.1981 42.5592 58.3906 43.7518 58.3906 45.2177V46.4844C58.3906 47.2393 59.0028 47.8515 59.7578 47.8515C60.5127 47.8515 61.1249 47.2393 61.1249 46.4844V45.2177C61.1249 42.244 58.7057 39.8249 55.7322 39.8249C53.9531 39.8249 52.324 40.693 51.3274 42.106L48.3643 39.1429C50.0982 36.1934 51.2453 32.9141 51.7124 29.5012C52.5502 30.0376 53.5445 30.35 54.611 30.35C57.5846 30.35 60.0037 27.9307 60.0037 24.9573V22.2969C60.0037 19.3232 57.5845 16.904 54.611 16.904C53.1426 16.904 51.8101 17.4946 50.8366 18.4499C50.1184 16.0691 49.0615 13.7911 47.6836 11.7006C47.2681 11.0701 46.4198 10.8958 45.7897 11.3114C45.1593 11.7269 44.9849 12.5748 45.4004 13.2054C51.4349 22.3612 50.1774 34.6439 42.4104 42.4108C38.0207 46.8007 32.184 49.2184 25.9762 49.2184C19.7682 49.2184 13.9317 46.8007 9.54184 42.4108C5.15195 38.0208 2.73436 32.1843 2.73436 25.9765C2.73436 19.7687 5.15209 13.932 9.54197 9.54213C17.281 1.80251 29.5352 0.526658 38.6803 6.50794C39.3122 6.92124 40.1596 6.74406 40.5729 6.11214C40.9861 5.48023 40.809 4.63285 40.177 4.21955C35.26 1.00367 29.3139 -0.451151 23.4336 0.12416C18.2332 0.632752 13.2928 2.72071 9.29957 6.06183V4.64926C9.29957 2.08607 7.21435 0.000976562 4.65129 0.000976562C2.08823 0.000976562 0.00287108 2.0862 0.00287108 4.64926V9.57098C0.00287108 11.5393 1.2332 13.2246 2.96487 13.9013C1.02798 17.5813 0 21.6995 0 25.9765C0 32.9148 2.70224 39.4379 7.60837 44.3443C7.84284 44.5788 8.0821 44.8065 8.32368 45.0308V48.0881C8.32368 49.5541 7.13109 50.7465 5.66519 50.7465C4.1993 50.7465 3.00671 49.554 3.00671 48.0881V45.4275C3.00671 44.6726 2.39448 44.0603 1.63952 44.0603C0.884567 44.0603 0.272343 44.6726 0.272343 45.4275V48.0879C0.272343 51.0615 2.69157 53.4806 5.66506 53.4806C8.63868 53.4806 11.0578 51.0614 11.0578 48.0879V47.2494C15.3964 50.3059 20.5597 51.9525 25.9759 51.9525C30.6845 51.9525 35.2014 50.7066 39.1521 48.3731L58.8685 68.0895C60.1001 69.3211 61.7374 69.9993 63.4791 69.9993C65.2209 69.9993 66.8582 69.3211 68.0896 68.0895C70.6322 65.5475 70.6322 61.411 68.09 58.8687ZM54.6107 19.6382C56.0766 19.6382 57.2692 20.8308 57.2692 22.2969V24.9573C57.2692 26.4231 56.0765 27.6157 54.6107 27.6157C53.1447 27.6157 51.9521 26.4231 51.9521 24.9573V22.2969C51.9521 20.8308 53.1448 19.6382 54.6107 19.6382ZM2.73724 9.57112V4.64926C2.73724 3.5938 3.59583 2.7352 4.65129 2.7352C5.70675 2.7352 6.56535 3.5938 6.56535 4.64926V8.30647C6.56535 8.42952 6.58312 8.54805 6.61361 8.66139C5.81394 9.55334 5.08209 10.4915 4.42065 11.4699C3.47374 11.3552 2.73724 10.5482 2.73724 9.57112ZM41.4744 46.8281C42.4807 46.0768 43.44 45.2481 44.3441 44.3442C45.2439 43.4446 46.0713 42.4825 46.8237 41.4691L50.8268 45.4724L45.4728 50.8262L41.4744 46.8281ZM66.1566 66.1562C64.6804 67.6323 62.2786 67.6323 60.8026 66.1562L47.4062 52.7599L52.7602 47.406L66.1566 60.8023C67.6326 62.2783 67.6326 64.6803 66.1566 66.1562Z" fill="#2CD6A8"/>
<path d="M6.39623 67.2645H5.31014V57.9199C5.31014 57.3668 4.97696 56.8684 4.46618 56.6567C3.95526 56.4454 3.3671 56.5621 2.97622 56.9531L0.402367 59.527C-0.131518 60.0609 -0.131518 60.9266 0.402367 61.4606C0.936388 61.9943 1.80181 61.9943 2.33597 61.4606L2.57591 61.2206V67.2645H1.48982C0.734865 67.2645 0.122641 67.8768 0.122641 68.6317C0.122641 69.3867 0.734865 69.9989 1.48982 69.9989H6.39637C7.15132 69.9989 7.76355 69.3867 7.76355 68.6317C7.76355 67.8768 7.15132 67.2645 6.39623 67.2645Z" fill="#2CD6A8"/>
<path d="M18.5408 67.2645H17.4547V57.9199C17.4547 57.3668 17.1215 56.8684 16.6107 56.6567C16.0999 56.4454 15.5118 56.5621 15.1208 56.9531L12.5469 59.527C12.013 60.0609 12.013 60.9266 12.5469 61.4606C13.0809 61.9943 13.9463 61.9943 14.4805 61.4606L14.7204 61.2206V67.2645H13.6344C12.8794 67.2645 12.2672 67.8768 12.2672 68.6317C12.2672 69.3867 12.8794 69.9989 13.6344 69.9989H18.5409C19.2959 69.9989 19.9081 69.3867 19.9081 68.6317C19.9081 67.8768 19.2957 67.2645 18.5408 67.2645Z" fill="#2CD6A8"/>
<path d="M42.8308 67.2645H41.7447V57.9199C41.7447 57.3668 41.4115 56.8684 40.9007 56.6567C40.3898 56.4454 39.8018 56.5621 39.4108 56.9531L36.8369 59.527C36.3031 60.0609 36.3031 60.9266 36.8369 61.4606C37.371 61.9943 38.2364 61.9943 38.7705 61.4606L39.0105 61.2206V67.2645H37.9244C37.1694 67.2645 36.5572 67.8768 36.5572 68.6317C36.5572 69.3867 37.1694 69.9989 37.9244 69.9989H42.8309C43.5859 69.9989 44.1981 69.3867 44.1981 68.6317C44.1981 67.8768 43.5858 67.2645 42.8308 67.2645Z" fill="#2CD6A8"/>
<path d="M28.172 56.5537C25.1984 56.5537 22.7793 58.9729 22.7793 61.9464V64.6069C22.7793 67.5806 25.1985 69.9997 28.172 69.9997C31.1456 69.9997 33.5647 67.5804 33.5647 64.6069V61.9466C33.565 58.9729 31.1456 56.5537 28.172 56.5537ZM30.8306 64.6071C30.8306 66.0731 29.638 67.2656 28.1721 67.2656C26.7063 67.2656 25.5137 66.073 25.5137 64.6071V61.9466C25.5137 60.4805 26.7063 59.2881 28.1721 59.2881C29.638 59.2881 30.8306 60.4807 30.8306 61.9466V64.6071Z" fill="#2CD6A8"/>
<path d="M68.6324 50.7458H67.5463V41.4013C67.5463 40.8482 67.2132 40.3498 66.7024 40.1381C66.1915 39.9269 65.6034 40.0435 65.2124 40.4345L62.6387 43.0084C62.1048 43.5423 62.1048 44.408 62.6387 44.942C63.1727 45.4757 64.0381 45.4757 64.5723 44.942L64.8122 44.702V50.7458H63.7262C62.9712 50.7458 62.359 51.358 62.359 52.113C62.359 52.868 62.9712 53.4802 63.7262 53.4802H68.6327C69.3877 53.4802 69.9999 52.868 69.9999 52.113C69.9999 51.358 69.3874 50.7458 68.6324 50.7458Z" fill="#2CD6A8"/>
<path d="M54.9753 10.7128H53.8892V1.36826C53.8892 0.815376 53.5561 0.316765 53.0453 0.105125C52.5342 -0.106651 51.9462 0.010653 51.5553 0.401394L48.9815 2.97525C48.4476 3.50914 48.4476 4.37483 48.9815 4.90886C49.5154 5.44274 50.3808 5.44274 50.9148 4.90886L51.1547 4.66892V10.7128H50.0687C49.3137 10.7128 48.7015 11.3249 48.7015 12.08C48.7015 12.8351 49.3137 13.4472 50.0687 13.4472H54.9752C55.7302 13.4472 56.3424 12.8351 56.3424 12.08C56.3424 11.3249 55.7303 10.7128 54.9753 10.7128Z" fill="#2CD6A8"/>
<path d="M64.6066 0.000976562C61.633 0.000976562 59.2139 2.42021 59.2139 5.39383V8.05422C59.2139 11.0278 61.6331 13.4469 64.6066 13.4469C67.5802 13.4469 69.9993 11.0277 69.9993 8.05422V5.39369C69.9994 2.42021 67.5801 0.000976562 64.6066 0.000976562ZM67.2651 8.05422C67.2651 9.52012 66.0725 10.7127 64.6066 10.7127C63.1407 10.7127 61.9481 9.52012 61.9481 8.05422V5.39369C61.9481 3.92766 63.1407 2.73507 64.6066 2.73507C66.0725 2.73507 67.2651 3.92766 67.2651 5.39369V8.05422Z" fill="#2CD6A8"/>
<path d="M68.6326 27.6153H67.5465V18.2706C67.5465 17.7177 67.2133 17.2191 66.7025 17.0074C66.1916 16.7958 65.6036 16.9128 65.2126 17.3037L62.6387 19.8776C62.1048 20.4114 62.1048 21.2771 62.6387 21.8112C63.1727 22.3451 64.0381 22.3451 64.5723 21.8112L64.8122 21.5712V27.6151H63.7262C62.9712 27.6151 62.359 28.2272 62.359 28.9823C62.359 29.7374 62.9712 30.3495 63.7262 30.3495H68.6327C69.3877 30.3495 69.9999 29.7374 69.9999 28.9823C69.9999 28.2272 69.3875 27.6153 68.6326 27.6153Z" fill="#2CD6A8"/>
<path d="M37.1856 31.0359H35.6089V19.5498C35.6088 18.9968 35.2756 18.4983 34.7648 18.2867C34.2539 18.0751 33.6658 18.1922 33.2749 18.5831L30.1865 21.6716C29.6527 22.2055 29.6527 23.0712 30.1865 23.605C30.7206 24.1389 31.586 24.1389 32.1202 23.605L32.8746 22.8506V31.0359H31.2981C30.5431 31.0359 29.9309 31.648 29.9309 32.4031C29.9309 33.1582 30.5431 33.7703 31.2981 33.7703H37.1854C37.9404 33.7703 38.5526 33.1582 38.5526 32.4031C38.5526 31.648 37.9405 31.0359 37.1856 31.0359Z" fill="#2CD6A8"/>
<path d="M19.597 18.1826C16.1796 18.1826 13.3994 20.9629 13.3994 24.3802V27.5726C13.3994 30.9901 16.1797 33.7701 19.597 33.7701C23.0143 33.7701 25.7946 30.9898 25.7946 27.5726V24.3802C25.7946 20.9628 23.0143 18.1826 19.597 18.1826ZM23.0602 27.5726C23.0602 29.4822 21.5065 31.0359 19.5969 31.0359C17.6872 31.0359 16.1335 29.4822 16.1335 27.5726V24.3802C16.1335 22.4705 17.6872 20.9168 19.5969 20.9168C21.5065 20.9168 23.0602 22.4705 23.0602 24.3802V27.5726Z" fill="#2CD6A8"/>
</svg>
