<svg width="70" height="70" viewBox="0 0 70 70" fill="none" xmlns="http://www.w3.org/2000/svg">
<g clip-path="url(#clip0)">
<path d="M16.1328 41.0029C10.2527 41.0029 5.46875 45.7867 5.46875 51.667C5.46875 57.5473 10.2527 62.331 16.1328 62.331C22.0129 62.331 26.7969 57.5473 26.7969 51.667C26.7969 45.7869 22.0129 41.0029 16.1328 41.0029ZM16.1328 43.7373C16.6253 43.7373 17.1067 43.7847 17.5746 43.8712L8.33684 53.1088C8.25057 52.641 8.20312 52.1596 8.20312 51.667C8.20312 47.2946 11.7604 43.7373 16.1328 43.7373ZM16.1328 59.5967C15.681 59.5967 15.2384 59.5566 14.8069 59.4836L19.3554 54.9352C19.8893 54.4014 19.8893 53.5357 19.3554 53.0016C18.8215 52.468 17.9558 52.4679 17.4219 53.0016L11.9952 58.4284C10.956 57.7901 10.0756 56.9185 9.42471 55.8879L20.3537 44.9589C22.5798 46.3648 24.0625 48.8453 24.0625 51.667C24.0625 56.0395 20.5052 59.5967 16.1328 59.5967Z" fill="#2CD6A8"/>
<path d="M68.8881 45.7811C68.8855 45.7732 68.8838 45.7651 68.8811 45.757L63.5158 30.2526C63.2689 29.539 62.4906 29.1607 61.7768 29.4076C61.0632 29.6546 60.6849 30.4332 60.9319 31.1468L63.5776 38.7928C60.8742 36.7486 57.5099 35.5344 53.8671 35.5344C48.2912 35.5344 43.3675 38.378 40.4686 42.6908V32.782C40.4686 29.6859 42.2881 26.8539 45.1038 25.5669C45.5905 25.3445 45.9026 24.8586 45.9026 24.3235V19.5383C45.9026 18.7834 45.2905 18.1711 44.5354 18.1711H40.4688V11.6678C40.4688 9.57181 41.4185 7.62917 43.0746 6.33786C44.6893 5.07882 46.7421 4.64009 48.7052 5.13351C48.787 5.15415 48.8685 5.17589 48.9486 5.19831C51.0323 5.78388 52.7125 7.39415 53.4432 9.50577L56.9079 19.5181C57.155 20.2318 57.9336 20.6102 58.647 20.363C59.3605 20.1161 59.7388 19.3375 59.4919 18.6238L56.0272 8.61163C55.0037 5.65372 52.6341 3.39376 49.687 2.56552C49.5832 2.53653 49.4791 2.50878 49.3734 2.48212C46.586 1.78157 43.6773 2.40077 41.3934 4.18167C39.0679 5.99456 37.7344 8.72333 37.7344 11.6678V18.1711H32.2656V11.6678C32.2656 8.72333 30.9319 5.99456 28.6066 4.18154C26.3229 2.40091 23.4145 1.7813 20.6253 2.48239C20.5209 2.50864 20.4168 2.5364 20.3118 2.56579C17.366 3.39362 14.9963 5.65359 13.9728 8.61136L1.11891 45.7572C1.11617 45.7651 1.11453 45.7732 1.11193 45.7812C0.394434 47.6056 0 49.5912 0 51.6672C0 60.5628 7.23721 67.8 16.1328 67.8C25.0284 67.8 32.2656 60.5628 32.2656 51.6672V34.1846H37.7344V51.6672C37.7344 60.5628 44.9716 67.8 53.8672 67.8C62.7628 67.8 70 60.5628 70 51.6672C70 49.5912 69.6056 47.6056 68.8881 45.7811ZM16.1328 65.0657C8.74481 65.0657 2.73438 59.0551 2.73438 51.6672C2.73438 44.2794 8.74481 38.2688 16.1328 38.2688C23.5208 38.2688 29.5312 44.2794 29.5312 51.6672C29.5312 59.0552 23.5208 65.0657 16.1328 65.0657ZM16.1328 35.5344C12.4899 35.5344 9.1257 36.7486 6.42223 38.7928L16.5568 9.5055C17.2874 7.39402 18.9677 5.78374 21.05 5.19859C21.1314 5.17575 21.2129 5.15415 21.2933 5.13378C23.2576 4.63954 25.3105 5.07882 26.9253 6.33773C28.5815 7.62917 29.5312 9.57181 29.5312 11.6678V18.1711H25.4644C24.7093 18.1711 24.0972 18.7834 24.0972 19.5383V24.3235C24.0972 24.8586 24.4094 25.3445 24.8961 25.5669C27.7118 26.8539 29.5312 29.686 29.5312 32.7821V42.691C26.6324 38.378 21.7086 35.5344 16.1328 35.5344ZM32.1817 31.4502C31.7598 28.1155 29.773 25.1445 26.8316 23.4868V20.9055H43.1684V23.4868C40.2269 25.1445 38.2402 28.1155 37.8183 31.4502H32.1817ZM53.8672 65.0657C46.4792 65.0657 40.4688 59.0551 40.4688 51.6672C40.4688 44.2794 46.4792 38.2688 53.8672 38.2688C61.2552 38.2688 67.2656 44.2794 67.2656 51.6672C67.2656 59.0552 61.2552 65.0657 53.8672 65.0657Z" fill="#2CD6A8"/>
<path d="M53.8672 41.0029C47.9871 41.0029 43.2031 45.7867 43.2031 51.667C43.2031 57.5473 47.9871 62.331 53.8672 62.331C59.7473 62.331 64.5312 57.5473 64.5312 51.667C64.5312 45.7869 59.7473 41.0029 53.8672 41.0029ZM53.8672 43.7373C54.3598 43.7373 54.8412 43.7847 55.309 43.8712L46.0712 53.1088C45.9848 52.641 45.9375 52.1596 45.9375 51.667C45.9375 47.2946 49.4948 43.7373 53.8672 43.7373ZM53.8672 59.5967C53.4153 59.5967 52.9728 59.5566 52.5413 59.4836L57.0898 54.9352C57.6237 54.4014 57.6237 53.5357 57.0898 53.0016C56.5559 52.468 55.6902 52.4679 55.1563 53.0016L49.7295 58.4284C48.6903 57.7901 47.81 56.9185 47.1591 55.8879L58.0881 44.9589C60.3142 46.3648 61.7969 48.8453 61.7969 51.667C61.7969 56.0395 58.2396 59.5967 53.8672 59.5967Z" fill="#2CD6A8"/>
<path d="M58.8447 24.8857C58.8447 25.2453 58.991 25.5981 59.2453 25.8523C59.4996 26.1066 59.8523 26.2529 60.2119 26.2529C60.5715 26.2529 60.9242 26.1068 61.1785 25.8523C61.4328 25.5981 61.5791 25.2453 61.5791 24.8857C61.5791 24.5262 61.4328 24.1734 61.1785 23.9193C60.9242 23.665 60.5715 23.5186 60.2119 23.5186C59.8523 23.5186 59.4996 23.6648 59.2453 23.9193C58.991 24.1734 58.8447 24.5262 58.8447 24.8857Z" fill="#2CD6A8"/>
</g>
<defs>
<clipPath id="clip0">
<rect width="70" height="70" fill="white"/>
</clipPath>
</defs>
</svg>
