<svg width="70" height="44" viewBox="0 0 70 44" fill="none" xmlns="http://www.w3.org/2000/svg">
<path d="M59.7488 10.6497C53.1382 4.03911 44.3487 0.398438 35 0.398438C33.298 0.398438 31.6098 0.522873 29.9473 0.764801C29.896 0.769608 29.8458 0.777084 29.7961 0.787231C23.0003 1.80461 16.6332 4.80067 11.4817 9.47742C10.9225 9.98477 10.8809 10.8494 11.3882 11.4086C11.8961 11.9677 12.7608 12.0094 13.3194 11.502C13.6217 11.2275 13.9293 10.9616 14.2401 10.7004L15.9277 13.6238C12.8879 15.6068 10.2859 18.2082 8.30353 21.248L6.52138 20.2195C6.77238 19.7495 7.03407 19.2854 7.30858 18.8277C7.69737 18.1799 7.48695 17.3403 6.83968 16.9521C6.19186 16.5633 5.35233 16.7737 4.96407 17.421C4.42841 18.3139 3.93547 19.2293 3.48366 20.1634C3.47672 20.1783 3.4687 20.1933 3.4623 20.2082C1.19041 24.9234 0 30.1155 0 35.3984C0 36.1536 0.61203 36.7656 1.36719 36.7656H5.46875C6.22391 36.7656 6.83594 36.1536 6.83594 35.3984C6.83594 22.5827 17.2623 12.1562 30.0781 12.1562C35.0214 12.1562 39.8402 13.7408 43.8055 16.6439L32.7927 27.6567C31.9249 27.3513 31.0159 27.1953 30.0781 27.1953C25.5547 27.1953 21.875 30.8755 21.875 35.3984C21.875 39.9219 25.5547 43.6016 30.0781 43.6016C34.6011 43.6016 38.2812 39.9219 38.2812 35.3984C38.2812 34.4606 38.1253 33.5517 37.8198 32.6838L48.8326 21.671C51.7358 25.6369 53.3203 30.4557 53.3203 35.3984C53.3203 36.1536 53.9323 36.7656 54.6875 36.7656C55.4427 36.7656 56.0547 36.1536 56.0547 35.3984C56.0547 31.2809 55.0694 27.2402 53.2242 23.6134L62.3705 18.3332C65.2437 22.9245 66.9959 28.2853 67.2373 34.0312H64.3897C63.6346 34.0312 63.0225 34.6433 63.0225 35.3984C63.0225 36.1536 63.6346 36.7656 64.3897 36.7656H68.6328C69.388 36.7656 70 36.1536 70 35.3984C70 26.0498 66.3593 17.2602 59.7488 10.6497ZM4.13734 34.0312H2.76321C2.92877 30.1118 3.80356 26.2698 5.33524 22.6921L6.93367 23.615C5.32028 26.7713 4.33174 30.2977 4.13734 34.0312ZM46.0101 5.06931L41.8632 12.2518C38.6391 10.6118 35.0876 9.65259 31.4453 9.45979V3.32935C32.6197 3.2001 33.8058 3.13281 35 3.13281C38.865 3.13281 42.5724 3.81747 46.0101 5.06931ZM16.4244 9.01546C20.1158 6.41246 24.298 4.62444 28.7109 3.75072V9.45819C24.9773 9.65312 21.4504 10.6406 18.2947 12.254L16.4244 9.01546ZM49.576 17.0605L30.6581 35.9784C30.3441 36.293 29.8127 36.293 29.4981 35.9784C29.1836 35.6644 29.1836 35.133 29.4981 34.8185L48.4161 15.9005C48.5693 15.7473 48.7755 15.6629 48.996 15.6629C49.2166 15.6629 49.4228 15.7473 49.576 15.9005C49.7293 16.0538 49.8137 16.2599 49.8137 16.4805C49.8137 16.7011 49.7293 16.9072 49.576 17.0605ZM35.5469 35.3984C35.5469 38.4137 33.0934 40.8672 30.0781 40.8672C27.0628 40.8672 24.6094 38.4137 24.6094 35.3984C24.6094 32.3831 27.0628 29.9297 30.0781 29.9297C30.2207 29.9297 30.3617 29.9372 30.5016 29.9478L27.5648 32.8852C26.179 34.271 26.179 36.5258 27.5648 37.9122C28.2575 38.6049 29.1681 38.9515 30.0781 38.9515C30.9887 38.9515 31.8987 38.6049 32.5919 37.9122L35.5293 34.9749C35.5399 35.1154 35.5469 35.2564 35.5469 35.3984ZM51.8581 21.2454C51.5195 20.7241 51.1627 20.2146 50.7862 19.718L51.5093 18.9943C52.179 18.3246 52.5481 17.4317 52.5481 16.4805C52.5481 15.5294 52.179 14.6369 51.5093 13.9672C50.8396 13.2975 49.9472 12.9285 48.996 12.9285C48.0449 12.9285 47.1519 13.2975 46.4822 13.9672L45.7586 14.6904C45.2619 14.3138 44.7524 13.9571 44.2312 13.6185L48.5587 6.123C53.4223 8.38474 57.6323 11.823 60.8201 16.0709L51.8581 21.2454Z" fill="#45FCCA"/>
</svg>
