<svg width="75" height="75" viewBox="0 0 75 75" fill="none" xmlns="http://www.w3.org/2000/svg">
<g clip-path="url(#clip0)">
<path d="M56.543 37.5C56.543 26.8957 47.9167 18.457 37.5 18.457C26.9136 18.457 18.457 27.057 18.457 37.5C18.457 48.0003 26.9996 56.543 37.5 56.543C48.0111 56.543 56.543 48.0212 56.543 37.5ZM26.7946 25.4624C28.1161 26.0733 29.6845 26.0962 31.1077 26.1145C31.8892 26.1246 33.1868 26.1413 33.501 26.3647C33.6536 26.8134 32.9963 27.5612 32.1877 28.4191C31.2765 29.3861 30.2438 30.4819 30.4698 31.8738C30.7184 33.414 31.9753 34.0412 32.7264 34.4161C32.9413 34.5233 33.2931 34.6989 33.3948 34.8037C33.3672 35.3046 32.6878 36.6435 31.7854 38.0465C30.1573 36.2788 27.212 33.434 24.3316 32.4511C23.7204 32.2428 23.0618 32.0999 22.3485 32.0164C23.2578 29.5112 24.7903 27.2484 26.7946 25.4624ZM21.3867 37.5C21.3867 36.6224 21.4594 35.7478 21.5999 34.8867C22.2715 34.9348 22.8634 35.0462 23.3862 35.2242C25.9162 36.0875 28.9753 39.2301 30.3666 40.8562C30.1907 42.1242 29.9316 44.7918 30.5139 46.7131C30.9645 48.2023 32.9965 51.145 34.6251 53.3561C27.1071 51.9967 21.3867 45.4039 21.3867 37.5ZM36.4203 48.6592C36.2336 49.1108 36.1263 49.7026 36.074 50.3591C34.6746 48.3879 33.5459 46.6176 33.318 45.8643C33.052 44.9862 33.0523 43.695 33.1318 42.5851C36.9684 44.3665 36.5572 44.4004 38.0881 45.2769C39.0334 45.8178 39.2169 45.9842 39.2377 46.2401C39.1134 46.3371 38.834 46.4815 38.6402 46.5817C37.9103 46.9592 36.9108 47.4762 36.4203 48.6592ZM39.073 53.5364C38.912 51.7753 38.9253 50.268 39.1271 49.7798C39.2071 49.587 39.6031 49.3822 39.9858 49.1843C40.8028 48.7619 42.1699 48.0549 42.1699 46.2891C42.1699 44.2375 40.6519 43.3686 39.5433 42.7342C38.0982 41.9073 38.3011 41.7371 34.1251 39.8162C35.0717 38.3747 36.5552 35.97 36.2917 34.3355C36.0417 32.7964 34.7854 32.1694 34.0346 31.7949C33.8527 31.7041 33.5723 31.5642 33.4293 31.4599C33.605 31.1871 34.0252 30.7411 34.3198 30.4285C35.4362 29.244 37.1232 27.4538 36.1988 25.2201C35.3779 23.2395 33.1292 23.2106 31.1455 23.185C30.8149 23.1807 30.4733 23.1763 30.1364 23.1631C32.3952 21.9967 34.8942 21.3867 37.5 21.3867C40.8385 21.3867 44.0694 22.4288 46.7587 24.3164H46.563C46.5319 24.3164 46.501 24.3174 46.4701 24.3193C45.2628 24.3959 39.2402 24.9681 39.2402 28.7109C39.2402 29.9191 39.8544 30.8629 40.9698 31.3687C41.6994 31.6997 42.5402 31.8026 43.3534 31.9024C44.0209 31.9841 45.138 32.1211 45.3171 32.4113C45.5467 32.7823 45.4519 33.2017 45.1632 34.1404C44.8269 35.2339 44.3663 36.7314 45.3171 38.2707C46.2546 39.7865 47.809 40.1344 49.0579 40.4137C49.9983 40.6242 50.8106 40.806 51.316 41.3881C51.4711 41.5676 51.8682 42.1324 52.4023 43.6364C50.1141 49.2063 45.0149 52.9686 39.073 53.5364ZM53.4954 39.432C52.3608 38.1521 50.8856 37.8205 49.6976 37.5546C48.6757 37.326 48.0842 37.175 47.8091 36.7301C47.58 36.359 47.6747 35.9399 47.9634 35.0014C48.2999 33.9073 48.7605 32.4091 47.8091 30.8707C46.8907 29.3842 45.1269 29.1678 43.7096 28.9942C43.2305 28.9355 42.4556 28.8406 42.1702 28.6997C42.2035 28.2469 44.2188 27.4115 46.6121 27.2461H49.9273C52.3085 30.1266 53.6133 33.7424 53.6133 37.5C53.6133 38.1498 53.5715 38.794 53.4954 39.432Z" fill="#2CD6A8"/>
<path d="M69.2156 19.1892C67.7544 16.6603 64.7023 15.6346 62.0673 16.6392C56.8721 10.4375 50.1363 6.23716 43.2839 4.92158C42.8335 2.13501 40.412 0 37.5004 0C34.5889 0 32.1674 2.13501 31.7171 4.92158C24.8647 6.23716 18.1289 10.4375 12.9337 16.639C10.3427 15.6513 7.26868 16.6214 5.78494 19.1897C4.33196 21.7077 4.96638 24.8663 7.14856 26.6522C5.9055 30.1274 5.27385 33.7704 5.27385 37.5C5.27385 41.2295 5.90535 44.8721 7.14842 48.3473C4.96682 50.1313 4.33152 53.2915 5.78523 55.811C7.23616 58.3222 10.274 59.3723 12.9324 58.3595C18.1277 64.562 24.8641 68.7628 31.7171 70.0786C32.1674 72.8648 34.5889 75 37.5004 75C40.4117 75 42.833 72.8653 43.2836 70.0793C44.7581 69.7978 46.2325 69.3864 47.6809 68.8475C48.4391 68.5654 48.8251 67.7221 48.543 66.9639C48.2609 66.2057 47.4177 65.8198 46.6594 66.1017C45.4544 66.55 44.2315 66.8999 43.0091 67.1486C42.1879 64.888 40.0121 63.2812 37.5004 63.2812C34.989 63.2812 32.8131 64.8879 31.9919 67.1481C25.9576 65.914 20.0045 62.1684 15.3329 56.6631C16.8841 54.8205 17.1905 52.1276 15.9347 49.9506C14.6773 47.7747 12.1954 46.6939 9.81927 47.1174C8.74685 44.0329 8.20354 40.8042 8.20354 37.5C8.20354 34.1965 8.74656 30.9683 9.81868 27.8843C12.2017 28.31 14.6805 27.2197 15.9353 25.0482C17.1907 22.8721 16.8842 20.1794 15.3329 18.3368C20.0045 12.8314 25.9576 9.08584 31.9919 7.85171C32.8131 10.1121 34.989 11.7188 37.5004 11.7188C40.0119 11.7188 42.1878 10.1121 43.0088 7.85186C49.0431 9.08599 54.9962 12.8316 59.6678 18.3369C58.1166 20.1795 57.8102 22.8724 59.066 25.0494C60.3092 27.2007 62.7735 28.3115 65.1814 27.8826C66.254 30.9669 66.7973 34.1958 66.7973 37.5C66.7973 40.8035 66.2541 44.0317 65.1822 47.1157C62.8103 46.692 60.3247 47.7729 59.0656 49.9518C57.8102 52.1281 58.1166 54.8208 59.6679 56.6634C58.881 57.5896 58.0484 58.4776 57.1812 59.3127C56.5985 59.874 56.581 60.8013 57.1424 61.384C57.7034 61.9666 58.6307 61.9843 59.2137 61.4229C60.2131 60.4603 61.1697 59.4331 62.0691 58.3601C64.7613 59.3856 67.7824 58.2916 69.2158 55.8104C70.6686 53.2925 70.0343 50.1338 67.8521 48.3479C69.0954 44.8726 69.727 41.2296 69.727 37.5C69.727 33.7705 69.0955 30.1279 67.8524 26.6527C70.034 24.8687 70.6693 21.7085 69.2156 19.1892ZM37.5004 66.2109C39.1065 66.2109 40.4301 67.5192 40.4301 69.1406C40.4301 70.7561 39.1159 72.0703 37.5004 72.0703C35.885 72.0703 34.5707 70.7561 34.5707 69.1406C34.5707 67.5211 35.8926 66.2109 37.5004 66.2109ZM9.3908 50.3458C10.8426 49.513 12.6148 50.0609 13.3976 51.4154C14.1782 52.7687 13.7678 54.5791 12.3234 55.4183C10.9224 56.228 9.13225 55.7476 8.32249 54.3459C7.51507 52.9466 7.99598 51.1513 9.3908 50.3458ZM13.3982 23.5835C12.6095 24.9482 10.8334 25.4813 9.39446 24.6563C7.99597 23.8487 7.51507 22.0534 8.3222 20.6547C9.13445 19.2485 10.9268 18.7745 12.3214 19.5806C13.7541 20.4107 14.1861 22.2176 13.3982 23.5835ZM37.5004 8.78906C35.8944 8.78906 34.5707 7.48081 34.5707 5.85938C34.5707 4.24395 35.885 2.92969 37.5004 2.92969C39.1159 2.92969 40.4301 4.24395 40.4301 5.85938C40.4301 7.47891 39.1082 8.78906 37.5004 8.78906ZM66.6787 54.3454C65.8619 55.7594 63.9954 56.2956 62.492 55.3034C61.23 54.4459 60.8395 52.7396 61.6027 51.4166C62.3911 50.0522 64.1672 49.5187 65.6064 50.3439C67.0049 51.1513 67.4858 52.9466 66.6787 54.3454ZM65.6101 24.6542C64.1657 25.4827 62.3905 24.9467 61.6033 23.5846C60.8395 22.2605 61.23 20.5542 62.492 19.6967C63.9987 18.7022 65.8639 19.2444 66.6784 20.6542C67.4858 22.0534 67.0049 23.8487 65.6101 24.6542Z" fill="#2CD6A8"/>
<path d="M53.0273 65.918C53.8364 65.918 54.4922 65.2621 54.4922 64.4531C54.4922 63.6441 53.8364 62.9883 53.0273 62.9883C52.2183 62.9883 51.5625 63.6441 51.5625 64.4531C51.5625 65.2621 52.2183 65.918 53.0273 65.918Z" fill="#2CD6A8"/>
</g>
<defs>
<clipPath id="clip0">
<rect width="75" height="75" fill="white"/>
</clipPath>
</defs>
</svg>
