<svg width="70" height="70" viewBox="0 0 70 70" fill="none" xmlns="http://www.w3.org/2000/svg">
<path d="M69.3776 14.8473C68.9888 14.5738 68.4903 14.5068 68.0433 14.6721L56.1545 18.9959C54.6805 19.5314 53.5069 20.6109 52.8504 22.035C52.7274 22.302 52.6466 22.5794 52.5656 22.8564C50.5241 22.276 46.7302 21.0639 42.9598 19.1212C37.2623 16.1855 32.9096 17.6355 29.1763 20.4831C27.2847 20.5203 24.6775 20.7439 22.1145 20.9698C20.4796 21.114 18.9346 21.2468 17.6817 21.3232C17.6509 20.5707 17.4748 19.824 17.15 19.1185C16.4935 17.6943 15.32 16.6148 13.8459 16.0794L1.95686 11.7554C1.51115 11.5916 1.0098 11.6586 0.62248 11.9305C0.232148 12.2041 0 12.6498 0 13.1254V42.292C0 43.0981 0.652285 43.7504 1.45838 43.7504H5.71799C7.52965 43.7504 9.21512 42.8959 10.3046 41.5162C10.885 41.9575 11.5724 42.4743 12.2933 43.0156C13.9952 44.2959 15.858 45.6929 16.6754 46.378C22.1058 50.9239 28.6341 55.8329 29.9343 56.6874C31.149 57.4849 33.3365 58.3338 35 58.3338C35.6508 58.3338 37.29 58.3338 38.4408 57.3611C39.6271 57.8267 40.906 57.804 42.0951 57.2798C43.2815 56.7572 44.2414 55.7717 44.7996 54.5739C45.9389 54.8074 47.2477 54.6365 48.434 54.0412C49.5462 53.4844 50.3651 52.6412 50.8037 51.6558C51.8576 51.7526 52.9827 51.4094 53.9895 50.6389C55.4281 49.5392 56.0868 47.9153 55.9005 46.3132L59.5997 44.2667C60.683 45.7352 62.4049 46.6669 64.2819 46.6669H68.5415C69.3476 46.6669 69.9999 46.0146 69.9999 45.2085V16.0422C70 15.5664 69.7678 15.1207 69.3776 14.8473ZM8.44949 38.9411C8.02512 40.0732 6.92713 40.8338 5.71799 40.8338H2.91662V15.2075L12.8487 18.8192C13.5864 19.0884 14.1732 19.6282 14.5007 20.3402C14.8296 21.0522 14.8582 21.8499 14.5832 22.5832L8.44949 38.9411ZM52.2194 48.322C51.7252 48.7009 51.0331 48.9117 50.7255 48.6041C50.7098 48.5884 50.6855 48.5899 50.6693 48.5748C50.6414 48.549 50.6276 48.5141 50.5974 48.4901C49.5549 47.6669 44.8837 42.8875 41.997 39.8768C41.4401 39.2944 40.5159 39.2729 39.9362 39.8326C39.3538 40.3895 39.3338 41.3123 39.8921 41.8934C40.5696 42.6006 46.0089 48.2656 48.1858 50.2468C48.0233 50.8871 47.4296 51.2825 47.1282 51.4338C46.194 51.9023 45.2199 51.8239 44.8552 51.485C44.8444 51.4749 44.8283 51.4754 44.8171 51.4656C44.7993 51.4497 44.7914 51.4275 44.7725 51.4124C43.0236 50.0153 38.6359 45.3526 37.6432 44.2731C37.0977 43.6792 36.1763 43.6421 35.5824 44.1863C34.99 44.7318 34.9501 45.6546 35.4956 46.247C35.5435 46.2989 39.8435 50.9373 42.2587 53.0919C42.0213 53.7738 41.5378 54.3386 40.9173 54.6125C40.4594 54.8159 39.7433 54.9202 38.9251 54.3155C36.8308 52.5398 32.6279 48.066 31.8013 47.1812C31.2531 46.5916 30.3274 46.5618 29.7406 47.1115C29.1524 47.6613 29.1211 48.5841 29.6708 49.1723C30.6508 50.2212 33.5475 53.2913 35.7495 55.3702C35.5035 55.4001 35.2453 55.4172 35 55.4172C34.0344 55.4172 32.3753 54.8006 31.5365 54.2493C30.514 53.5771 24.0938 48.7863 18.5496 44.1435C17.7108 43.4399 15.7968 42.0002 14.045 40.6842C13.1061 39.9795 12.2411 39.3296 11.6036 38.8392L17.0639 24.2765C18.4812 24.2145 20.3708 24.0512 22.3706 23.8748C23.5017 23.7751 24.634 23.6779 25.716 23.5937C24.0529 25.3009 21.5804 28.3586 21.9063 31.2248C22.0559 32.5294 22.7694 33.616 23.9728 34.368C26.3554 35.859 30.7661 34.6086 32.8908 31.9953C34.2623 31.7974 35.1895 31.4471 36.2005 30.9458C37.9095 32.5522 40.2009 34.4407 42.6078 36.4245C46.7977 39.8766 51.5472 43.7902 52.8034 45.9848C53.5026 47.2054 52.5328 48.0828 52.2194 48.322ZM54.7213 43.632C52.7782 41.0327 48.5662 37.555 44.462 34.173C41.7263 31.9185 39.1428 29.7894 37.4894 28.1361C37.0337 27.6831 36.3344 27.5806 35.7704 27.8811C34.285 28.6772 33.6157 29.0061 31.938 29.1742C31.4908 29.2197 31.0893 29.4676 30.85 29.8478C29.7064 31.6622 26.5277 32.5251 25.5194 31.8957C24.9468 31.5368 24.8358 31.1722 24.8045 30.8945C24.6635 29.654 25.9195 27.5065 28.0031 25.4215C33.1629 20.2617 36.8514 19.2521 41.6237 21.713C46.1579 24.0508 50.6328 25.3726 52.5113 25.8719C52.5656 26.0903 52.605 26.311 52.6851 26.5252L58.3476 41.626L54.7213 43.632ZM67.0834 43.7504H64.282C63.0729 43.7504 61.9749 42.9899 61.5505 41.8577L55.4166 25.5013C55.1418 24.7665 55.1702 23.969 55.4992 23.2568C55.8268 22.5448 56.4136 22.005 57.1512 21.7358L67.0832 18.1241V43.7504H67.0834Z" fill="#45FCCA"/>
</svg>
