<svg width="70" height="70" viewBox="0 0 70 70" fill="none" xmlns="http://www.w3.org/2000/svg">
<path d="M65.5354 14.9199C65.5354 12.1834 63.8906 10.3348 61.125 9.98544C60.6009 9.91266 60.0624 9.85444 59.5383 9.79622C57.9808 9.60699 56.5107 9.44687 55.0988 9.14119C49.582 7.93304 44.2399 5.44396 38.3302 1.31004C37.3549 0.62591 36.2778 0 35.0114 0C33.7596 0 32.6824 0.62591 31.7072 1.29549C23.8033 6.72489 16.6854 9.49054 9.32 9.95633C6.13223 10.1601 4.45828 11.9651 4.45828 15.182C4.45828 17.1033 4.45828 19.0247 4.45828 20.9461V20.9753C4.44373 26.3173 4.44373 31.8341 4.50195 37.278C4.51651 39.3013 4.77851 41.3974 5.25886 43.5226C6.39424 48.5007 8.98521 52.984 13.1774 57.2198C18.403 62.5036 24.9532 66.5793 33.1919 69.6798C33.745 69.8836 34.3418 70 34.9677 70C35.7247 70 36.4816 69.8399 37.1511 69.5488C37.6024 69.345 38.0682 69.1558 38.5194 68.9665L38.5631 68.952C40.5573 68.0932 42.6097 67.2052 44.6184 66.1572C51.3142 62.6201 56.3797 58.4425 60.106 53.377C63.4539 48.8355 65.1861 44.2649 65.3899 39.4032C65.4335 38.4716 65.4627 37.4818 65.4772 36.361L65.55 27.3654C65.55 27.3071 65.55 27.2635 65.55 27.2052V23.7118C65.55 20.7715 65.55 17.8457 65.5354 14.9199ZM62.042 27.1907C62.042 27.2198 62.042 27.2489 62.042 27.2926L61.9692 36.3173C61.9546 37.3945 61.9255 38.3406 61.8964 39.2431C61.7217 43.3916 60.2079 47.3362 57.2822 51.2955C53.876 55.9243 49.189 59.7671 42.9736 63.0568C41.0958 64.0466 39.1017 64.9054 37.1657 65.7351L37.122 65.7496C36.6562 65.9534 36.205 66.1426 35.7392 66.3464C35.5063 66.4483 35.2298 66.5066 34.9532 66.5066C34.7494 66.5066 34.5602 66.4774 34.4001 66.4192C26.6417 63.4935 20.499 59.6798 15.6373 54.7744C11.9401 51.0044 9.65479 47.0742 8.66498 42.7511C8.2283 40.8734 8.00996 39.0247 7.9954 37.2489C7.93718 31.8341 7.95173 26.3173 7.95173 20.9898V20.9607C7.95173 19.0393 7.95173 17.1179 7.95173 15.1965C7.95173 14.5269 8.05362 14.032 8.25741 13.8282C8.44664 13.6245 8.89787 13.4935 9.5529 13.4498C17.5733 12.9258 25.2443 9.98544 33.6868 4.16303C34.3418 3.71179 34.7785 3.49345 35.0114 3.49345C35.2443 3.49345 35.681 3.72635 36.336 4.17758C42.6388 8.57351 48.3739 11.2373 54.3564 12.5473C55.9284 12.8967 57.4859 13.0713 59.1453 13.2606C59.6693 13.3188 60.1788 13.377 60.7028 13.4498C61.7218 13.5808 62.0565 13.9447 62.0565 14.9199C62.0565 17.8457 62.0565 20.7715 62.0565 23.6972L62.042 27.1907Z" fill="#45FCCA"/>
<path d="M37.4281 33.2172H32.5518C30.5722 33.2172 28.9564 31.6015 28.9564 29.6219C28.9564 27.6423 30.5722 26.0265 32.5518 26.0265H41.1398C42.1005 26.0265 42.8866 25.2405 42.8866 24.2798C42.8866 23.3191 42.1005 22.5331 41.1398 22.5331H36.7439V19.1852C36.7439 18.2245 35.9579 17.4385 34.9972 17.4385C34.0365 17.4385 33.2505 18.2245 33.2505 19.1852V22.5331H32.5663C28.6653 22.5331 25.4775 25.7063 25.4775 29.6219C25.4775 33.5229 28.6508 36.7107 32.5663 36.7107H37.4426C39.4222 36.7107 41.038 38.3264 41.038 40.306C41.038 42.2856 39.4222 43.9014 37.4426 43.9014H28.6944C27.7337 43.9014 26.9477 44.6874 26.9477 45.6481C26.9477 46.6088 27.7337 47.3948 28.6944 47.3948H33.2505V50.8009C33.2505 51.7616 34.0365 52.5476 34.9972 52.5476C35.9579 52.5476 36.7439 51.7616 36.7439 50.8009V47.3948H37.4863C37.5008 47.3948 37.5154 47.3948 37.5299 47.3948C41.3873 47.3511 44.5168 44.1779 44.5168 40.306C44.5168 36.3904 41.3436 33.2172 37.4281 33.2172Z" fill="#45FCCA"/>
</svg>
