<svg width="24" height="52" viewBox="0 0 24 52" fill="none" xmlns="http://www.w3.org/2000/svg">
<path d="M11.4697 50.5303C11.7626 50.8232 12.2374 50.8232 12.5303 50.5303L17.3033 45.7574C17.5962 45.4645 17.5962 44.9896 17.3033 44.6967C17.0104 44.4038 16.5355 44.4038 16.2426 44.6967L12 48.9393L7.75736 44.6967C7.46447 44.4038 6.98959 44.4038 6.6967 44.6967C6.40381 44.9896 6.40381 45.4645 6.6967 45.7574L11.4697 50.5303ZM11.25 3.27835e-08L11.25 5.68182L12.75 5.68182L12.75 -3.27835e-08L11.25 3.27835e-08ZM11.25 19.3182L11.25 30.6818L12.75 30.6818L12.75 19.3182L11.25 19.3182ZM11.25 44.3182L11.25 50L12.75 50L12.75 44.3182L11.25 44.3182ZM10.9393 51.0607C11.5251 51.6464 12.4749 51.6464 13.0607 51.0607L22.6066 41.5147C23.1924 40.9289 23.1924 39.9792 22.6066 39.3934C22.0208 38.8076 21.0711 38.8076 20.4853 39.3934L12 47.8787L3.51472 39.3934C2.92893 38.8076 1.97919 38.8076 1.3934 39.3934C0.807613 39.9792 0.807613 40.9289 1.3934 41.5147L10.9393 51.0607ZM10.5 6.55671e-08L10.5 5.68182L13.5 5.68182L13.5 -6.55671e-08L10.5 6.55671e-08ZM10.5 19.3182L10.5 30.6818L13.5 30.6818L13.5 19.3182L10.5 19.3182ZM10.5 44.3182L10.5 50L13.5 50L13.5 44.3182L10.5 44.3182Z" fill="#2D455B"/>
</svg>
