<svg width="67" height="67" viewBox="0 0 67 67" fill="none" xmlns="http://www.w3.org/2000/svg">
<path d="M13.1851 50.395L7.60176 47.6034C6.91501 47.2656 6.07477 47.5391 5.72851 48.2287L2.93689 53.8121C2.59351 54.5016 2.87264 55.3391 3.56227 55.6854C3.76601 55.7859 3.97827 55.8334 4.18764 55.8334C4.69852 55.8334 5.1899 55.5514 5.43552 55.0629L7.60189 50.7274L11.9374 52.8938C12.6298 53.2344 13.4673 52.9608 13.8106 52.2684C14.1539 51.5787 13.8748 50.7412 13.1851 50.395Z" fill="#2CD6A8"/>
<path d="M20.9431 61.4168C13.7769 61.3944 9.19026 54.9875 8.36663 48.6728C8.26338 47.905 7.51513 47.3579 6.80051 47.4695C6.03276 47.57 5.49676 48.2708 5.59451 49.0357C6.57713 56.5537 12.1633 64.1804 20.9319 64.2084C20.9346 64.2084 20.9346 64.2084 20.9375 64.2084C21.7053 64.2084 22.3305 63.583 22.3334 62.8154C22.3361 62.0478 21.7108 61.4197 20.9431 61.4168Z" fill="#2CD6A8"/>
<path d="M63.4353 11.3063C62.7458 10.9713 61.9083 11.242 61.562 11.9316L59.3956 16.2671L55.0601 14.1008C54.3706 13.763 53.5331 14.0365 53.1869 14.7261C52.8435 15.4156 53.1226 16.2531 53.8123 16.5994L59.3956 19.391C59.5994 19.4915 59.8116 19.539 60.021 19.539C60.5319 19.539 61.0233 19.2543 61.2689 18.7629L64.0605 13.1795C64.404 12.4899 64.1249 11.6524 63.4353 11.3063Z" fill="#2CD6A8"/>
<path d="M61.4053 17.9589C60.4226 10.4409 54.8365 2.81414 46.0679 2.78613C45.4063 2.82801 44.6693 3.40588 44.6665 4.17913C44.6638 4.94963 45.289 5.57776 46.0568 5.5805C53.2258 5.60288 57.8096 12.0098 58.636 18.3245C58.7281 19.028 59.3284 19.5389 60.0179 19.5389C60.0793 19.5389 60.1408 19.5333 60.1994 19.5249C60.967 19.4245 61.503 18.7239 61.4053 17.9589Z" fill="#2CD6A8"/>
<path d="M43.2709 41.8751C39.4881 41.8751 36.2918 39.9572 36.2918 37.6876C36.2918 35.418 39.4883 33.5001 43.2709 33.5001C47.0535 33.5001 50.25 35.418 50.25 37.6876C50.25 38.4581 50.8754 39.0835 51.6459 39.0835C52.4164 39.0835 53.0418 38.4581 53.0418 37.6876C53.0418 33.7737 48.751 30.7085 43.2709 30.7085C37.7907 30.7085 33.5 33.7737 33.5 37.6876C33.5 41.6015 37.7907 44.6667 43.2709 44.6667C47.0536 44.6667 50.25 46.5846 50.25 48.8542C50.25 51.1239 47.0535 53.0418 43.2709 53.0418C39.4883 53.0418 36.2918 51.1239 36.2918 48.8542C36.2918 48.0837 35.6664 47.4584 34.8959 47.4584C34.1254 47.4584 33.5 48.0837 33.5 48.8542C33.5 52.7681 37.7907 55.8334 43.2709 55.8334C48.7509 55.8334 53.0418 52.7681 53.0418 48.8542C53.0416 44.9404 48.7509 41.8751 43.2709 41.8751Z" fill="#2CD6A8"/>
<path d="M43.2709 27.9165C42.5004 27.9165 41.875 28.5419 41.875 29.3124V57.229C41.875 57.9995 42.5004 58.6249 43.2709 58.6249C44.0414 58.6249 44.6668 57.9995 44.6668 57.229V29.3124C44.6666 28.5419 44.0414 27.9165 43.2709 27.9165Z" fill="#2CD6A8"/>
<path d="M20.9375 0C9.39112 0 0 9.39112 0 20.9375C0 32.4839 9.39112 41.875 20.9375 41.875C21.708 41.875 22.3334 41.2496 22.3334 40.4791C22.3334 39.7086 21.708 39.0832 20.9375 39.0832C10.9321 39.0832 2.79162 30.9427 2.79162 20.9374C2.79162 10.932 10.9321 2.79162 20.9375 2.79162C30.9429 2.79162 39.0834 10.9321 39.0834 20.9375C39.0834 21.708 39.7088 22.3334 40.4793 22.3334C41.2498 22.3334 41.875 21.708 41.875 20.9375C41.875 9.39112 32.4839 0 20.9375 0Z" fill="#2CD6A8"/>
<path d="M43.2706 19.5415C30.1861 19.5415 19.5415 30.1861 19.5415 43.2706C19.5415 56.3551 30.186 66.9999 43.2706 66.9999C56.3552 66.9999 66.9997 56.3553 66.9997 43.2708C66.9997 30.1863 56.3551 19.5415 43.2706 19.5415ZM43.2706 64.2083C31.7242 64.2083 22.3331 54.8171 22.3331 43.2708C22.3331 31.7244 31.7242 22.3333 43.2706 22.3333C54.817 22.3333 64.2081 31.7244 64.2081 43.2708C64.2081 54.8171 54.8169 64.2083 43.2706 64.2083Z" fill="#2CD6A8"/>
<path d="M26.0214 20.9374C27.1828 19.9129 27.9169 18.4165 27.9169 16.7499C27.9169 13.6706 25.4127 11.1665 22.3335 11.1665H15.3544C14.5839 11.1665 13.9585 11.7919 13.9585 12.5624V29.3124C13.9585 30.0829 14.5839 30.7083 15.3544 30.7083H22.3335C25.4127 30.7083 27.9169 28.2041 27.9169 25.1249C27.9169 23.4583 27.1828 21.9619 26.0214 20.9374ZM22.3336 27.9165H16.7502V22.3331H22.3336C23.8746 22.3331 25.1252 23.5866 25.1252 25.1248C25.1252 26.6629 23.8746 27.9165 22.3336 27.9165ZM22.3336 19.5415H16.7502V13.9581H22.3336C23.8746 13.9581 25.1252 15.2116 25.1252 16.7498C25.1252 18.2881 23.8746 19.5415 22.3336 19.5415Z" fill="#2CD6A8"/>
<path d="M18.1459 8.375C17.3754 8.375 16.75 9.00038 16.75 9.77088V12.5625C16.75 13.333 17.3754 13.9584 18.1459 13.9584C18.9164 13.9584 19.5418 13.333 19.5418 12.5625V9.77088C19.5416 9.00038 18.9164 8.375 18.1459 8.375Z" fill="#2CD6A8"/>
<path d="M23.7294 8.375C22.9589 8.375 22.3335 9.00038 22.3335 9.77088V12.5625C22.3335 13.333 22.9589 13.9584 23.7294 13.9584C24.4999 13.9584 25.1253 13.333 25.1253 12.5625V9.77088C25.1253 9.00038 24.4999 8.375 23.7294 8.375Z" fill="#2CD6A8"/>
<path d="M18.1459 27.9165C17.3754 27.9165 16.75 28.5419 16.75 29.3124V32.104C16.75 32.8745 17.3754 33.4999 18.1459 33.4999C18.9164 33.4999 19.5418 32.8745 19.5418 32.104V29.3124C19.5416 28.5419 18.9164 27.9165 18.1459 27.9165Z" fill="#2CD6A8"/>
<path d="M23.7294 27.9165C22.9589 27.9165 22.3335 28.5419 22.3335 29.3124V32.104C22.3335 32.8745 22.9589 33.4999 23.7294 33.4999C24.4999 33.4999 25.1253 32.8745 25.1253 32.104V29.3124C25.1253 28.5419 24.4999 27.9165 23.7294 27.9165Z" fill="#2CD6A8"/>
</svg>
