<svg width="80" height="80" viewBox="0 0 80 80" fill="none" xmlns="http://www.w3.org/2000/svg">
<g clip-path="url(#clip0)">
<path d="M31.6667 10H15V13.3333H31.6667V10Z" fill="#45FCCA"/>
<path d="M18.3333 16.667H15V20.0003H18.3333V16.667Z" fill="#45FCCA"/>
<path d="M24.9993 16.667H21.666V20.0003H24.9993V16.667Z" fill="#45FCCA"/>
<path d="M67.845 13.8217L54.5117 0.488281C54.1992 0.175781 53.7753 0 53.3334 0H10C7.23859 0 5 2.23859 5 5V75C5 77.7614 7.23859 80 10 80H43.3333V76.6667H10C9.07953 76.6667 8.33328 75.9205 8.33328 75V5C8.33328 4.07953 9.07953 3.33328 10 3.33328H52.6433L65 15.69V38.3333H68.3333V15C68.3333 14.558 68.1577 14.1342 67.845 13.8217Z" fill="#45FCCA"/>
<path d="M56.666 13.3327C55.7455 13.3327 54.9993 12.5865 54.9993 11.666V1.66602H51.666V11.666C51.666 14.4274 53.9046 16.666 56.666 16.666H59.9993V13.3327H56.666Z" fill="#45FCCA"/>
<path d="M73.334 56.667H68.334V60.0003H71.6673V75.0003C71.6673 75.9207 70.921 76.667 70.0005 76.667H53.334C52.4135 76.667 51.6673 75.9207 51.6673 75.0003V60.0003H69.0007V56.667H50.0007C49.0802 56.667 48.334 57.4132 48.334 58.3337V75.0003C48.334 77.7617 50.5726 80.0003 53.334 80.0003H70.0007C72.7621 80.0003 75.0007 77.7617 75.0007 75.0003V58.3336C75.0007 57.4131 74.2544 56.667 73.334 56.667Z" fill="#45FCCA"/>
<path d="M66.6665 43.3328H56.6665C56.6204 43.3318 56.5745 43.3318 56.5284 43.3328C54.7256 43.3709 53.2951 44.8632 53.3333 46.6661V53.3328H56.6665V46.6661H66.6665V53.3328H69.9998V46.6661C70.0008 46.62 70.0008 46.574 69.9998 46.5279C69.9617 44.7253 68.4694 43.2947 66.6665 43.3328Z" fill="#45FCCA"/>
<path d="M63.3333 65H60V73.3333H63.3333V65Z" fill="#45FCCA"/>
</g>
<defs>
<clipPath id="clip0">
<rect width="80" height="80" fill="white"/>
</clipPath>
</defs>
</svg>
