<svg width="80" height="80" viewBox="0 0 80 80" fill="none" xmlns="http://www.w3.org/2000/svg">
<path d="M58.0886 37.602C55.3863 37.5991 52.7149 38.1646 50.2461 39.2613V21.3761C50.2461 20.6119 49.6262 19.993 48.8625 19.993H47.103V15.771C47.103 15.0072 46.4836 14.3878 45.7199 14.3878H42.6293V12.7309C42.6293 11.9667 42.0099 11.3478 41.2462 11.3478C40.482 11.3478 39.8631 11.9667 39.8631 12.7309V14.3878H36.6882C35.925 14.3878 35.3051 15.0072 35.3051 15.771V19.993H33.4581V14.512C33.4581 13.7478 32.8387 13.1289 32.075 13.1289H28.5195V8.83036C28.5195 8.06661 27.9001 7.44724 27.1364 7.44724H19.1846V4.9173C19.1846 4.15307 18.5657 3.53418 17.8015 3.53418C17.0378 3.53418 16.4179 4.15307 16.4179 4.9173V7.44724H8.79585C8.03162 7.44724 7.41273 8.06661 7.41273 8.83036V13.1289H3.85773C3.09446 13.1289 2.47461 13.7478 2.47461 14.512V65.286C2.47461 66.0497 3.09446 66.6691 3.85773 66.6691H41.2991C45.9995 74.8186 55.8729 78.4165 64.7144 75.2012C73.5555 71.986 78.8117 62.8865 77.1788 53.6209C75.5464 44.3559 67.4965 37.6015 58.0886 37.602ZM10.179 10.2135H25.7532V13.1289H10.179V10.2135ZM22.2257 63.9029H19.1846V55.4333H22.2257V63.9029ZM16.4179 63.9029H13.7061V55.4333H16.4179V63.9029ZM30.6909 63.9029H24.9919V54.0502C24.9919 53.286 24.373 52.6671 23.6088 52.6671H12.3225C11.5592 52.6671 10.9393 53.286 10.9393 54.0502V63.9029H5.24133V15.8951H30.6918L30.6909 63.9029ZM38.0718 17.1541H44.3368V19.993H38.0718V17.1541ZM33.4581 63.9029V22.7592H47.4803V40.7715C46.4798 41.4275 45.5423 42.1748 44.6785 43.0026C44.5432 42.9598 44.4017 42.9371 44.2593 42.9371H36.7484C35.9847 42.9371 35.3653 43.557 35.3653 44.3207C35.3653 45.085 35.9847 45.7039 36.7484 45.7039H42.3348C41.5267 46.8295 40.8414 48.0379 40.2909 49.3094H36.7484C35.9847 49.3094 35.3653 49.9288 35.3653 50.6925C35.3653 51.4563 35.9847 52.0756 36.7484 52.0756H39.3346C38.9829 53.4193 38.7769 54.7962 38.7211 56.1846H36.7484C35.9847 56.1846 35.3653 56.8035 35.3653 57.5677C35.3653 58.3309 35.9847 58.9508 36.7484 58.9508H38.8024C38.9732 60.6462 39.3698 62.3114 39.9795 63.9029H33.4581ZM58.089 73.6059C48.9106 73.6068 41.4695 66.1662 41.4695 56.9883C41.469 47.8098 48.9096 40.3687 58.0881 40.3687C67.2665 40.3687 74.7071 47.8089 74.7071 56.9878C74.697 66.1614 67.2622 73.5958 58.0886 73.6059H58.089Z" fill="#2CD6A8"/>
<path d="M9.58429 30.4454H26.3516C27.1153 30.4454 27.7347 29.8261 27.7347 29.0618C27.7347 28.2986 27.1153 27.6787 26.3516 27.6787H9.58429C8.82054 27.6787 8.20117 28.2986 8.20117 29.0618C8.20117 29.8261 8.82054 30.4454 9.58429 30.4454Z" fill="#2CD6A8"/>
<path d="M9.58429 38.1583H26.3516C27.1153 38.1583 27.7347 37.5394 27.7347 36.7752C27.7347 36.0115 27.1153 35.3916 26.3516 35.3916H9.58429C8.82054 35.3916 8.20117 36.0115 8.20117 36.7752C8.20117 37.5394 8.82054 38.1583 9.58429 38.1583Z" fill="#2CD6A8"/>
<path d="M9.58429 45.8707H26.3516C27.1153 45.8707 27.7347 45.2518 27.7347 44.4876C27.7347 43.7239 27.1153 43.1045 26.3516 43.1045H9.58429C8.82054 43.1045 8.20117 43.7239 8.20117 44.4876C8.20117 45.2518 8.82054 45.8707 9.58429 45.8707Z" fill="#2CD6A8"/>
<path d="M9.58429 22.7321H26.3516C27.1153 22.7321 27.7347 22.1132 27.7347 21.3489C27.7347 20.5852 27.1153 19.9658 26.3516 19.9658H9.58429C8.82054 19.9658 8.20117 20.5852 8.20117 21.3489C8.20117 22.1132 8.82054 22.7321 9.58429 22.7321Z" fill="#2CD6A8"/>
<path d="M36.7484 38.8287H43.959C44.7227 38.8287 45.3421 38.2094 45.3421 37.4456C45.3421 36.6814 44.7227 36.0625 43.959 36.0625H36.7484C35.9846 36.0625 35.3652 36.6814 35.3652 37.4456C35.3652 38.2094 35.9846 38.8287 36.7484 38.8287Z" fill="#2CD6A8"/>
<path d="M36.7484 32.1222H43.959C44.7227 32.1222 45.3421 31.5033 45.3421 30.7391C45.3421 29.9753 44.7227 29.3555 43.959 29.3555H36.7484C35.9846 29.3555 35.3652 29.9753 35.3652 30.7391C35.3652 31.5033 35.9846 32.1222 36.7484 32.1222Z" fill="#2CD6A8"/>
<path d="M64.4101 61.3523C67.4598 57.2761 66.8419 51.5362 62.9943 48.2026C59.1462 44.8694 53.377 45.0759 49.7777 48.6756C46.1779 52.2749 45.9715 58.0442 49.3046 61.8922C52.6382 65.7399 58.3776 66.3578 62.4543 63.3081L66.8616 67.7164C67.4021 68.2558 68.2779 68.2568 68.8179 67.7164C69.3579 67.1759 69.3579 66.3 68.8184 65.7601L64.4101 61.3523ZM49.7209 55.5474C49.7175 52.4275 51.7994 49.6901 54.8072 48.8599C57.8146 48.0303 61.0062 49.3138 62.6025 51.9943C64.1989 54.6754 63.8062 58.0923 61.6439 60.3412C61.5698 60.4013 61.5019 60.4692 61.4418 60.5428C59.4402 62.4678 56.4834 63.0102 53.929 61.9221C51.3749 60.8335 49.718 58.3247 49.7199 55.5479L49.7209 55.5474Z" fill="#2CD6A8"/>
<path d="M56.3333 56.8585L59.1617 59.687L60.5759 58.2728L57.7475 55.4443L60.5759 52.6159L59.1617 51.2017L56.3333 54.0301L53.5048 51.2017L52.0906 52.6159L54.9191 55.4443L52.0906 58.2728L53.5048 59.687L56.3333 56.8585Z" fill="#2CD6A8"/>
</svg>
