<svg width="75" height="75" viewBox="0 0 75 75" fill="none" xmlns="http://www.w3.org/2000/svg">
<path d="M55.8844 0.878906H19.1152C18.1055 0.880069 17.1374 1.2817 16.4234 1.9957C15.7094 2.7097 15.3078 3.67776 15.3066 4.6875V70.3125C15.3078 71.3222 15.7094 72.2903 16.4234 73.0043C17.1374 73.7183 18.1055 74.1199 19.1152 74.1211H55.8844C56.8941 74.1199 57.8622 73.7183 58.5762 73.0043C59.2902 72.2903 59.6918 71.3222 59.693 70.3125V4.6875C59.6918 3.67776 59.2902 2.7097 58.5762 1.9957C57.8622 1.2817 56.8941 0.880069 55.8844 0.878906ZM19.0428 5.49395C19.043 5.26092 19.1357 5.0375 19.3005 4.87273C19.4652 4.70795 19.6887 4.61528 19.9217 4.61505H55.0779C55.311 4.61528 55.5344 4.70795 55.6992 4.87273C55.8639 5.0375 55.9566 5.26092 55.9568 5.49395V9.07573H19.0428V5.49395ZM55.9568 12.8119V58.6725H19.0428V12.8119H55.9568ZM55.9568 69.5061C55.9566 69.7391 55.8639 69.9625 55.6992 70.1273C55.5344 70.292 55.311 70.3847 55.0779 70.385H19.9217C19.6887 70.3847 19.4652 70.292 19.3005 70.1273C19.1357 69.9625 19.043 69.7391 19.0428 69.5061V62.4086H55.9568V69.5061Z" fill="#2CD6A8"/>
<path d="M33.8506 68.2646H41.3148C41.7033 68.2646 42.0759 68.1103 42.3506 67.8356C42.6254 67.5609 42.7797 67.1883 42.7797 66.7998C42.7797 66.4113 42.6254 66.0387 42.3506 65.764C42.0759 65.4893 41.7033 65.335 41.3148 65.335H33.8506C33.4621 65.335 33.0895 65.4893 32.8148 65.764C32.5401 66.0387 32.3857 66.4113 32.3857 66.7998C32.3857 67.1883 32.5401 67.5609 32.8148 67.8356C33.0895 68.1103 33.4621 68.2646 33.8506 68.2646Z" fill="#2CD6A8"/>
<path d="M38.7742 40.6967H36.284C35.7401 40.6967 35.2185 40.4806 34.8339 40.096C34.4493 39.7114 34.2332 39.1898 34.2332 38.6459C34.2332 38.102 34.4493 37.5804 34.8339 37.1958C35.2185 36.8112 35.7401 36.5951 36.284 36.5951H39.9184C40.0273 36.5952 40.1349 36.6172 40.235 36.66C40.3351 36.7028 40.4255 36.7653 40.5008 36.8439C40.576 36.9225 40.6346 37.0156 40.673 37.1174C40.7114 37.2192 40.7288 37.3278 40.7241 37.4365C40.7074 37.8247 40.8456 38.2036 41.1082 38.4898C41.3709 38.7761 41.7365 38.9463 42.1246 38.963C42.5128 38.9797 42.8917 38.8416 43.1779 38.5789C43.4642 38.3163 43.6344 37.9506 43.6511 37.5625C43.6727 37.0588 43.5922 36.556 43.4143 36.0842C43.2364 35.6125 42.9649 35.1817 42.6162 34.8176C42.2674 34.4536 41.8486 34.1639 41.3849 33.966C40.9212 33.7681 40.4223 33.666 39.9181 33.666H39.0672V32.7871C39.0672 32.3986 38.9129 32.026 38.6382 31.7513C38.3635 31.4766 37.9909 31.3223 37.6024 31.3223C37.2139 31.3223 36.8413 31.4766 36.5666 31.7513C36.2919 32.026 36.1375 32.3986 36.1375 32.7871V33.6698C34.8294 33.7074 33.5887 34.2583 32.6837 35.2035C31.7787 36.1487 31.2821 37.4121 31.3013 38.7206C31.3206 40.0291 31.8541 41.2774 32.7866 42.1955C33.719 43.1137 34.9754 43.6279 36.284 43.6269H38.7742C39.318 43.6275 39.8392 43.8438 40.2237 44.2282C40.6082 44.6127 40.8244 45.134 40.825 45.6777V45.8242C40.8244 46.3679 40.6082 46.8892 40.2237 47.2737C39.8392 47.6582 39.318 47.8744 38.7742 47.875H35.0814C34.9742 47.875 34.8681 47.8536 34.7692 47.8121C34.6704 47.7707 34.5808 47.7099 34.5057 47.6334C34.4306 47.5569 34.3715 47.4662 34.3319 47.3666C34.2922 47.267 34.2728 47.1605 34.2748 47.0534L34.2776 46.9013C34.2811 46.7089 34.2466 46.5178 34.1761 46.3387C34.1057 46.1597 34.0007 45.9963 33.8671 45.8578C33.7335 45.7194 33.574 45.6086 33.3976 45.5318C33.2212 45.455 33.0314 45.4137 32.839 45.4102C32.6466 45.4068 32.4555 45.4413 32.2764 45.5117C32.0974 45.5822 31.934 45.6872 31.7955 45.8207C31.657 45.9543 31.5463 46.1139 31.4695 46.2903C31.3927 46.4667 31.3514 46.6565 31.3479 46.8489L31.3453 47.0006C31.3363 47.4969 31.4263 47.9899 31.6099 48.451C31.7936 48.9121 32.0673 49.332 32.4151 49.6861C32.7628 50.0403 33.1776 50.3216 33.6353 50.5136C34.093 50.7057 34.5843 50.8046 35.0806 50.8047H36.1368V51.6836C36.1368 52.0721 36.2911 52.4447 36.5658 52.7194C36.8405 52.9941 37.2131 53.1484 37.6016 53.1484C37.9901 53.1484 38.3627 52.9941 38.6374 52.7194C38.9121 52.4447 39.0665 52.0721 39.0665 51.6836V50.7954C40.3339 50.7193 41.5245 50.1626 42.3955 49.2389C43.2665 48.3151 43.7524 47.0939 43.754 45.8242V45.6777C43.7526 44.3573 43.2276 43.0914 42.294 42.1576C41.3605 41.2238 40.0947 40.6984 38.7742 40.6967Z" fill="#2CD6A8"/>
<path d="M35.2207 28.1905C35.825 27.5861 36.6447 27.2466 37.4994 27.2466C38.3541 27.2466 39.1737 27.5861 39.7781 28.1905C39.9141 28.3265 40.0756 28.4344 40.2534 28.5081C40.4311 28.5817 40.6216 28.6196 40.814 28.6196C41.0064 28.6196 41.1969 28.5817 41.3747 28.5081C41.5524 28.4344 41.7139 28.3265 41.85 28.1905C41.986 28.0544 42.0939 27.8929 42.1675 27.7152C42.2412 27.5374 42.2791 27.3469 42.2791 27.1545C42.2791 26.9621 42.2412 26.7716 42.1675 26.5939C42.0939 26.4162 41.986 26.2546 41.85 26.1186C41.2787 25.5472 40.6004 25.094 39.8539 24.7848C39.1074 24.4756 38.3074 24.3164 37.4994 24.3164C36.6914 24.3164 35.8913 24.4756 35.1448 24.7848C34.3984 25.094 33.7201 25.5472 33.1488 26.1186C32.8741 26.3933 32.7197 26.7659 32.7197 27.1545C32.7197 27.543 32.8741 27.9156 33.1488 28.1903C33.4235 28.4651 33.7961 28.6194 34.1847 28.6194C34.5732 28.6194 34.9458 28.4651 35.2205 28.1903L35.2207 28.1905Z" fill="#2CD6A8"/>
<path d="M28.177 23.2179C28.4517 23.4926 28.8243 23.6469 29.2128 23.6469C29.6013 23.6469 29.9739 23.4926 30.2486 23.2179C31.2008 22.2656 32.3312 21.5102 33.5753 20.9948C34.8195 20.4795 36.1529 20.2142 37.4996 20.2142C38.8462 20.2142 40.1797 20.4795 41.4238 20.9948C42.6679 21.5102 43.7984 22.2656 44.7505 23.2179C45.0273 23.4823 45.3965 23.6279 45.7792 23.6235C46.162 23.6191 46.5278 23.4651 46.7984 23.1944C47.069 22.9238 47.2229 22.5579 47.2272 22.1752C47.2315 21.7925 47.0859 21.4233 46.8214 21.1466C45.5972 19.9224 44.1438 18.9513 42.5443 18.2887C40.9448 17.6262 39.2304 17.2852 37.4991 17.2852C35.7678 17.2852 34.0535 17.6262 32.4539 18.2887C30.8544 18.9513 29.4011 19.9224 28.1769 21.1466C27.9023 21.4213 27.748 21.7938 27.748 22.1823C27.7481 22.5707 27.9024 22.9432 28.177 23.2179Z" fill="#2CD6A8"/>
</svg>
