<svg width="110" height="42" viewBox="0 0 110 42" fill="none" xmlns="http://www.w3.org/2000/svg">
<path fill-rule="evenodd" clip-rule="evenodd" d="M57.8347 14.202C56.9119 13.4261 55.337 13.0381 53.1091 13.0381H48.084V28.5674H51.8414V23.701H53.5246C55.5675 23.701 57.0656 23.2513 58.0189 22.3511C59.0936 21.3424 59.6331 19.9995 59.6331 18.3233C59.6331 16.5853 59.0333 15.2116 57.8347 14.202ZM53.4312 20.1864H51.8414V16.5536H53.2697C55.007 16.5536 55.8757 17.1629 55.8757 18.3815C55.8757 19.5842 55.0603 20.1864 53.4312 20.1864Z" fill="white"/>
<path fill-rule="evenodd" clip-rule="evenodd" d="M66.0646 13.0381H62.1465V28.5674H70.606V25.0519H66.0646V13.0381Z" fill="white"/>
<path fill-rule="evenodd" clip-rule="evenodd" d="M78.2817 13.0381L72.127 28.5674H76.3454L77.152 26.3092H82.5001L83.2378 28.5674H87.5034L81.3931 13.0381H78.2817ZM78.2354 23.1658L79.8497 17.8577L81.4394 23.1658H78.2354Z" fill="white"/>
<mask id="mask0" mask-type="alpha" maskUnits="userSpaceOnUse" x="0" y="0" width="110" height="42">
<path d="M0 41.4452H110V0.000488281H0V41.4452Z" fill="white"/>
</mask>
<g mask="url(#mask0)">
<path fill-rule="evenodd" clip-rule="evenodd" d="M89.4609 28.5674H93.3799V13.0381H89.4609V28.5674Z" fill="white"/>
<path fill-rule="evenodd" clip-rule="evenodd" d="M108.594 15.9482C108.071 15.2032 107.449 14.6062 106.727 14.1557C105.544 13.4106 103.929 13.0376 101.886 13.0376H96.7227V28.5669H102.762C104.944 28.5669 106.696 27.8536 108.018 26.4251C109.339 24.9976 109.999 23.1036 109.999 20.7441C109.999 18.8668 109.531 17.2682 108.594 15.9482ZM102.324 25.0514H100.642V16.5531H102.347C103.546 16.5531 104.467 16.9279 105.113 17.6765C105.758 18.4251 106.081 19.4867 106.081 20.8604C106.081 23.6547 104.829 25.0514 102.324 25.0514Z" fill="white"/>
<path fill-rule="evenodd" clip-rule="evenodd" d="M16.2713 0.000488281L3.57063 3.32643L0.0715873 16.0976L4.44889 20.5919L0 25.0121L3.29389 37.8397L15.9387 41.3729L20.3875 36.9518L24.7648 41.4452L37.4646 38.1193L40.9636 25.3463L36.5872 20.8538L41.0352 16.4336L37.7422 3.60595L25.0957 0.0727915L20.6486 4.49298L16.2713 0.000488281ZM8.47698 5.78298L15.1669 4.03007L18.0924 7.03329L13.826 11.2727L8.47698 5.78298ZM23.1629 7.07385L26.1355 4.12001L32.7966 5.98137L27.3603 11.3829L23.1629 7.07385ZM4.0796 15.0492L5.92254 8.32241L11.2698 13.8122L7.00421 18.0516L4.0796 15.0492ZM29.8746 13.9638L35.3109 8.56136L37.0447 15.3191L34.0729 18.2729L29.8746 13.9638ZM16.3411 13.8536L20.6075 9.61417L24.8041 13.9233L20.5386 18.1627L16.3411 13.8536ZM9.51936 20.6325L13.7849 16.393L17.9833 20.7021L13.7168 24.9416L9.51936 20.6325ZM23.0537 20.7436L27.3193 16.5041L31.5167 20.8132L27.2503 25.0527L23.0537 20.7436ZM3.99056 26.1266L6.96405 23.1719L11.1606 27.4819L5.72611 32.8826L3.99056 26.1266ZM16.2311 27.5224L20.4975 23.283L24.695 27.5921L20.4294 31.8315L16.2311 27.5224ZM29.7646 27.6335L34.031 23.3941L36.9565 26.3964L35.1136 33.1233L29.7646 27.6335ZM8.23952 35.4643L13.6749 30.0619L17.8733 34.3709L14.9006 37.3257L8.23952 35.4643ZM22.9437 34.4124L27.2093 30.173L32.5574 35.6627L25.8683 37.4147L22.9437 34.4124Z" fill="white"/>
</g>
</svg>
