<svg width="171" height="197" viewBox="0 0 171 197" fill="none" xmlns="http://www.w3.org/2000/svg">
<path d="M121.639 187.986C143.73 187.986 161.639 170.077 161.639 147.986C161.639 125.895 143.73 107.986 121.639 107.986C99.5473 107.986 81.6387 125.895 81.6387 147.986C81.6387 170.077 99.5473 187.986 121.639 187.986Z" fill="#2CD6A8"/>
<path d="M111.078 43.23L49.9783 96.43L27.4063 72.193C27.2606 72.0355 27.084 71.9098 26.8875 71.8238C26.691 71.7377 26.4788 71.6932 26.2643 71.693C25.8679 71.6926 25.4862 71.8427 25.1963 72.113C25.0461 72.2521 24.925 72.4196 24.84 72.6058C24.755 72.7921 24.7079 72.9934 24.7013 73.198C24.6935 73.4034 24.7266 73.6084 24.7985 73.8009C24.8704 73.9935 24.9797 74.1699 25.1203 74.32L48.7204 99.659C49.0012 99.9461 49.3797 100.117 49.7808 100.138C50.1819 100.159 50.5761 100.028 50.8853 99.772L113.124 45.583C113.28 45.4486 113.407 45.2846 113.499 45.1006C113.591 44.9166 113.646 44.7162 113.659 44.511C113.674 44.3069 113.647 44.102 113.582 43.908C113.517 43.7141 113.414 43.535 113.279 43.381C113.007 43.0696 112.623 42.8788 112.21 42.8505C111.797 42.8222 111.39 42.9586 111.078 43.23Z" fill="#45FCCA"/>
<path d="M146.475 165.112L122.843 147.212V117.375C122.842 116.961 122.678 116.564 122.385 116.272C122.092 115.979 121.695 115.814 121.282 115.814C120.868 115.814 120.471 115.979 120.178 116.271C119.886 116.564 119.721 116.961 119.721 117.375V147.986C119.721 148.227 119.776 148.464 119.883 148.68C119.99 148.895 120.145 149.083 120.337 149.229L144.589 167.597C144.922 167.837 145.335 167.94 145.742 167.884C146.149 167.828 146.518 167.618 146.775 167.297C146.899 167.134 146.99 166.948 147.041 166.75C147.093 166.551 147.104 166.345 147.075 166.142C147.048 165.939 146.981 165.744 146.878 165.567C146.775 165.39 146.638 165.235 146.475 165.112Z" fill="#13222E"/>
<path d="M121.282 98.978C108.289 98.9926 95.8321 104.161 86.6443 113.348C77.4565 122.536 72.2883 134.993 72.2734 147.986C72.2883 160.979 77.4565 173.436 86.6443 182.624C95.8321 191.812 108.289 196.979 121.282 196.994C134.276 196.979 146.732 191.811 155.92 182.624C165.107 173.436 170.276 160.979 170.29 147.986C170.276 134.993 165.107 122.536 155.92 113.349C146.732 104.161 134.276 98.9928 121.282 98.978ZM121.282 193.872C109.117 193.859 97.4532 189.02 88.8507 180.417C80.2482 171.815 75.4091 160.152 75.3954 147.986C75.4094 135.82 80.2485 124.157 88.851 115.555C97.4534 106.953 109.117 102.114 121.282 102.1C133.448 102.114 145.111 106.953 153.713 115.555C162.316 124.157 167.154 135.821 167.168 147.986C167.155 160.152 162.316 171.815 153.714 180.417C145.111 189.019 133.448 193.858 121.282 193.872Z" fill="#45FCCA"/>
<path d="M61.4861 168.091H16.8671C13.2231 168.087 9.72959 166.638 7.15295 164.061C4.57631 161.484 3.12702 157.991 3.12305 154.347V16.867C3.12702 13.223 4.57622 9.72935 7.15283 7.15256C9.72944 4.57576 13.2231 3.12624 16.8671 3.122H121.502C125.146 3.12624 128.64 4.57576 131.216 7.15256C133.793 9.72935 135.242 13.223 135.246 16.867V84.107C135.247 84.5208 135.411 84.9176 135.704 85.2102C135.996 85.5028 136.393 85.6675 136.807 85.668C137.221 85.6677 137.618 85.5032 137.911 85.2105C138.203 84.9178 138.368 84.5209 138.368 84.107V16.867C138.363 12.3952 136.585 8.10796 133.423 4.94585C130.261 1.78373 125.974 0.00502937 121.502 0H16.8671C12.3952 0.00502888 8.10789 1.7837 4.9458 4.94578C1.78371 8.10787 0.00502888 12.3951 0 16.867V154.347C0.00529299 158.819 1.78414 163.106 4.94617 166.268C8.1082 169.43 12.3953 171.209 16.8671 171.214H61.4861C61.9001 171.213 62.2969 171.049 62.5896 170.756C62.8823 170.463 63.0467 170.066 63.047 169.652C63.0465 169.238 62.8819 168.841 62.5892 168.549C62.2966 168.256 61.8999 168.092 61.4861 168.091Z" fill="#45FCCA"/>
</svg>
