<svg width="70" height="70" viewBox="0 0 70 70" fill="none" xmlns="http://www.w3.org/2000/svg">
<g clip-path="url(#clip0)">
<path d="M52.5 70.0001C52.3075 70.0001 52.115 69.9622 51.9342 69.8834C51.24 69.5947 35 62.5742 35 48.2301V36.0413C35 35.4172 35.3996 34.8601 35.9917 34.6588L52.0333 29.2426C52.3367 29.1405 52.6663 29.1405 52.9667 29.2426L69.0083 34.6588C69.6004 34.8572 70 35.4142 70 36.0413V48.2301C70 62.5742 53.76 69.5947 53.0658 69.8863C52.885 69.9622 52.6925 70.0001 52.5 70.0001ZM37.9167 37.0884V48.2301C37.9167 59.2697 49.7438 65.6076 52.5 66.9376C55.2533 65.6047 67.0833 59.2434 67.0833 48.2301V37.0884L52.5 32.1651L37.9167 37.0884Z" fill="#45FCCA"/>
<path d="M51.0422 55.4167C51.016 55.4167 50.9868 55.4167 50.9635 55.4138C50.5464 55.3905 50.1643 55.1922 49.9047 54.8684L44.0714 47.5767C43.5697 46.9467 43.6689 46.0309 44.2989 45.5263C44.9347 45.0276 45.8506 45.1267 46.3493 45.7538L51.1618 51.7738L60.2181 42.7176C60.7868 42.1488 61.7114 42.1488 62.2802 42.7176C62.8489 43.2863 62.8489 44.2109 62.2802 44.7797L52.0718 54.988C51.8006 55.2651 51.4272 55.4167 51.0422 55.4167Z" fill="#45FCCA"/>
<path d="M30.625 61.25H7.29167C3.26958 61.25 0 57.9775 0 53.9583V7.29167C0 3.2725 3.26958 0 7.29167 0H39.375C43.3971 0 46.6667 3.2725 46.6667 7.29167V21.875C46.6667 22.68 46.0133 23.3333 45.2083 23.3333C44.4033 23.3333 43.75 22.68 43.75 21.875V7.29167C43.75 4.87958 41.7871 2.91667 39.375 2.91667H7.29167C4.87958 2.91667 2.91667 4.87958 2.91667 7.29167V53.9583C2.91667 56.3704 4.87958 58.3333 7.29167 58.3333H30.625C31.43 58.3333 32.0833 58.9867 32.0833 59.7917C32.0833 60.5967 31.43 61.25 30.625 61.25Z" fill="#45FCCA"/>
<path d="M27.7083 43.7497C26.9033 43.7497 26.25 43.0963 26.25 42.2913V16.0413C26.25 15.2363 26.9033 14.583 27.7083 14.583H36.4583C37.2633 14.583 37.9167 15.2363 37.9167 16.0413V27.708C37.9167 28.513 37.2633 29.1663 36.4583 29.1663C35.6533 29.1663 35 28.513 35 27.708V17.4997H29.1667V42.2913C29.1667 43.0963 28.5133 43.7497 27.7083 43.7497Z" fill="#45FCCA"/>
<path d="M18.9583 43.75H10.2083C9.40333 43.75 8.75 43.0967 8.75 42.2917V27.7083C8.75 26.9033 9.40333 26.25 10.2083 26.25H18.9583C19.7633 26.25 20.4167 26.9033 20.4167 27.7083V42.2917C20.4167 43.0967 19.7633 43.75 18.9583 43.75ZM11.6667 40.8333H17.5V29.1667H11.6667V40.8333Z" fill="#45FCCA"/>
<path d="M27.708 43.7497H7.29134C6.48634 43.7497 5.83301 43.0963 5.83301 42.2913C5.83301 41.4863 6.48634 40.833 7.29134 40.833H27.708C28.513 40.833 29.1663 41.4863 29.1663 42.2913C29.1663 43.0963 28.513 43.7497 27.708 43.7497Z" fill="#45FCCA"/>
</g>
<defs>
<clipPath id="clip0">
<rect width="70" height="70" fill="white"/>
</clipPath>
</defs>
</svg>
