<svg width="75" height="75" viewBox="0 0 75 75" fill="none" xmlns="http://www.w3.org/2000/svg">
<path d="M37.5 0C16.775 0 0 16.7722 0 37.5C0 58.225 16.772 75 37.5 75C58.225 75 75 58.2278 75 37.5C75 16.775 58.228 0 37.5 0ZM37.5 72.0703C18.394 72.0703 2.92969 56.6087 2.92969 37.5C2.92969 18.3942 18.3913 2.92969 37.5 2.92969C56.606 2.92969 72.0703 18.3913 72.0703 37.5C72.0703 56.6058 56.6087 72.0703 37.5 72.0703Z" fill="#2CD6A8"/>
<path d="M46.5892 6.74121H28.4123C25.2782 6.74121 22.7285 9.29092 22.7285 12.4251V24.2637C22.7285 27.0803 24.1192 29.7069 26.4488 31.2901L29.8711 33.6158C32.6232 35.4864 32.5966 39.5319 29.8711 41.3843L26.4488 43.7101C24.1192 45.2933 22.7285 47.9199 22.7285 50.7365V62.575C22.7285 65.7092 25.2782 68.2589 28.4123 68.2589H46.5892C49.7232 68.2589 52.2729 65.7092 52.2729 62.575C52.2729 61.205 52.2729 52.565 52.2729 50.7365C52.2729 47.9199 50.8822 45.2933 48.5527 43.7101L45.1304 41.3843C42.4189 39.5414 42.3617 35.4976 45.1304 33.6158C48.3907 31.3787 48.7141 31.2343 49.3813 30.6492C51.2082 29.0474 52.2729 26.7283 52.2729 24.2638V12.425C52.2729 9.29092 49.7232 6.74121 46.5892 6.74121ZM28.4123 9.6709H46.5892C48.1078 9.6709 49.3433 10.9065 49.3433 12.4251V22.7987H38.713C37.904 22.7987 37.2482 23.4546 37.2482 24.2635C37.2482 25.0724 37.904 25.7284 38.713 25.7284H49.1451C48.4403 28.3134 46.8617 28.8239 43.4834 31.1928C41.5805 32.4863 40.3545 34.5955 40.1691 36.8814H34.8319C34.6509 34.6493 33.4679 32.5185 31.5176 31.1928C28.0507 28.8322 26.5261 28.1846 25.8561 25.7284H26.9941C27.8032 25.7284 28.459 25.0724 28.459 24.2635C28.459 23.4546 27.8032 22.7987 26.9941 22.7987H25.6579V12.425C25.6582 10.9063 26.8937 9.6709 28.4123 9.6709ZM49.3433 62.575C49.3433 64.0936 48.1078 65.3292 46.5892 65.3292H28.4123C26.8937 65.3292 25.6582 64.0936 25.6582 62.575V62.0262L34.8044 56.909C36.4676 55.9786 38.534 55.9786 40.1974 56.909L49.3434 62.0262V62.575H49.3433ZM46.9059 46.1331C48.4321 47.1703 49.3433 48.8912 49.3433 50.7365V58.6692L41.6276 54.3524C39.0822 52.9282 35.9193 52.928 33.3738 54.3524L25.6582 58.6692V50.7363C25.6582 48.8911 26.5693 47.1702 28.0956 46.1329L31.5177 43.8072C32.9512 42.8331 33.9882 41.4186 34.499 39.8109H40.5025C41.0133 41.4186 42.0504 42.8331 43.4837 43.8072L46.9059 46.1331Z" fill="#2CD6A8"/>
<path d="M32.8535 25.7285H32.8572C33.6662 25.7285 34.3201 25.0726 34.3201 24.2637C34.3201 23.4548 33.6626 22.7988 32.8535 22.7988C32.0445 22.7988 31.3887 23.4548 31.3887 24.2637C31.3887 25.0726 32.0445 25.7285 32.8535 25.7285Z" fill="#2CD6A8"/>
</svg>
