<svg width="104" height="294" viewBox="0 0 104 294" fill="none" xmlns="http://www.w3.org/2000/svg">
<path d="M2.00001 282L2.00001 282.75L1.25001 282.75L1.25001 282L2.00001 282ZM102.53 281.47C102.823 281.763 102.823 282.237 102.53 282.53L97.7574 287.303C97.4645 287.596 96.9896 287.596 96.6967 287.303C96.4038 287.01 96.4038 286.536 96.6967 286.243L100.939 282L96.6967 277.757C96.4038 277.464 96.4038 276.99 96.6967 276.697C96.9896 276.404 97.4645 276.404 97.7574 276.697L102.53 281.47ZM2.00001 2L1.25001 2L1.25001 1.25L2.00001 1.25L2.00001 2ZM102 2.75L97.4545 2.75L97.4545 1.25L102 1.25L102 2.75ZM86.5455 2.75L77.4545 2.75L77.4546 1.25L86.5455 1.25L86.5455 2.75ZM66.5455 2.75L57.4545 2.75L57.4545 1.25L66.5455 1.25L66.5455 2.75ZM46.5455 2.75L37.4545 2.75L37.4545 1.25L46.5455 1.25L46.5455 2.75ZM26.5455 2.75L17.4545 2.75L17.4545 1.25L26.5455 1.25L26.5455 2.75ZM6.54546 2.75L2.00001 2.75L2.00001 1.25L6.54546 1.25L6.54546 2.75ZM2.75001 2L2.75001 6.8951L1.25001 6.8951L1.25001 2L2.75001 2ZM2.75001 18.6434L2.75001 28.4336L1.25001 28.4336L1.25001 18.6434L2.75001 18.6434ZM2.75001 40.1818L2.75001 49.972L1.25001 49.972L1.25001 40.1818L2.75001 40.1818ZM2.75001 61.7203L2.75001 71.5105L1.25001 71.5105L1.25001 61.7203L2.75001 61.7203ZM2.75001 83.2587L2.75001 93.0489L1.25001 93.0489L1.25001 83.2587L2.75001 83.2587ZM2.75001 104.797L2.75001 114.587L1.25001 114.587L1.25001 104.797L2.75001 104.797ZM2.75001 126.336L2.75001 136.126L1.25001 136.126L1.25001 126.336L2.75001 126.336ZM2.75001 147.874L2.75001 157.664L1.25001 157.664L1.25001 147.874L2.75001 147.874ZM2.75001 169.413L2.75001 179.203L1.25001 179.203L1.25001 169.413L2.75001 169.413ZM2.75001 190.951L2.75001 200.741L1.25001 200.741L1.25001 190.951L2.75001 190.951ZM2.75001 212.489L2.75001 222.28L1.25001 222.28L1.25001 212.489L2.75001 212.489ZM2.75001 234.028L2.75001 243.818L1.25001 243.818L1.25001 234.028L2.75001 234.028ZM2.75001 255.566L2.75001 265.357L1.25001 265.357L1.25001 255.566L2.75001 255.566ZM2.75001 277.105L2.75001 282L1.25001 282L1.25001 277.105L2.75001 277.105ZM2.00001 281.25L6.54546 281.25L6.54546 282.75L2.00001 282.75L2.00001 281.25ZM17.4546 281.25L26.5455 281.25L26.5455 282.75L17.4546 282.75L17.4546 281.25ZM37.4546 281.25L46.5455 281.25L46.5455 282.75L37.4546 282.75L37.4546 281.25ZM57.4546 281.25L66.5455 281.25L66.5455 282.75L57.4546 282.75L57.4546 281.25ZM77.4545 281.25L86.5455 281.25L86.5455 282.75L77.4545 282.75L77.4545 281.25ZM97.4545 281.25L102 281.25L102 282.75L97.4545 282.75L97.4545 281.25ZM2.00001 282L2.00001 283.5L0.500007 283.5L0.500007 282L2.00001 282ZM103.061 280.939C103.646 281.525 103.646 282.475 103.061 283.061L93.5147 292.607C92.9289 293.192 91.9792 293.192 91.3934 292.607C90.8076 292.021 90.8076 291.071 91.3934 290.485L99.8787 282L91.3934 273.515C90.8076 272.929 90.8076 271.979 91.3934 271.393C91.9792 270.808 92.9289 270.808 93.5147 271.393L103.061 280.939ZM2.00001 2L0.500006 2L0.500006 0.499995L2.00001 0.499995L2.00001 2ZM102 3.5L97.4545 3.5L97.4545 0.499996L102 0.499996L102 3.5ZM86.5455 3.5L77.4545 3.5L77.4546 0.499996L86.5455 0.499996L86.5455 3.5ZM66.5455 3.5L57.4545 3.5L57.4545 0.499995L66.5455 0.499996L66.5455 3.5ZM46.5455 3.5L37.4545 3.5L37.4545 0.499995L46.5455 0.499995L46.5455 3.5ZM26.5455 3.5L17.4545 3.5L17.4545 0.499995L26.5455 0.499995L26.5455 3.5ZM6.54546 3.5L2.00001 3.5L2.00001 0.499995L6.54546 0.499995L6.54546 3.5ZM3.50001 2L3.50001 6.8951L0.500006 6.8951L0.500006 2L3.50001 2ZM3.50001 18.6434L3.50001 28.4336L0.500006 28.4336L0.500006 18.6434L3.50001 18.6434ZM3.50001 40.1818L3.50001 49.972L0.500006 49.972L0.500006 40.1818L3.50001 40.1818ZM3.50001 61.7203L3.50001 71.5105L0.500006 71.5105L0.500006 61.7203L3.50001 61.7203ZM3.50001 83.2587L3.50001 93.0489L0.500006 93.0489L0.500006 83.2587L3.50001 83.2587ZM3.50001 104.797L3.50001 114.587L0.500006 114.587L0.500006 104.797L3.50001 104.797ZM3.50001 126.336L3.50001 136.126L0.500006 136.126L0.500006 126.336L3.50001 126.336ZM3.50001 147.874L3.50001 157.664L0.500006 157.664L0.500006 147.874L3.50001 147.874ZM3.50001 169.413L3.50001 179.203L0.500006 179.203L0.500006 169.413L3.50001 169.413ZM3.50001 190.951L3.50001 200.741L0.500006 200.741L0.500006 190.951L3.50001 190.951ZM3.50001 212.489L3.50001 222.28L0.500006 222.28L0.500006 212.489L3.50001 212.489ZM3.50001 234.028L3.50001 243.818L0.500007 243.818L0.500006 234.028L3.50001 234.028ZM3.50001 255.566L3.50001 265.357L0.500007 265.357L0.500007 255.566L3.50001 255.566ZM3.50001 277.105L3.50001 282L0.500007 282L0.500007 277.105L3.50001 277.105ZM2.00001 280.5L6.54546 280.5L6.54546 283.5L2.00001 283.5L2.00001 280.5ZM17.4546 280.5L26.5455 280.5L26.5455 283.5L17.4546 283.5L17.4546 280.5ZM37.4546 280.5L46.5455 280.5L46.5455 283.5L37.4546 283.5L37.4546 280.5ZM57.4546 280.5L66.5455 280.5L66.5455 283.5L57.4546 283.5L57.4546 280.5ZM77.4545 280.5L86.5455 280.5L86.5455 283.5L77.4545 283.5L77.4545 280.5ZM97.4545 280.5L102 280.5L102 283.5L97.4545 283.5L97.4545 280.5Z" fill="#2D455B"/>
</svg>
