<svg width="104" height="294" viewBox="0 0 104 294" fill="none" xmlns="http://www.w3.org/2000/svg">
<path d="M102 282L102 282.75L102.75 282.75L102.75 282L102 282ZM1.46966 281.47C1.17676 281.763 1.17676 282.237 1.46966 282.53L6.24263 287.303C6.53553 287.596 7.01039 287.596 7.30329 287.303C7.59618 287.01 7.59618 286.536 7.30329 286.243L3.06065 282L7.30329 277.757C7.59618 277.464 7.59618 276.99 7.30329 276.697C7.01039 276.404 6.53553 276.404 6.24263 276.697L1.46966 281.47ZM102 2L102.75 2L102.75 1.25L102 1.25L102 2ZM2 2.75L6.54546 2.75L6.54546 1.25L2 1.25L2 2.75ZM17.4545 2.75L26.5455 2.75L26.5454 1.25L17.4545 1.25L17.4545 2.75ZM37.4545 2.75L46.5455 2.75L46.5455 1.25L37.4545 1.25L37.4545 2.75ZM57.4545 2.75L66.5455 2.75L66.5455 1.25L57.4545 1.25L57.4545 2.75ZM77.4545 2.75L86.5455 2.75L86.5455 1.25L77.4545 1.25L77.4545 2.75ZM97.4545 2.75L102 2.75L102 1.25L97.4545 1.25L97.4545 2.75ZM101.25 2L101.25 6.8951L102.75 6.8951L102.75 2L101.25 2ZM101.25 18.6434L101.25 28.4336L102.75 28.4336L102.75 18.6434L101.25 18.6434ZM101.25 40.1818L101.25 49.972L102.75 49.972L102.75 40.1818L101.25 40.1818ZM101.25 61.7203L101.25 71.5105L102.75 71.5105L102.75 61.7203L101.25 61.7203ZM101.25 83.2587L101.25 93.0489L102.75 93.0489L102.75 83.2587L101.25 83.2587ZM101.25 104.797L101.25 114.587L102.75 114.587L102.75 104.797L101.25 104.797ZM101.25 126.336L101.25 136.126L102.75 136.126L102.75 126.336L101.25 126.336ZM101.25 147.874L101.25 157.664L102.75 157.664L102.75 147.874L101.25 147.874ZM101.25 169.413L101.25 179.203L102.75 179.203L102.75 169.413L101.25 169.413ZM101.25 190.951L101.25 200.741L102.75 200.741L102.75 190.951L101.25 190.951ZM101.25 212.489L101.25 222.28L102.75 222.28L102.75 212.489L101.25 212.489ZM101.25 234.028L101.25 243.818L102.75 243.818L102.75 234.028L101.25 234.028ZM101.25 255.566L101.25 265.357L102.75 265.357L102.75 255.566L101.25 255.566ZM101.25 277.105L101.25 282L102.75 282L102.75 277.105L101.25 277.105ZM102 281.25L97.4545 281.25L97.4545 282.75L102 282.75L102 281.25ZM86.5454 281.25L77.4545 281.25L77.4545 282.75L86.5454 282.75L86.5454 281.25ZM66.5454 281.25L57.4545 281.25L57.4545 282.75L66.5454 282.75L66.5454 281.25ZM46.5454 281.25L37.4545 281.25L37.4545 282.75L46.5454 282.75L46.5454 281.25ZM26.5455 281.25L17.4545 281.25L17.4545 282.75L26.5455 282.75L26.5455 281.25ZM6.54545 281.25L1.99999 281.25L1.99999 282.75L6.54545 282.75L6.54545 281.25ZM102 282L102 283.5L103.5 283.5L103.5 282L102 282ZM0.939326 280.939C0.353542 281.525 0.353542 282.475 0.939326 283.061L10.4853 292.607C11.0711 293.192 12.0208 293.192 12.6066 292.607C13.1924 292.021 13.1924 291.071 12.6066 290.485L4.12131 282L12.6066 273.515C13.1924 272.929 13.1924 271.979 12.6066 271.393C12.0208 270.808 11.0711 270.808 10.4853 271.393L0.939326 280.939ZM102 2L103.5 2L103.5 0.499995L102 0.499995L102 2ZM2 3.5L6.54546 3.5L6.54546 0.499996L2 0.499996L2 3.5ZM17.4545 3.5L26.5455 3.5L26.5454 0.499996L17.4545 0.499996L17.4545 3.5ZM37.4545 3.5L46.5455 3.5L46.5455 0.499995L37.4545 0.499996L37.4545 3.5ZM57.4545 3.5L66.5455 3.5L66.5455 0.499995L57.4545 0.499995L57.4545 3.5ZM77.4545 3.5L86.5455 3.5L86.5455 0.499995L77.4545 0.499995L77.4545 3.5ZM97.4545 3.5L102 3.5L102 0.499995L97.4545 0.499995L97.4545 3.5ZM100.5 2L100.5 6.8951L103.5 6.8951L103.5 2L100.5 2ZM100.5 18.6434L100.5 28.4336L103.5 28.4336L103.5 18.6434L100.5 18.6434ZM100.5 40.1818L100.5 49.972L103.5 49.972L103.5 40.1818L100.5 40.1818ZM100.5 61.7203L100.5 71.5105L103.5 71.5105L103.5 61.7203L100.5 61.7203ZM100.5 83.2587L100.5 93.0489L103.5 93.0489L103.5 83.2587L100.5 83.2587ZM100.5 104.797L100.5 114.587L103.5 114.587L103.5 104.797L100.5 104.797ZM100.5 126.336L100.5 136.126L103.5 136.126L103.5 126.336L100.5 126.336ZM100.5 147.874L100.5 157.664L103.5 157.664L103.5 147.874L100.5 147.874ZM100.5 169.413L100.5 179.203L103.5 179.203L103.5 169.413L100.5 169.413ZM100.5 190.951L100.5 200.741L103.5 200.741L103.5 190.951L100.5 190.951ZM100.5 212.489L100.5 222.28L103.5 222.28L103.5 212.489L100.5 212.489ZM100.5 234.028L100.5 243.818L103.5 243.818L103.5 234.028L100.5 234.028ZM100.5 255.566L100.5 265.357L103.5 265.357L103.5 255.566L100.5 255.566ZM100.5 277.105L100.5 282L103.5 282L103.5 277.105L100.5 277.105ZM102 280.5L97.4545 280.5L97.4545 283.5L102 283.5L102 280.5ZM86.5454 280.5L77.4545 280.5L77.4545 283.5L86.5454 283.5L86.5454 280.5ZM66.5454 280.5L57.4545 280.5L57.4545 283.5L66.5454 283.5L66.5454 280.5ZM46.5454 280.5L37.4545 280.5L37.4545 283.5L46.5454 283.5L46.5454 280.5ZM26.5455 280.5L17.4545 280.5L17.4545 283.5L26.5455 283.5L26.5455 280.5ZM6.54545 280.5L1.99999 280.5L1.99999 283.5L6.54545 283.5L6.54545 280.5Z" fill="#2D455B"/>
</svg>
