<svg width="75" height="75" viewBox="0 0 75 75" fill="none" xmlns="http://www.w3.org/2000/svg">
<path d="M5.85938 49.6582C2.62852 49.6582 0 52.2867 0 55.5176C0 58.7484 2.62852 61.377 5.85938 61.377V67.6758C5.85938 68.4848 6.51519 69.1406 7.32422 69.1406H31.6406C32.4497 69.1406 33.1055 68.4848 33.1055 67.6758V59.6426C33.1055 59.1664 32.8739 58.7199 32.4848 58.4454C32.0956 58.171 31.5973 58.1029 31.1487 58.2628C30.8007 58.3869 30.4824 58.4473 30.1758 58.4473C28.5604 58.4473 27.2461 57.133 27.2461 55.5176C27.2461 53.9021 28.5604 52.5879 30.1758 52.5879C30.4824 52.5879 30.8007 52.6482 31.1487 52.7723C31.5974 52.9326 32.0958 52.8642 32.4848 52.5898C32.874 52.3153 33.1055 51.8688 33.1055 51.3926V43.3594C33.1055 42.5503 32.4497 41.8945 31.6406 41.8945H25.3418C25.3418 38.6637 22.7133 36.0352 19.4824 36.0352C16.2516 36.0352 13.623 38.6637 13.623 41.8945H7.32422C6.51519 41.8945 5.85938 42.5503 5.85938 43.3594V49.6582ZM6.83232 52.7723C7.28101 52.9326 7.77935 52.8642 8.16841 52.5898C8.55762 52.3153 8.78906 51.8688 8.78906 51.3926V44.8242H15.3574C15.8336 44.8242 16.2801 44.5926 16.5546 44.2036C16.829 43.8144 16.8971 43.316 16.7372 42.8675C16.6131 42.5194 16.5527 42.2011 16.5527 41.8945C16.5527 40.2791 17.867 38.9648 19.4824 38.9648C21.0979 38.9648 22.4121 40.2791 22.4121 41.8945C22.4121 42.2011 22.3518 42.5194 22.2277 42.8675C22.0677 43.316 22.1358 43.8144 22.4102 44.2036C22.6847 44.5928 23.1312 44.8242 23.6074 44.8242H30.1758V49.6582C26.9449 49.6582 24.3164 52.2867 24.3164 55.5176C24.3164 58.7484 26.9449 61.377 30.1758 61.377V66.2109H8.78906V59.6426C8.78906 59.1664 8.55747 58.7199 8.16841 58.4454C7.7792 58.171 7.28086 58.1029 6.83232 58.2628C6.48428 58.3869 6.16597 58.4473 5.85938 58.4473C4.24395 58.4473 2.92969 57.133 2.92969 55.5176C2.92969 53.9021 4.24395 52.5879 5.85938 52.5879C6.16597 52.5879 6.48428 52.6482 6.83232 52.7723Z" fill="#2CD6A8"/>
<path d="M69.1406 13.623V7.32422C69.1406 6.51519 68.4848 5.85938 67.6758 5.85938H43.3594C42.5503 5.85938 41.8945 6.51519 41.8945 7.32422V15.3574C41.8945 15.8336 42.1261 16.2801 42.5152 16.5546C42.9045 16.829 43.4027 16.8973 43.8513 16.7372C44.1993 16.6131 44.5175 16.5527 44.8242 16.5527C46.4396 16.5527 47.7539 17.867 47.7539 19.4824C47.7539 21.0979 46.4396 22.4121 44.8242 22.4121C44.5176 22.4121 44.1993 22.3518 43.8513 22.2277C43.4027 22.0677 42.9044 22.1358 42.5152 22.4102C42.126 22.6847 41.8945 23.1312 41.8945 23.6074V31.6406C41.8945 32.4497 42.5503 33.1055 43.3594 33.1055H49.6582C49.6582 36.3363 52.2867 38.9648 55.5176 38.9648C58.7484 38.9648 61.377 36.3363 61.377 33.1055H67.6758C68.4848 33.1055 69.1406 32.4497 69.1406 31.6406V25.3418C72.3715 25.3418 75 22.7133 75 19.4824C75 16.2516 72.3715 13.623 69.1406 13.623ZM69.1406 22.4121C68.834 22.4121 68.5157 22.3518 68.1677 22.2277C67.7191 22.0677 67.2208 22.1358 66.8316 22.4102C66.4424 22.6847 66.2109 23.1312 66.2109 23.6074V30.1758H59.6426C59.1664 30.1758 58.7199 30.4074 58.4454 30.7964C58.171 31.1856 58.1029 31.684 58.2628 32.1325C58.3869 32.4806 58.4473 32.7987 58.4473 33.1055C58.4473 34.7209 57.133 36.0352 55.5176 36.0352C53.9021 36.0352 52.5879 34.7209 52.5879 33.1055C52.5879 32.7989 52.6482 32.4806 52.7723 32.1325C52.9323 31.684 52.8642 31.1856 52.5898 30.7964C52.3153 30.4072 51.8688 30.1758 51.3926 30.1758H44.8242V25.3418C48.0551 25.3418 50.6836 22.7133 50.6836 19.4824C50.6836 16.2516 48.0551 13.623 44.8242 13.623V8.78906H66.2109V15.3574C66.2109 15.8336 66.4425 16.2801 66.8316 16.5546C67.2209 16.829 67.719 16.8973 68.1677 16.7372C68.5157 16.6131 68.8339 16.5527 69.1406 16.5527C70.7561 16.5527 72.0703 17.867 72.0703 19.4824C72.0703 21.0979 70.7561 22.4121 69.1406 22.4121Z" fill="#2CD6A8"/>
<path d="M31.6406 5.85938H25.3418C25.3418 2.62852 22.7133 0 19.4824 0C16.2516 0 13.623 2.62852 13.623 5.85938H7.32422C6.51519 5.85938 5.85938 6.51519 5.85938 7.32422V31.6406C5.85938 32.4497 6.51519 33.1055 7.32422 33.1055H15.3574C15.8336 33.1055 16.2801 32.8739 16.5546 32.4848C16.829 32.0956 16.8971 31.5973 16.7372 31.1487C16.6131 30.8007 16.5527 30.4824 16.5527 30.1758C16.5527 28.5604 17.867 27.2461 19.4824 27.2461C21.0979 27.2461 22.4121 28.5604 22.4121 30.1758C22.4121 30.4824 22.3518 30.8007 22.2277 31.1487C22.0677 31.5973 22.1358 32.0956 22.4102 32.4848C22.6847 32.874 23.1312 33.1055 23.6074 33.1055H31.6406C32.4497 33.1055 33.1055 32.4497 33.1055 31.6406V25.3418C36.3363 25.3418 38.9648 22.7133 38.9648 19.4824C38.9648 16.2516 36.3363 13.623 33.1055 13.623V7.32422C33.1055 6.51519 32.4497 5.85938 31.6406 5.85938ZM36.0352 19.4824C36.0352 21.0979 34.7209 22.4121 33.1055 22.4121C32.7989 22.4121 32.4806 22.3518 32.1325 22.2277C31.6838 22.0677 31.1856 22.1358 30.7964 22.4102C30.4072 22.6847 30.1758 23.1312 30.1758 23.6074V30.1758H25.3418C25.3418 26.9449 22.7133 24.3164 19.4824 24.3164C16.2516 24.3164 13.623 26.9449 13.623 30.1758H8.78906V8.78906H15.3574C15.8336 8.78906 16.2801 8.55747 16.5546 8.16841C16.829 7.7792 16.8971 7.28086 16.7372 6.83232C16.6131 6.48428 16.5527 6.16597 16.5527 5.85938C16.5527 4.24395 17.867 2.92969 19.4824 2.92969C21.0979 2.92969 22.4121 4.24395 22.4121 5.85938C22.4121 6.16597 22.3518 6.48428 22.2277 6.83232C22.0677 7.28086 22.1358 7.7792 22.4102 8.16841C22.6847 8.55762 23.1312 8.78906 23.6074 8.78906H30.1758V15.3574C30.1758 15.8336 30.4074 16.2801 30.7964 16.5546C31.1856 16.829 31.6838 16.8973 32.1325 16.7372C32.4806 16.6131 32.7987 16.5527 33.1055 16.5527C34.7209 16.5527 36.0352 17.867 36.0352 19.4824Z" fill="#2CD6A8"/>
<path d="M67.6758 56.9824C68.4848 56.9824 69.1406 56.3266 69.1406 55.5176C69.1406 54.7086 68.4848 54.0527 67.6758 54.0527C66.8668 54.0527 66.2109 54.7086 66.2109 55.5176C66.2109 56.3266 66.8668 56.9824 67.6758 56.9824Z" fill="#2CD6A8"/>
<path d="M52.5898 42.5152C52.3153 42.126 51.8688 41.8945 51.3926 41.8945H43.3594C42.5503 41.8945 41.8945 42.5503 41.8945 43.3594V49.6582C38.6637 49.6582 36.0352 52.2867 36.0352 55.5176C36.0352 58.7484 38.6637 61.377 41.8945 61.377V67.6758C41.8945 68.4848 42.5503 69.1406 43.3594 69.1406H49.6582C49.6582 72.3715 52.2867 75 55.5176 75C58.7484 75 61.377 72.3715 61.377 69.1406H67.6758C68.4848 69.1406 69.1406 68.4848 69.1406 67.6758V62.1094C69.1406 61.3003 68.4848 60.6445 67.6758 60.6445C66.8667 60.6445 66.2109 61.3003 66.2109 62.1094V66.2109H59.6426C59.1664 66.2109 58.7199 66.4425 58.4454 66.8316C58.171 67.2208 58.1029 67.7191 58.2628 68.1677C58.3869 68.5157 58.4473 68.8339 58.4473 69.1406C58.4473 70.7561 57.133 72.0703 55.5176 72.0703C53.9021 72.0703 52.5879 70.7561 52.5879 69.1406C52.5879 68.834 52.6482 68.5157 52.7723 68.1677C52.9323 67.7191 52.8642 67.2208 52.5898 66.8316C52.3153 66.4424 51.8688 66.2109 51.3926 66.2109H44.8242V59.6426C44.8242 59.1664 44.5926 58.7199 44.2036 58.4454C43.8142 58.171 43.3162 58.1029 42.8675 58.2628C42.5194 58.3869 42.2011 58.4473 41.8945 58.4473C40.2791 58.4473 38.9648 57.133 38.9648 55.5176C38.9648 53.9021 40.2791 52.5879 41.8945 52.5879C42.2011 52.5879 42.5194 52.6482 42.8675 52.7723C43.3162 52.9326 43.8145 52.8642 44.2036 52.5898C44.5928 52.3153 44.8242 51.8688 44.8242 51.3926V44.8242H49.6582C49.6582 48.0551 52.2867 50.6836 55.5176 50.6836C58.7484 50.6836 61.377 48.0551 61.377 44.8242H66.2109V48.9258C66.2109 49.7348 66.8667 50.3906 67.6758 50.3906C68.4848 50.3906 69.1406 49.7348 69.1406 48.9258V43.3594C69.1406 42.5503 68.4848 41.8945 67.6758 41.8945H59.6426C59.1664 41.8945 58.7199 42.1261 58.4454 42.5152C58.171 42.9044 58.1029 43.4027 58.2628 43.8513C58.3869 44.1993 58.4473 44.5175 58.4473 44.8242C58.4473 46.4396 57.133 47.7539 55.5176 47.7539C53.9021 47.7539 52.5879 46.4396 52.5879 44.8242C52.5879 44.5176 52.6482 44.1993 52.7723 43.8513C52.9323 43.4027 52.8642 42.9045 52.5898 42.5152Z" fill="#2CD6A8"/>
</svg>
