<svg width="28" height="23" viewBox="0 0 28 23" fill="none" xmlns="http://www.w3.org/2000/svg">
<path d="M27.12 0.354305L0.4091 9.69032C0.290588 9.7353 0.188278 9.81475 0.115372 9.91845C0.0424659 10.0221 0.00231832 10.1453 9.73641e-05 10.2721C-0.00212359 10.3988 0.033697 10.5233 0.102925 10.6295C0.172153 10.7357 0.271604 10.8187 0.388467 10.8678L7.2292 13.4401L9.77813 20.8091C9.82006 20.9035 9.88304 20.9872 9.96225 21.0536C10.0415 21.12 10.1348 21.1674 10.2351 21.1923C10.3355 21.2171 10.4401 21.2186 10.5412 21.1968C10.6422 21.175 10.7369 21.1303 10.8181 21.0663L14.7316 17.7264L22.172 22.2507C22.2597 22.3034 22.3584 22.3352 22.4604 22.3437C22.5624 22.3521 22.6649 22.337 22.7601 22.2995C22.8553 22.262 22.9407 22.2031 23.0095 22.1274C23.0783 22.0516 23.1287 21.9611 23.1569 21.8627L27.9935 1.02971C28.0096 0.918562 27.9958 0.805141 27.9537 0.701032C27.9116 0.596922 27.8426 0.505868 27.7538 0.437172C27.6649 0.368476 27.5594 0.324597 27.4481 0.310038C27.3367 0.29548 27.2235 0.310758 27.12 0.354305ZM11.0354 14.8363L10.6007 18.6246L8.53737 12.7936L23.1047 4.02158L11.0354 14.8363Z" fill="#45FCCA"/>
</svg>
