<svg width="70" height="70" viewBox="0 0 70 70" fill="none" xmlns="http://www.w3.org/2000/svg">
<g clip-path="url(#clip0)">
<path d="M69.8651 38.2332C69.2365 31.9115 66.4123 25.9517 61.9123 21.4516C58.0666 17.606 53.3596 15.1348 48.4067 14.036V10.5622C50.4296 10.0589 51.9333 8.2278 51.9333 6.05134C51.9333 3.4881 49.848 1.40283 47.2848 1.40283H37.4409C34.8776 1.40283 32.7924 3.4881 32.7924 6.05134C32.7924 8.22766 34.296 10.0588 36.3188 10.5622V14.0457C31.3811 15.1492 26.6897 17.617 22.8549 21.4517C22.0158 22.2909 21.2419 23.1713 20.5336 24.0862C20.4992 24.0836 20.4649 24.081 20.4299 24.081H10.6871C9.93209 24.081 9.31985 24.6931 9.31985 25.4482C9.31985 26.2033 9.93209 26.8154 10.6871 26.8154H18.6732C17.6708 28.4937 16.8625 30.2561 16.2472 32.0704H1.36721C0.612236 32.0704 0 32.6825 0 33.4376C0 34.1927 0.612236 34.8048 1.36721 34.8048H15.4746C15.0806 36.5345 14.8545 38.2948 14.7961 40.06H8.75014C7.99516 40.06 7.38293 40.6721 7.38293 41.4272C7.38293 42.1823 7.99516 42.7944 8.75014 42.7944H14.8397C14.9551 44.5641 15.2396 46.3245 15.6934 48.0495H6.83604C6.08107 48.0495 5.46884 48.6616 5.46884 49.4167C5.46884 50.1718 6.08107 50.7839 6.83604 50.7839H16.5659C17.9072 54.332 20.0032 57.6575 22.8549 60.5092C27.3594 65.0136 33.3253 67.8385 39.6536 68.4637C40.5567 68.5529 41.4606 68.597 42.3632 68.597C47.6984 68.597 52.9657 67.053 57.4351 64.1425C58.0678 63.7305 58.2468 62.8835 57.8347 62.2507C57.4226 61.618 56.5756 61.439 55.9429 61.8511C46.1596 68.2219 33.0572 66.8444 24.7885 58.5757C15.0865 48.8737 15.0865 33.0875 24.7885 23.3854C34.4903 13.6835 50.2765 13.6835 59.9786 23.3854C68.2364 31.6433 69.6214 44.7345 63.2717 54.513C62.8604 55.1463 63.0405 55.9932 63.6736 56.4043C64.3072 56.8155 65.1538 56.6355 65.5649 56.0022C68.9575 50.7774 70.4847 44.467 69.8651 38.2332ZM35.5268 6.05148C35.5268 4.99599 36.3854 4.13739 37.4409 4.13739H47.2848C48.3403 4.13739 49.1989 4.99599 49.1989 6.05148C49.1989 7.10696 48.3403 7.96557 47.2848 7.96557H47.0395H37.686H37.4409C36.3854 7.96557 35.5268 7.10683 35.5268 6.05148ZM39.0532 13.5756V10.7H45.6723V13.5707C43.4744 13.3093 41.2507 13.3109 39.0532 13.5756Z" fill="#2CD6A8"/>
<path d="M60.9463 58.1748C60.5854 58.1748 60.234 58.3211 59.9798 58.5754C59.7242 58.8297 59.5791 59.1824 59.5791 59.542C59.5791 59.9016 59.7242 60.2543 59.9798 60.5086C60.234 60.7643 60.5855 60.9092 60.9463 60.9092C61.3059 60.9092 61.6572 60.7643 61.9129 60.5086C62.1672 60.2543 62.3135 59.9016 62.3135 59.542C62.3135 59.1824 62.1673 58.8297 61.9129 58.5754C61.6572 58.3211 61.3057 58.1748 60.9463 58.1748Z" fill="#2CD6A8"/>
<path d="M42.3842 19.771C30.6893 19.771 21.1748 29.2854 21.1748 40.9804C21.1748 52.6753 30.6893 62.1897 42.3842 62.1897C54.079 62.1897 63.5936 52.6753 63.5936 40.9804C63.5936 29.2854 54.079 19.771 42.3842 19.771ZM42.3842 59.4553C32.197 59.4553 23.9092 51.1674 23.9092 40.9804C23.9092 30.7933 32.197 22.5054 42.3842 22.5054C52.5714 22.5054 60.8591 30.7933 60.8591 40.9804C60.8591 51.1674 52.5714 59.4553 42.3842 59.4553Z" fill="#2CD6A8"/>
<path d="M51.0324 30.398L44.2606 37.1696C43.6943 36.8896 43.0573 36.7314 42.384 36.7314C41.7105 36.7314 41.0736 36.8896 40.5073 37.1696L37.4766 34.1389C36.9426 33.605 36.0772 33.605 35.543 34.1389C35.0091 34.6728 35.0091 35.5386 35.543 36.0724L38.5737 39.1031C38.2935 39.6694 38.1355 40.3064 38.1355 40.9798C38.1355 43.3224 40.0413 45.2282 42.384 45.2282C44.7267 45.2282 46.6324 43.3224 46.6324 40.9798C46.6324 40.3064 46.4742 39.6694 46.1942 39.1031L52.7672 32.5301L52.9659 32.3315C53.4998 31.7976 53.4998 30.9319 52.9659 30.398C52.432 29.8641 51.5665 29.8641 51.0324 30.398ZM42.384 42.494C41.5491 42.494 40.8699 41.8147 40.8699 40.9799C40.8699 40.1451 41.5491 39.4659 42.384 39.4659C43.2188 39.4659 43.898 40.1451 43.898 40.9799C43.898 41.8147 43.2188 42.494 42.384 42.494Z" fill="#2CD6A8"/>
<path d="M57.0016 39.6299H55.7349C54.9799 39.6299 54.3677 40.242 54.3677 40.9971C54.3677 41.7522 54.9799 42.3643 55.7349 42.3643H57.0016C57.7565 42.3643 58.3688 41.7522 58.3688 40.9971C58.3688 40.242 57.7565 39.6299 57.0016 39.6299Z" fill="#2CD6A8"/>
<path d="M29.0322 39.5967H27.7656C27.0107 39.5967 26.3984 40.2088 26.3984 40.9639C26.3984 41.719 27.0107 42.3311 27.7656 42.3311H29.0322C29.7871 42.3311 30.3994 41.719 30.3994 40.9639C30.3994 40.2088 29.7871 39.5967 29.0322 39.5967Z" fill="#2CD6A8"/>
<path d="M42.3999 28.9956C43.1549 28.9956 43.7671 28.3835 43.7671 27.6284V26.3618C43.7671 25.6067 43.1549 24.9946 42.3999 24.9946C41.6449 24.9946 41.0327 25.6067 41.0327 26.3618V27.6284C41.0327 28.3835 41.6449 28.9956 42.3999 28.9956Z" fill="#2CD6A8"/>
<path d="M42.3667 52.9644C41.6117 52.9644 40.9995 53.5764 40.9995 54.3315V55.5981C40.9995 56.3532 41.6117 56.9653 42.3667 56.9653C43.1217 56.9653 43.7339 56.3532 43.7339 55.5981V54.3315C43.7339 53.5764 43.1217 52.9644 42.3667 52.9644Z" fill="#2CD6A8"/>
<path d="M1.36719 48.0488C1.00762 48.0488 0.654883 48.1951 0.400586 48.4494C0.146289 48.7037 0 49.0564 0 49.416C0 49.777 0.146152 50.1283 0.400586 50.3826C0.65502 50.6369 1.00762 50.7832 1.36719 50.7832C1.72676 50.7832 2.07949 50.6369 2.33365 50.3826C2.58795 50.1283 2.73438 49.7756 2.73438 49.416C2.73438 49.0564 2.58809 48.7037 2.33365 48.4494C2.07949 48.1951 1.72676 48.0488 1.36719 48.0488Z" fill="#2CD6A8"/>
</g>
<defs>
<clipPath id="clip0">
<rect width="70" height="70" fill="white"/>
</clipPath>
</defs>
</svg>
