<svg width="80" height="80" viewBox="0 0 80 80" fill="none" xmlns="http://www.w3.org/2000/svg">
<path d="M67.1667 40C67.1667 25.0203 54.9797 12.8333 40 12.8333C25.0203 12.8333 12.8333 25.0203 12.8333 40C12.8333 47.0535 15.5362 53.4872 19.9595 58.3215L14.1822 64.0988C13.3395 64.9413 13.948 66.375 15.125 66.375C15.4662 66.375 15.8075 66.2448 16.0678 65.9845L21.8535 60.1988C26.6947 64.5525 33.0668 67.1672 40.0015 67.1668C54.9807 67.1658 67.1667 54.9792 67.1667 40ZM53.11 38.6667H41.3333V16.7513C45.0452 19.6818 52.5693 27.0202 53.11 38.6667ZM38.6667 15.5367V38.6667H26.8918C27.274 30.615 31.0515 24.6423 34.2492 20.9852C34.7338 20.4308 34.6773 19.5885 34.123 19.1038C33.5687 18.619 32.7263 18.6757 32.2417 19.23C28.7423 23.2322 24.6055 29.79 24.2228 38.6667H15.5367C16.2077 26.2165 26.2165 16.2077 38.6667 15.5367ZM15.5367 41.3333H24.2217C24.7033 52.6558 31.229 60.2673 35.5438 64.0927C24.6518 62.0828 16.1543 52.7945 15.5367 41.3333ZM26.8892 41.3333H38.6667V63.2355C32.0692 57.9983 27.3028 50.3215 26.8892 41.3333ZM41.3333 64.4633V41.3333H53.1078C52.7133 49.665 48.6957 55.79 45.2957 59.5243C44.7998 60.0688 44.8395 60.9122 45.384 61.4078C45.9285 61.9037 46.7718 61.864 47.2675 61.3195C50.9857 57.2358 55.3823 50.5152 55.7772 41.3333H60C60.7363 41.3333 61.3333 40.7363 61.3333 40C61.3333 39.2637 60.7363 38.6667 60 38.6667H55.7785C55.2977 27.3468 48.7748 19.7345 44.4618 15.9085C55.848 18.0122 64.5 28.0142 64.5 40C64.5 53.062 54.225 63.7685 41.3333 64.4633ZM69.9893 68.2703L63.5262 61.8072C63.0055 61.2865 62.1613 61.2865 61.6407 61.8072C61.1198 62.3278 61.1198 63.172 61.6407 63.6927L68.1398 70.1918C65.4797 74.4462 68.5558 80 73.5833 80C77.1215 80 80 77.1215 80 73.5833C80 68.4338 74.2165 65.4015 69.9893 68.2703ZM73.5833 77.3333C71.5155 77.3333 69.8333 75.6512 69.8333 73.5833C69.8333 71.5155 71.5155 69.8333 73.5833 69.8333C75.6512 69.8333 77.3333 71.5155 77.3333 73.5833C77.3333 75.6512 75.6512 77.3333 73.5833 77.3333ZM9.808 11.8603L16.3072 18.3595C16.828 18.8803 17.672 18.8802 18.1927 18.3595C18.7135 17.8388 18.7135 16.9947 18.1927 16.474L11.7297 10.0107C14.5983 5.7835 11.5658 0 6.41667 0C2.8785 0 0 2.8785 0 6.41667C0 11.4513 5.56133 14.5155 9.808 11.8603ZM6.41667 2.66667C8.4845 2.66667 10.1667 4.34883 10.1667 6.41667C10.1667 8.4845 8.4845 10.1667 6.41667 10.1667C4.34883 10.1667 2.66667 8.4845 2.66667 6.41667C2.66667 4.34883 4.34883 2.66667 6.41667 2.66667ZM6.41667 67.1667C2.8785 67.1667 0 70.0452 0 73.5833C0 77.1215 2.8785 80 6.41667 80C9.95483 80 12.8333 77.1215 12.8333 73.5833C12.8333 70.0452 9.95483 67.1667 6.41667 67.1667ZM6.41667 77.3333C4.34883 77.3333 2.66667 75.6512 2.66667 73.5833C2.66667 71.5155 4.34883 69.8333 6.41667 69.8333C8.4845 69.8333 10.1667 71.5155 10.1667 73.5833C10.1667 75.6512 8.4845 77.3333 6.41667 77.3333ZM63.5262 18.1928L69.9893 11.7297C74.2165 14.5983 80 11.5658 80 6.41667C80 2.8785 77.1215 0 73.5833 0C68.5487 0 65.4845 5.56133 68.1397 9.808L61.6405 16.3072C61.1197 16.8278 61.1197 17.672 61.6405 18.1927C62.1613 18.7135 63.0055 18.7135 63.5262 18.1928ZM73.5833 2.66667C75.6512 2.66667 77.3333 4.34883 77.3333 6.41667C77.3333 8.4845 75.6512 10.1667 73.5833 10.1667C71.5155 10.1667 69.8333 8.4845 69.8333 6.41667C69.8333 4.34883 71.5155 2.66667 73.5833 2.66667Z" fill="#2CD6A8"/>
</svg>
