<svg width="70" height="70" viewBox="0 0 70 70" fill="none" xmlns="http://www.w3.org/2000/svg">
<path d="M27.1099 32.0357C35.3625 32.0357 42.0528 25.3459 42.0528 17.0928C42.0528 8.84014 35.3625 2.1499 27.1099 2.1499C18.8572 2.1499 12.167 8.84014 12.167 17.0928C12.1749 25.3428 18.8603 32.0277 27.1099 32.0357ZM27.1099 4.97724C33.8014 4.97724 39.2254 10.4021 39.2254 17.0928C39.2254 23.7843 33.8014 29.2083 27.1099 29.2083C20.4187 29.2083 14.9948 23.7843 14.9948 17.0928C15.0023 10.4048 20.4218 4.9852 27.1099 4.97724Z" fill="#2CD6A8"/>
<path d="M65.9449 40.3907L53.7586 33.902C53.3387 33.673 52.8305 33.6783 52.4154 33.9157L41.2612 40.0229C37.1756 36.9834 32.2837 35.4003 27.0821 35.4003C20.6071 35.4144 14.5988 37.9311 10.1454 42.5113C5.63546 47.1339 3.16126 53.4534 3.17585 60.3098C3.17806 61.0899 3.80964 61.7215 4.5893 61.7237L43.9188 61.653C45.7676 63.9486 48.1446 65.7625 50.846 66.9404L52.4862 67.6612C52.6643 67.7408 52.8574 67.7792 53.0519 67.7744C53.2455 67.7708 53.4373 67.7328 53.6172 67.6612L55.4691 66.8555C62.2734 64.0008 66.6989 57.3406 66.694 49.9613V41.6485C66.6945 41.1235 66.4067 40.6404 65.9449 40.3907ZM6.04562 58.8822C6.34219 53.3261 8.50523 48.2513 12.1812 44.4763C16.0967 40.4472 21.3982 38.2276 27.0958 38.2276H27.1382C31.8179 38.2276 36.2006 39.6981 39.8336 42.483V50.131C39.8358 53.1674 40.5934 56.1552 42.0387 58.8252L6.04562 58.8822ZM63.8667 49.9613C63.8693 56.2091 60.1169 61.8461 54.3522 64.2545H54.3381L53.0519 64.8056L51.977 64.3389C46.3232 61.8687 42.6671 56.2873 42.661 50.1173V42.4689L53.108 36.7435L63.8667 42.483V49.9613Z" fill="#2CD6A8"/>
<path d="M49.234 49.2123C48.7266 48.6191 47.8342 48.5497 47.2406 49.0571C46.6475 49.5645 46.5781 50.4569 47.0855 51.05L50.2943 54.7962C50.5639 55.1096 50.9559 55.2899 51.3687 55.2912C51.6927 55.2939 52.0074 55.1843 52.2593 54.9801L59.7239 48.9157C60.329 48.4198 60.4174 47.5274 59.9215 46.9219C59.426 46.3168 58.5337 46.2284 57.9286 46.7243L51.5385 51.9269L49.234 49.2123Z" fill="#2CD6A8"/>
</svg>
